<mxfile host="app.diagrams.net" modified="2023-10-26T15:14:33.318Z" agent="Mozilla/5.0 (Windows NT 10.0; Win64; x64) AppleWebKit/537.36 (KHTML, like Gecko) Chrome/118.0.0.0 Safari/537.36 Edg/118.0.2088.69" etag="6JQFZnxlXJNLzAPv-1eG" version="22.0.8" type="google" pages="6">
  <diagram name="Page-1" id="cnE0yH70hCLEFusEQbxG">
    <mxGraphModel dx="474" dy="757" grid="1" gridSize="10" guides="1" tooltips="1" connect="1" arrows="1" fold="1" page="1" pageScale="1" pageWidth="850" pageHeight="1100" math="0" shadow="0">
      <root>
        <mxCell id="0" />
        <mxCell id="1" parent="0" />
        <mxCell id="Tnx5CEbFx1k8-mQdlVLC-14" value="Dưới đây là cấu trúc NDS (Normalized Data Structure) và DDS (Data Denormalization Structure) dướng để phục vụ nhu cầu phân tích bạn đã mô tả: &#xa; &#xa;**1. Số lớp dạy, thù lao dạy của mỗi giảng viên trong mỗi học kỳ:** &#xa; &#xa;*NDS (Normalized Data Structure):* &#xa;``` &#xa;Table: GiangVien &#xa;------------------------------------- &#xa;MaGV | HoTen | NgaySinh | ... &#xa;------------------------------------- &#xa;0001 | Nguyễn Văn A | 12/8/2000 | ... &#xa;7008 | Trần Thanh Hưng | 3/5/1988 | ... &#xa; &#xa;Table: GiangDay &#xa;---------------------------------------------------- &#xa;MaCT | HocKy | NamHoc | MaGV | MaMH | ... &#xa;---------------------------------------------------- &#xa;CLC | 1 | 2023-2024 | 0001 | CSDL | ... &#xa;CLC | 1 | 2023-2024 | 0001 | TTKD | ... &#xa;CLC | 1 | 2023-2024 | 7008 | TTKD | ... &#xa;``` &#xa; &#xa;*DDS (Data Denormalization Structure):* &#xa;``` &#xa;Table: InstructorTeachingStats &#xa;-------------------------------------- &#xa;MaGV | HocKy | NamHoc | SoLopDay | ThuLaoDay &#xa;-------------------------------------- &#xa;0001 | 1 | 2023-2024 | 2 | ... &#xa;7008 | 1 | 2023-2024 | 1 | ... &#xa;``` &#xa; &#xa;**2. Thù lao dạy của mỗi giảng viên trong mỗi học kỳ, chương trình:** &#xa; &#xa;*DDS (Data Denormalization Structure):* &#xa;``` &#xa;Table: InstructorTeachingFees &#xa;----------------------------------------------- &#xa;MaGV | HocKy | NamHoc | MaCT | ThuLaoDay &#xa;----------------------------------------------- &#xa;0001 | 1 | 2023-2024 | CSDL | ... &#xa;0001 | 1 | 2023-2024 | TTKD | ... &#xa;7008 | 1 | 2023-2024 | TTKD | ... &#xa;``` &#xa; &#xa;**3. Số lớp cơ sở ngành/chuyên ngành của mỗi chương trình trong mỗi học kỳ, năm:** &#xa; &#xa;*NDS (Normalized Data Structure):* &#xa;``` &#xa;Table: GiangDay &#xa;---------------------------------------------------- &#xa;MaCT | HocKy | NamHoc | MaMH | ... &#xa;---------------------------------------------------- &#xa;CLC | 1 | 2023-2024 | CSDL | ... &#xa;CLC | 1 | 2023-2024 | TTKD | ... &#xa;``` &#xa; &#xa;*DDS (Data Denormalization Structure):* &#xa;``` &#xa;Table: ProgramCourseStats &#xa;------------------------------------- &#xa;MaCT | HocKy | NamHoc | MaMH | SoLopCoSo | SoLopChuyenNganh &#xa;------------------------------------- &#xa;CLC | 1 | 2023-2024 | CSDL | 1 | 1 &#xa;CLC | 1 | 2023-2024 | TTKD | 0 | 2 &#xa;``` &#xa; &#xa;**4. So sánh thù lao dạy của mỗi (chương trình, học kỳ, năm) hoặc mỗi (chương trình, năm):** &#xa; &#xa;*DDS (Data Denormalization Structure): Same as #2. &#xa; &#xa;**5. So sánh thù lao dạy của mỗi năm:** &#xa; &#xa;*DDS (Data Denormalization Structure): Same as #2. &#xa; &#xa;Cấu trúc NDS và DDS sẽ tùy thuộc vào cách bạn muốn tổ chức dữ liệu trong Data Warehouse (DW) và cụ thể hóa hơn dữ liệu của bạn. Lưu ý rằng các khóa chính, ràng buộc và chi tiết cụ thể khác có thể được bổ sung cho cấu trúc này tùy thuộc vào hệ thống DW của bạn." style="text;whiteSpace=wrap;html=1;" parent="1" vertex="1">
          <mxGeometry x="1020" y="30" width="560" height="1160" as="geometry" />
        </mxCell>
        <mxCell id="NinnnEc7J0KADaJxtJI0-44" value="" style="rounded=0;whiteSpace=wrap;html=1;" parent="1" vertex="1">
          <mxGeometry x="390" y="470" width="160" height="110" as="geometry" />
        </mxCell>
        <mxCell id="NinnnEc7J0KADaJxtJI0-45" value="&lt;b style=&quot;font-size: 14px;&quot;&gt;CANBO&lt;/b&gt;" style="swimlane;fontStyle=0;childLayout=stackLayout;horizontal=1;startSize=30;horizontalStack=0;resizeParent=1;resizeParentMax=0;resizeLast=0;collapsible=1;marginBottom=0;whiteSpace=wrap;html=1;fontSize=14;" parent="1" vertex="1">
          <mxGeometry x="180" y="530" width="140" height="420" as="geometry" />
        </mxCell>
        <mxCell id="NinnnEc7J0KADaJxtJI0-46" value="&lt;b&gt;&lt;u&gt;MACB_NK&lt;/u&gt;&lt;/b&gt;" style="text;strokeColor=none;fillColor=none;align=left;verticalAlign=middle;spacingLeft=4;spacingRight=4;overflow=hidden;points=[[0,0.5],[1,0.5]];portConstraint=eastwest;rotatable=0;whiteSpace=wrap;html=1;fontSize=14;" parent="NinnnEc7J0KADaJxtJI0-45" vertex="1">
          <mxGeometry y="30" width="140" height="30" as="geometry" />
        </mxCell>
        <mxCell id="NinnnEc7J0KADaJxtJI0-47" value="HOVATEN" style="text;strokeColor=none;fillColor=none;align=left;verticalAlign=middle;spacingLeft=4;spacingRight=4;overflow=hidden;points=[[0,0.5],[1,0.5]];portConstraint=eastwest;rotatable=0;whiteSpace=wrap;html=1;fontSize=14;" parent="NinnnEc7J0KADaJxtJI0-45" vertex="1">
          <mxGeometry y="60" width="140" height="30" as="geometry" />
        </mxCell>
        <mxCell id="NinnnEc7J0KADaJxtJI0-48" value="NGAYSINH" style="text;strokeColor=none;fillColor=none;align=left;verticalAlign=middle;spacingLeft=4;spacingRight=4;overflow=hidden;points=[[0,0.5],[1,0.5]];portConstraint=eastwest;rotatable=0;whiteSpace=wrap;html=1;fontSize=14;" parent="NinnnEc7J0KADaJxtJI0-45" vertex="1">
          <mxGeometry y="90" width="140" height="30" as="geometry" />
        </mxCell>
        <mxCell id="NinnnEc7J0KADaJxtJI0-49" value="DIACHI" style="text;strokeColor=none;fillColor=none;align=left;verticalAlign=middle;spacingLeft=4;spacingRight=4;overflow=hidden;points=[[0,0.5],[1,0.5]];portConstraint=eastwest;rotatable=0;whiteSpace=wrap;html=1;fontSize=14;" parent="NinnnEc7J0KADaJxtJI0-45" vertex="1">
          <mxGeometry y="120" width="140" height="30" as="geometry" />
        </mxCell>
        <mxCell id="NinnnEc7J0KADaJxtJI0-50" value="DIENTHOAI" style="text;strokeColor=none;fillColor=none;align=left;verticalAlign=middle;spacingLeft=4;spacingRight=4;overflow=hidden;points=[[0,0.5],[1,0.5]];portConstraint=eastwest;rotatable=0;whiteSpace=wrap;html=1;fontSize=14;" parent="NinnnEc7J0KADaJxtJI0-45" vertex="1">
          <mxGeometry y="150" width="140" height="30" as="geometry" />
        </mxCell>
        <mxCell id="dfqjwkZ-2hZZyWslG4gG-1" value="EMAIL" style="text;strokeColor=none;fillColor=none;align=left;verticalAlign=middle;spacingLeft=4;spacingRight=4;overflow=hidden;points=[[0,0.5],[1,0.5]];portConstraint=eastwest;rotatable=0;whiteSpace=wrap;html=1;fontSize=14;" vertex="1" parent="NinnnEc7J0KADaJxtJI0-45">
          <mxGeometry y="180" width="140" height="30" as="geometry" />
        </mxCell>
        <mxCell id="NinnnEc7J0KADaJxtJI0-51" value="LOAICV" style="text;strokeColor=none;fillColor=none;align=left;verticalAlign=middle;spacingLeft=4;spacingRight=4;overflow=hidden;points=[[0,0.5],[1,0.5]];portConstraint=eastwest;rotatable=0;whiteSpace=wrap;html=1;fontSize=14;" parent="NinnnEc7J0KADaJxtJI0-45" vertex="1">
          <mxGeometry y="210" width="140" height="30" as="geometry" />
        </mxCell>
        <mxCell id="NinnnEc7J0KADaJxtJI0-52" value="HOCVI" style="text;strokeColor=none;fillColor=none;align=left;verticalAlign=middle;spacingLeft=4;spacingRight=4;overflow=hidden;points=[[0,0.5],[1,0.5]];portConstraint=eastwest;rotatable=0;whiteSpace=wrap;html=1;fontSize=14;" parent="NinnnEc7J0KADaJxtJI0-45" vertex="1">
          <mxGeometry y="240" width="140" height="30" as="geometry" />
        </mxCell>
        <mxCell id="NinnnEc7J0KADaJxtJI0-53" value="DONVICONGTAC" style="text;strokeColor=none;fillColor=none;align=left;verticalAlign=middle;spacingLeft=4;spacingRight=4;overflow=hidden;points=[[0,0.5],[1,0.5]];portConstraint=eastwest;rotatable=0;whiteSpace=wrap;html=1;fontSize=14;" parent="NinnnEc7J0KADaJxtJI0-45" vertex="1">
          <mxGeometry y="270" width="140" height="30" as="geometry" />
        </mxCell>
        <mxCell id="NinnnEc7J0KADaJxtJI0-54" value="STK" style="text;strokeColor=none;fillColor=none;align=left;verticalAlign=middle;spacingLeft=4;spacingRight=4;overflow=hidden;points=[[0,0.5],[1,0.5]];portConstraint=eastwest;rotatable=0;whiteSpace=wrap;html=1;fontSize=14;" parent="NinnnEc7J0KADaJxtJI0-45" vertex="1">
          <mxGeometry y="300" width="140" height="30" as="geometry" />
        </mxCell>
        <mxCell id="NinnnEc7J0KADaJxtJI0-55" value="NGANHANG" style="text;strokeColor=none;fillColor=none;align=left;verticalAlign=middle;spacingLeft=4;spacingRight=4;overflow=hidden;points=[[0,0.5],[1,0.5]];portConstraint=eastwest;rotatable=0;whiteSpace=wrap;html=1;fontSize=14;" parent="NinnnEc7J0KADaJxtJI0-45" vertex="1">
          <mxGeometry y="330" width="140" height="30" as="geometry" />
        </mxCell>
        <mxCell id="NinnnEc7J0KADaJxtJI0-56" value="MST" style="text;strokeColor=none;fillColor=none;align=left;verticalAlign=middle;spacingLeft=4;spacingRight=4;overflow=hidden;points=[[0,0.5],[1,0.5]];portConstraint=eastwest;rotatable=0;whiteSpace=wrap;html=1;fontSize=14;" parent="NinnnEc7J0KADaJxtJI0-45" vertex="1">
          <mxGeometry y="360" width="140" height="30" as="geometry" />
        </mxCell>
        <mxCell id="NinnnEc7J0KADaJxtJI0-57" value="CMND" style="text;strokeColor=none;fillColor=none;align=left;verticalAlign=middle;spacingLeft=4;spacingRight=4;overflow=hidden;points=[[0,0.5],[1,0.5]];portConstraint=eastwest;rotatable=0;whiteSpace=wrap;html=1;fontSize=14;" parent="NinnnEc7J0KADaJxtJI0-45" vertex="1">
          <mxGeometry y="390" width="140" height="30" as="geometry" />
        </mxCell>
        <mxCell id="NinnnEc7J0KADaJxtJI0-58" value="&lt;b style=&quot;font-size: 14px;&quot;&gt;MONHOC&lt;/b&gt;" style="swimlane;fontStyle=0;childLayout=stackLayout;horizontal=1;startSize=30;horizontalStack=0;resizeParent=1;resizeParentMax=0;resizeLast=0;collapsible=1;marginBottom=0;whiteSpace=wrap;html=1;fontSize=14;" parent="1" vertex="1">
          <mxGeometry x="390" y="130" width="140" height="180" as="geometry" />
        </mxCell>
        <mxCell id="NinnnEc7J0KADaJxtJI0-59" value="&lt;b&gt;&lt;u&gt;MAMH_NK&lt;/u&gt;&lt;/b&gt;" style="text;strokeColor=none;fillColor=none;align=left;verticalAlign=middle;spacingLeft=4;spacingRight=4;overflow=hidden;points=[[0,0.5],[1,0.5]];portConstraint=eastwest;rotatable=0;whiteSpace=wrap;html=1;fontSize=14;" parent="NinnnEc7J0KADaJxtJI0-58" vertex="1">
          <mxGeometry y="30" width="140" height="30" as="geometry" />
        </mxCell>
        <mxCell id="NinnnEc7J0KADaJxtJI0-60" value="TENMH" style="text;strokeColor=none;fillColor=none;align=left;verticalAlign=middle;spacingLeft=4;spacingRight=4;overflow=hidden;points=[[0,0.5],[1,0.5]];portConstraint=eastwest;rotatable=0;whiteSpace=wrap;html=1;fontSize=14;" parent="NinnnEc7J0KADaJxtJI0-58" vertex="1">
          <mxGeometry y="60" width="140" height="30" as="geometry" />
        </mxCell>
        <mxCell id="NinnnEc7J0KADaJxtJI0-61" value="SOTCLT" style="text;strokeColor=none;fillColor=none;align=left;verticalAlign=middle;spacingLeft=4;spacingRight=4;overflow=hidden;points=[[0,0.5],[1,0.5]];portConstraint=eastwest;rotatable=0;whiteSpace=wrap;html=1;fontSize=14;" parent="NinnnEc7J0KADaJxtJI0-58" vertex="1">
          <mxGeometry y="90" width="140" height="30" as="geometry" />
        </mxCell>
        <mxCell id="NinnnEc7J0KADaJxtJI0-62" value="SOTCTH" style="text;strokeColor=none;fillColor=none;align=left;verticalAlign=middle;spacingLeft=4;spacingRight=4;overflow=hidden;points=[[0,0.5],[1,0.5]];portConstraint=eastwest;rotatable=0;whiteSpace=wrap;html=1;fontSize=14;" parent="NinnnEc7J0KADaJxtJI0-58" vertex="1">
          <mxGeometry y="120" width="140" height="30" as="geometry" />
        </mxCell>
        <mxCell id="NinnnEc7J0KADaJxtJI0-63" value="LOAILH" style="text;strokeColor=none;fillColor=none;align=left;verticalAlign=middle;spacingLeft=4;spacingRight=4;overflow=hidden;points=[[0,0.5],[1,0.5]];portConstraint=eastwest;rotatable=0;whiteSpace=wrap;html=1;fontSize=14;" parent="NinnnEc7J0KADaJxtJI0-58" vertex="1">
          <mxGeometry y="150" width="140" height="30" as="geometry" />
        </mxCell>
        <mxCell id="NinnnEc7J0KADaJxtJI0-65" value="" style="endArrow=none;html=1;rounded=0;strokeColor=none;fontSize=14;" parent="1" edge="1">
          <mxGeometry relative="1" as="geometry">
            <mxPoint x="410" y="639" as="sourcePoint" />
            <mxPoint x="570" y="639" as="targetPoint" />
          </mxGeometry>
        </mxCell>
        <mxCell id="NinnnEc7J0KADaJxtJI0-66" value="&lt;b style=&quot;border-color: var(--border-color);&quot;&gt;CHUONGTRINH&lt;/b&gt;" style="swimlane;fontStyle=0;childLayout=stackLayout;horizontal=1;startSize=30;horizontalStack=0;resizeParent=1;resizeParentMax=0;resizeLast=0;collapsible=1;marginBottom=0;whiteSpace=wrap;html=1;fontSize=14;" parent="1" vertex="1">
          <mxGeometry x="391" y="740" width="140" height="90" as="geometry" />
        </mxCell>
        <mxCell id="NinnnEc7J0KADaJxtJI0-67" value="&lt;b&gt;&lt;u&gt;MACT_NK&lt;/u&gt;&lt;/b&gt;" style="text;strokeColor=none;fillColor=none;align=left;verticalAlign=middle;spacingLeft=4;spacingRight=4;overflow=hidden;points=[[0,0.5],[1,0.5]];portConstraint=eastwest;rotatable=0;whiteSpace=wrap;html=1;fontSize=14;" parent="NinnnEc7J0KADaJxtJI0-66" vertex="1">
          <mxGeometry y="30" width="140" height="30" as="geometry" />
        </mxCell>
        <mxCell id="NinnnEc7J0KADaJxtJI0-68" value="TENCT" style="text;strokeColor=none;fillColor=none;align=left;verticalAlign=middle;spacingLeft=4;spacingRight=4;overflow=hidden;points=[[0,0.5],[1,0.5]];portConstraint=eastwest;rotatable=0;whiteSpace=wrap;html=1;fontSize=14;" parent="NinnnEc7J0KADaJxtJI0-66" vertex="1">
          <mxGeometry y="60" width="140" height="30" as="geometry" />
        </mxCell>
        <mxCell id="NinnnEc7J0KADaJxtJI0-70" value="&lt;b style=&quot;font-size: 14px;&quot;&gt;THOIGIAN&lt;/b&gt;" style="swimlane;fontStyle=0;childLayout=stackLayout;horizontal=1;startSize=30;horizontalStack=0;resizeParent=1;resizeParentMax=0;resizeLast=0;collapsible=1;marginBottom=0;whiteSpace=wrap;html=1;fontSize=14;" parent="1" vertex="1">
          <mxGeometry x="621" y="365" width="140" height="90" as="geometry" />
        </mxCell>
        <mxCell id="NinnnEc7J0KADaJxtJI0-71" value="&lt;u style=&quot;font-size: 14px;&quot;&gt;&lt;b style=&quot;font-size: 14px;&quot;&gt;NAMHOC&lt;/b&gt;&lt;/u&gt;" style="text;strokeColor=none;fillColor=none;align=left;verticalAlign=middle;spacingLeft=4;spacingRight=4;overflow=hidden;points=[[0,0.5],[1,0.5]];portConstraint=eastwest;rotatable=0;whiteSpace=wrap;html=1;fontSize=14;" parent="NinnnEc7J0KADaJxtJI0-70" vertex="1">
          <mxGeometry y="30" width="140" height="30" as="geometry" />
        </mxCell>
        <mxCell id="NinnnEc7J0KADaJxtJI0-72" value="&lt;b style=&quot;font-size: 14px;&quot;&gt;&lt;u style=&quot;font-size: 14px;&quot;&gt;HOCKI&lt;/u&gt;&lt;/b&gt;" style="text;strokeColor=none;fillColor=none;align=left;verticalAlign=middle;spacingLeft=4;spacingRight=4;overflow=hidden;points=[[0,0.5],[1,0.5]];portConstraint=eastwest;rotatable=0;whiteSpace=wrap;html=1;fontSize=14;" parent="NinnnEc7J0KADaJxtJI0-70" vertex="1">
          <mxGeometry y="60" width="140" height="30" as="geometry" />
        </mxCell>
        <mxCell id="NinnnEc7J0KADaJxtJI0-75" value="&lt;b style=&quot;font-size: 14px;&quot;&gt;MONHOCMO&lt;/b&gt;" style="swimlane;fontStyle=0;childLayout=stackLayout;horizontal=1;startSize=30;horizontalStack=0;resizeParent=1;resizeParentMax=0;resizeLast=0;collapsible=1;marginBottom=0;whiteSpace=wrap;html=1;fontSize=14;" parent="1" vertex="1">
          <mxGeometry x="401" y="480" width="140" height="90" as="geometry" />
        </mxCell>
        <mxCell id="NinnnEc7J0KADaJxtJI0-76" value="&lt;b&gt;&lt;u&gt;MACT_NK&lt;/u&gt;&lt;/b&gt;" style="text;strokeColor=none;fillColor=none;align=left;verticalAlign=middle;spacingLeft=4;spacingRight=4;overflow=hidden;points=[[0,0.5],[1,0.5]];portConstraint=eastwest;rotatable=0;whiteSpace=wrap;html=1;fontSize=14;" parent="NinnnEc7J0KADaJxtJI0-75" vertex="1">
          <mxGeometry y="30" width="140" height="30" as="geometry" />
        </mxCell>
        <mxCell id="NinnnEc7J0KADaJxtJI0-77" value="&lt;b style=&quot;font-size: 14px;&quot;&gt;&lt;u style=&quot;font-size: 14px;&quot;&gt;STTLOP_NK&lt;br&gt;&lt;/u&gt;&lt;/b&gt;" style="text;strokeColor=none;fillColor=none;align=left;verticalAlign=middle;spacingLeft=4;spacingRight=4;overflow=hidden;points=[[0,0.5],[1,0.5]];portConstraint=eastwest;rotatable=0;whiteSpace=wrap;html=1;fontSize=14;" parent="NinnnEc7J0KADaJxtJI0-75" vertex="1">
          <mxGeometry y="60" width="140" height="30" as="geometry" />
        </mxCell>
        <mxCell id="NinnnEc7J0KADaJxtJI0-78" value="&lt;b style=&quot;font-size: 14px;&quot;&gt;VAITRO&lt;/b&gt;" style="swimlane;fontStyle=0;childLayout=stackLayout;horizontal=1;startSize=30;horizontalStack=0;resizeParent=1;resizeParentMax=0;resizeLast=0;collapsible=1;marginBottom=0;whiteSpace=wrap;html=1;fontSize=14;" parent="1" vertex="1">
          <mxGeometry x="570" y="650" width="140" height="60" as="geometry" />
        </mxCell>
        <mxCell id="NinnnEc7J0KADaJxtJI0-79" value="&lt;span style=&quot;font-size: 14px;&quot;&gt;&lt;span style=&quot;font-size: 14px;&quot;&gt;SOTIETDAY&lt;/span&gt;&lt;/span&gt;" style="text;strokeColor=none;fillColor=none;align=left;verticalAlign=middle;spacingLeft=4;spacingRight=4;overflow=hidden;points=[[0,0.5],[1,0.5]];portConstraint=eastwest;rotatable=0;whiteSpace=wrap;html=1;fontSize=14;" parent="NinnnEc7J0KADaJxtJI0-78" vertex="1">
          <mxGeometry y="30" width="140" height="30" as="geometry" />
        </mxCell>
        <mxCell id="NinnnEc7J0KADaJxtJI0-80" value="&lt;b style=&quot;border-color: var(--border-color);&quot;&gt;LOAIMH&lt;/b&gt;" style="swimlane;fontStyle=0;childLayout=stackLayout;horizontal=1;startSize=30;horizontalStack=0;resizeParent=1;resizeParentMax=0;resizeLast=0;collapsible=1;marginBottom=0;whiteSpace=wrap;html=1;fontSize=14;" parent="1" vertex="1">
          <mxGeometry x="180" y="350" width="140" height="120" as="geometry" />
        </mxCell>
        <mxCell id="NinnnEc7J0KADaJxtJI0-81" value="&lt;b&gt;&lt;u&gt;MALOAMH_NK&lt;/u&gt;&lt;/b&gt;" style="text;strokeColor=none;fillColor=none;align=left;verticalAlign=middle;spacingLeft=4;spacingRight=4;overflow=hidden;points=[[0,0.5],[1,0.5]];portConstraint=eastwest;rotatable=0;whiteSpace=wrap;html=1;fontSize=14;" parent="NinnnEc7J0KADaJxtJI0-80" vertex="1">
          <mxGeometry y="30" width="140" height="30" as="geometry" />
        </mxCell>
        <mxCell id="NinnnEc7J0KADaJxtJI0-82" value="TENLOAIMH" style="text;strokeColor=none;fillColor=none;align=left;verticalAlign=middle;spacingLeft=4;spacingRight=4;overflow=hidden;points=[[0,0.5],[1,0.5]];portConstraint=eastwest;rotatable=0;whiteSpace=wrap;html=1;fontSize=14;" parent="NinnnEc7J0KADaJxtJI0-80" vertex="1">
          <mxGeometry y="60" width="140" height="30" as="geometry" />
        </mxCell>
        <mxCell id="NinnnEc7J0KADaJxtJI0-83" value="DONGIA" style="text;strokeColor=none;fillColor=none;align=left;verticalAlign=middle;spacingLeft=4;spacingRight=4;overflow=hidden;points=[[0,0.5],[1,0.5]];portConstraint=eastwest;rotatable=0;whiteSpace=wrap;html=1;fontSize=14;" parent="NinnnEc7J0KADaJxtJI0-80" vertex="1">
          <mxGeometry y="90" width="140" height="30" as="geometry" />
        </mxCell>
        <mxCell id="NinnnEc7J0KADaJxtJI0-84" value="" style="fontSize=14;html=1;endArrow=ERoneToMany;startArrow=ERmandOne;rounded=0;startSize=8;endSize=8;entryX=-0.01;entryY=0.826;entryDx=0;entryDy=0;startFill=0;endFill=0;exitX=0.75;exitY=0;exitDx=0;exitDy=0;entryPerimeter=0;" parent="1" source="NinnnEc7J0KADaJxtJI0-80" target="NinnnEc7J0KADaJxtJI0-63" edge="1">
          <mxGeometry width="100" height="100" relative="1" as="geometry">
            <mxPoint x="631" y="499" as="sourcePoint" />
            <mxPoint x="540" y="205" as="targetPoint" />
          </mxGeometry>
        </mxCell>
        <mxCell id="NinnnEc7J0KADaJxtJI0-85" value="" style="fontSize=14;html=1;endArrow=ERoneToMany;startArrow=ERoneToMany;rounded=0;startSize=8;endSize=8;entryX=0.5;entryY=1;entryDx=0;entryDy=0;startFill=0;endFill=0;exitX=0.5;exitY=0;exitDx=0;exitDy=0;" parent="1" source="NinnnEc7J0KADaJxtJI0-66" target="NinnnEc7J0KADaJxtJI0-44" edge="1">
          <mxGeometry width="100" height="100" relative="1" as="geometry">
            <mxPoint x="390" y="565" as="sourcePoint" />
            <mxPoint x="299" y="622" as="targetPoint" />
          </mxGeometry>
        </mxCell>
        <mxCell id="NinnnEc7J0KADaJxtJI0-86" value="" style="endArrow=none;dashed=1;html=1;rounded=0;entryX=0;entryY=0.25;entryDx=0;entryDy=0;" parent="1" target="NinnnEc7J0KADaJxtJI0-78" edge="1">
          <mxGeometry width="50" height="50" relative="1" as="geometry">
            <mxPoint x="460" y="670" as="sourcePoint" />
            <mxPoint x="490" y="550" as="targetPoint" />
          </mxGeometry>
        </mxCell>
        <mxCell id="NinnnEc7J0KADaJxtJI0-73" value="" style="fontSize=14;html=1;endArrow=ERoneToMany;startArrow=ERmandOne;rounded=0;startSize=8;endSize=8;entryX=0.5;entryY=0;entryDx=0;entryDy=0;startFill=0;endFill=0;exitX=0.52;exitY=1.056;exitDx=0;exitDy=0;exitPerimeter=0;" parent="1" source="NinnnEc7J0KADaJxtJI0-63" target="NinnnEc7J0KADaJxtJI0-44" edge="1">
          <mxGeometry width="100" height="100" relative="1" as="geometry">
            <mxPoint x="390" y="773" as="sourcePoint" />
            <mxPoint x="229" y="771" as="targetPoint" />
          </mxGeometry>
        </mxCell>
        <mxCell id="rzeHbOEwu_-gsVQrY9uA-1" value="" style="fontSize=14;html=1;endArrow=ERoneToMany;startArrow=ERmandOne;rounded=0;startSize=8;endSize=8;entryX=1;entryY=0;entryDx=0;entryDy=0;startFill=0;endFill=0;exitX=0;exitY=0.5;exitDx=0;exitDy=0;" parent="1" source="NinnnEc7J0KADaJxtJI0-71" target="NinnnEc7J0KADaJxtJI0-44" edge="1">
          <mxGeometry width="100" height="100" relative="1" as="geometry">
            <mxPoint x="473" y="322" as="sourcePoint" />
            <mxPoint x="480" y="480" as="targetPoint" />
          </mxGeometry>
        </mxCell>
        <mxCell id="rzeHbOEwu_-gsVQrY9uA-2" value="" style="fontSize=14;html=1;endArrow=ERoneToMany;startArrow=ERoneToMany;rounded=0;startSize=8;endSize=8;entryX=0;entryY=0.75;entryDx=0;entryDy=0;startFill=0;endFill=0;exitX=1;exitY=0.5;exitDx=0;exitDy=0;" parent="1" source="NinnnEc7J0KADaJxtJI0-48" target="NinnnEc7J0KADaJxtJI0-44" edge="1">
          <mxGeometry width="100" height="100" relative="1" as="geometry">
            <mxPoint x="295" y="360" as="sourcePoint" />
            <mxPoint x="399" y="315" as="targetPoint" />
          </mxGeometry>
        </mxCell>
      </root>
    </mxGraphModel>
  </diagram>
  <diagram id="-V2BBd2TV2LEyPwhN2Qz" name="1a">
    <mxGraphModel dx="993" dy="-392" grid="1" gridSize="10" guides="1" tooltips="1" connect="1" arrows="1" fold="1" page="1" pageScale="1" pageWidth="850" pageHeight="1100" math="0" shadow="0">
      <root>
        <mxCell id="0" />
        <mxCell id="1" parent="0" />
        <mxCell id="RrQlkDcYMKj6BXESaJ7J-1" value="&lt;b style=&quot;border-color: var(--border-color);&quot;&gt;Dim_&lt;/b&gt;&lt;b style=&quot;font-size: 14px;&quot;&gt;ThoiGian&lt;/b&gt;" style="swimlane;fontStyle=0;childLayout=stackLayout;horizontal=1;startSize=30;horizontalStack=0;resizeParent=1;resizeParentMax=0;resizeLast=0;collapsible=1;marginBottom=0;whiteSpace=wrap;html=1;fontSize=14;" parent="1" vertex="1">
          <mxGeometry x="631" y="1370" width="140" height="150" as="geometry" />
        </mxCell>
        <mxCell id="RrQlkDcYMKj6BXESaJ7J-2" value="&lt;u style=&quot;font-size: 14px;&quot;&gt;&lt;b style=&quot;font-size: 14px;&quot;&gt;NamHoc&lt;/b&gt;&lt;/u&gt;" style="text;strokeColor=none;fillColor=none;align=left;verticalAlign=middle;spacingLeft=4;spacingRight=4;overflow=hidden;points=[[0,0.5],[1,0.5]];portConstraint=eastwest;rotatable=0;whiteSpace=wrap;html=1;fontSize=14;" parent="RrQlkDcYMKj6BXESaJ7J-1" vertex="1">
          <mxGeometry y="30" width="140" height="30" as="geometry" />
        </mxCell>
        <mxCell id="RrQlkDcYMKj6BXESaJ7J-3" value="&lt;b style=&quot;font-size: 14px;&quot;&gt;&lt;u style=&quot;font-size: 14px;&quot;&gt;HocKi&lt;/u&gt;&lt;/b&gt;" style="text;strokeColor=none;fillColor=none;align=left;verticalAlign=middle;spacingLeft=4;spacingRight=4;overflow=hidden;points=[[0,0.5],[1,0.5]];portConstraint=eastwest;rotatable=0;whiteSpace=wrap;html=1;fontSize=14;" parent="RrQlkDcYMKj6BXESaJ7J-1" vertex="1">
          <mxGeometry y="60" width="140" height="30" as="geometry" />
        </mxCell>
        <mxCell id="RrQlkDcYMKj6BXESaJ7J-4" value="NgayBatDau" style="text;strokeColor=none;fillColor=none;align=left;verticalAlign=middle;spacingLeft=4;spacingRight=4;overflow=hidden;points=[[0,0.5],[1,0.5]];portConstraint=eastwest;rotatable=0;whiteSpace=wrap;html=1;fontSize=14;" parent="RrQlkDcYMKj6BXESaJ7J-1" vertex="1">
          <mxGeometry y="90" width="140" height="30" as="geometry" />
        </mxCell>
        <mxCell id="RrQlkDcYMKj6BXESaJ7J-5" value="NgayKetThuc" style="text;strokeColor=none;fillColor=none;align=left;verticalAlign=middle;spacingLeft=4;spacingRight=4;overflow=hidden;points=[[0,0.5],[1,0.5]];portConstraint=eastwest;rotatable=0;whiteSpace=wrap;html=1;fontSize=14;" parent="RrQlkDcYMKj6BXESaJ7J-1" vertex="1">
          <mxGeometry y="120" width="140" height="30" as="geometry" />
        </mxCell>
        <mxCell id="RrQlkDcYMKj6BXESaJ7J-6" value="FACT_CAU1A" style="shape=table;startSize=30;container=1;collapsible=1;childLayout=tableLayout;fixedRows=1;rowLines=0;fontStyle=1;align=center;resizeLast=1;html=1;fontSize=14;" parent="1" vertex="1">
          <mxGeometry x="350" y="1290" width="180" height="212" as="geometry" />
        </mxCell>
        <mxCell id="RrQlkDcYMKj6BXESaJ7J-7" value="" style="shape=tableRow;horizontal=0;startSize=0;swimlaneHead=0;swimlaneBody=0;fillColor=none;collapsible=0;dropTarget=0;points=[[0,0.5],[1,0.5]];portConstraint=eastwest;top=0;left=0;right=0;bottom=1;fontSize=14;" parent="RrQlkDcYMKj6BXESaJ7J-6" vertex="1">
          <mxGeometry y="30" width="180" height="30" as="geometry" />
        </mxCell>
        <mxCell id="RrQlkDcYMKj6BXESaJ7J-8" value="FK" style="shape=partialRectangle;connectable=0;fillColor=none;top=0;left=0;bottom=0;right=0;fontStyle=1;overflow=hidden;whiteSpace=wrap;html=1;fontSize=14;" parent="RrQlkDcYMKj6BXESaJ7J-7" vertex="1">
          <mxGeometry width="31" height="30" as="geometry">
            <mxRectangle width="31" height="30" as="alternateBounds" />
          </mxGeometry>
        </mxCell>
        <mxCell id="RrQlkDcYMKj6BXESaJ7J-9" value="&lt;b style=&quot;border-color: var(--border-color); font-size: 14px;&quot;&gt;&lt;u style=&quot;border-color: var(--border-color); font-size: 14px;&quot;&gt;TenCT&lt;/u&gt;&lt;/b&gt;" style="shape=partialRectangle;connectable=0;fillColor=none;top=0;left=0;bottom=0;right=0;align=left;spacingLeft=6;fontStyle=5;overflow=hidden;whiteSpace=wrap;html=1;fontSize=14;" parent="RrQlkDcYMKj6BXESaJ7J-7" vertex="1">
          <mxGeometry x="31" width="149" height="30" as="geometry">
            <mxRectangle width="149" height="30" as="alternateBounds" />
          </mxGeometry>
        </mxCell>
        <mxCell id="RrQlkDcYMKj6BXESaJ7J-10" value="" style="shape=tableRow;horizontal=0;startSize=0;swimlaneHead=0;swimlaneBody=0;fillColor=none;collapsible=0;dropTarget=0;points=[[0,0.5],[1,0.5]];portConstraint=eastwest;top=0;left=0;right=0;bottom=1;fontSize=14;" parent="RrQlkDcYMKj6BXESaJ7J-6" vertex="1">
          <mxGeometry y="60" width="180" height="30" as="geometry" />
        </mxCell>
        <mxCell id="RrQlkDcYMKj6BXESaJ7J-11" value="FK" style="shape=partialRectangle;connectable=0;fillColor=none;top=0;left=0;bottom=0;right=0;fontStyle=1;overflow=hidden;whiteSpace=wrap;html=1;fontSize=14;" parent="RrQlkDcYMKj6BXESaJ7J-10" vertex="1">
          <mxGeometry width="31" height="30" as="geometry">
            <mxRectangle width="31" height="30" as="alternateBounds" />
          </mxGeometry>
        </mxCell>
        <mxCell id="RrQlkDcYMKj6BXESaJ7J-12" value="&lt;b style=&quot;border-color: var(--border-color); font-size: 14px;&quot;&gt;&lt;u style=&quot;border-color: var(--border-color); font-size: 14px;&quot;&gt;MaGV&lt;/u&gt;&lt;/b&gt;" style="shape=partialRectangle;connectable=0;fillColor=none;top=0;left=0;bottom=0;right=0;align=left;spacingLeft=6;fontStyle=5;overflow=hidden;whiteSpace=wrap;html=1;fontSize=14;" parent="RrQlkDcYMKj6BXESaJ7J-10" vertex="1">
          <mxGeometry x="31" width="149" height="30" as="geometry">
            <mxRectangle width="149" height="30" as="alternateBounds" />
          </mxGeometry>
        </mxCell>
        <mxCell id="RrQlkDcYMKj6BXESaJ7J-13" value="" style="shape=tableRow;horizontal=0;startSize=0;swimlaneHead=0;swimlaneBody=0;fillColor=none;collapsible=0;dropTarget=0;points=[[0,0.5],[1,0.5]];portConstraint=eastwest;top=0;left=0;right=0;bottom=1;fontSize=14;" parent="RrQlkDcYMKj6BXESaJ7J-6" vertex="1">
          <mxGeometry y="90" width="180" height="30" as="geometry" />
        </mxCell>
        <mxCell id="RrQlkDcYMKj6BXESaJ7J-14" value="FK" style="shape=partialRectangle;connectable=0;fillColor=none;top=0;left=0;bottom=0;right=0;fontStyle=1;overflow=hidden;whiteSpace=wrap;html=1;fontSize=14;" parent="RrQlkDcYMKj6BXESaJ7J-13" vertex="1">
          <mxGeometry width="31" height="30" as="geometry">
            <mxRectangle width="31" height="30" as="alternateBounds" />
          </mxGeometry>
        </mxCell>
        <mxCell id="RrQlkDcYMKj6BXESaJ7J-15" value="&lt;u style=&quot;border-color: var(--border-color); font-size: 14px; font-weight: 400;&quot;&gt;&lt;b style=&quot;border-color: var(--border-color); font-size: 14px;&quot;&gt;NamHoc&lt;/b&gt;&lt;/u&gt;" style="shape=partialRectangle;connectable=0;fillColor=none;top=0;left=0;bottom=0;right=0;align=left;spacingLeft=6;fontStyle=5;overflow=hidden;whiteSpace=wrap;html=1;fontSize=14;" parent="RrQlkDcYMKj6BXESaJ7J-13" vertex="1">
          <mxGeometry x="31" width="149" height="30" as="geometry">
            <mxRectangle width="149" height="30" as="alternateBounds" />
          </mxGeometry>
        </mxCell>
        <mxCell id="RrQlkDcYMKj6BXESaJ7J-16" value="" style="shape=tableRow;horizontal=0;startSize=0;swimlaneHead=0;swimlaneBody=0;fillColor=none;collapsible=0;dropTarget=0;points=[[0,0.5],[1,0.5]];portConstraint=eastwest;top=0;left=0;right=0;bottom=1;fontSize=14;" parent="RrQlkDcYMKj6BXESaJ7J-6" vertex="1">
          <mxGeometry y="120" width="180" height="30" as="geometry" />
        </mxCell>
        <mxCell id="RrQlkDcYMKj6BXESaJ7J-17" value="FK" style="shape=partialRectangle;connectable=0;fillColor=none;top=0;left=0;bottom=0;right=0;fontStyle=1;overflow=hidden;whiteSpace=wrap;html=1;fontSize=14;" parent="RrQlkDcYMKj6BXESaJ7J-16" vertex="1">
          <mxGeometry width="31" height="30" as="geometry">
            <mxRectangle width="31" height="30" as="alternateBounds" />
          </mxGeometry>
        </mxCell>
        <mxCell id="RrQlkDcYMKj6BXESaJ7J-18" value="&lt;b style=&quot;border-color: var(--border-color); font-size: 14px;&quot;&gt;&lt;u style=&quot;border-color: var(--border-color); font-size: 14px;&quot;&gt;HocKi&lt;/u&gt;&lt;/b&gt;" style="shape=partialRectangle;connectable=0;fillColor=none;top=0;left=0;bottom=0;right=0;align=left;spacingLeft=6;fontStyle=5;overflow=hidden;whiteSpace=wrap;html=1;fontSize=14;" parent="RrQlkDcYMKj6BXESaJ7J-16" vertex="1">
          <mxGeometry x="31" width="149" height="30" as="geometry">
            <mxRectangle width="149" height="30" as="alternateBounds" />
          </mxGeometry>
        </mxCell>
        <mxCell id="RrQlkDcYMKj6BXESaJ7J-19" value="" style="shape=tableRow;horizontal=0;startSize=0;swimlaneHead=0;swimlaneBody=0;fillColor=none;collapsible=0;dropTarget=0;points=[[0,0.5],[1,0.5]];portConstraint=eastwest;top=0;left=0;right=0;bottom=1;fontSize=14;" parent="RrQlkDcYMKj6BXESaJ7J-6" vertex="1">
          <mxGeometry y="150" width="180" height="30" as="geometry" />
        </mxCell>
        <mxCell id="RrQlkDcYMKj6BXESaJ7J-20" value="FK" style="shape=partialRectangle;connectable=0;fillColor=none;top=0;left=0;bottom=0;right=0;fontStyle=1;overflow=hidden;whiteSpace=wrap;html=1;fontSize=14;" parent="RrQlkDcYMKj6BXESaJ7J-19" vertex="1">
          <mxGeometry width="31" height="30" as="geometry">
            <mxRectangle width="31" height="30" as="alternateBounds" />
          </mxGeometry>
        </mxCell>
        <mxCell id="RrQlkDcYMKj6BXESaJ7J-21" value="&lt;b style=&quot;border-color: var(--border-color); font-size: 14px;&quot;&gt;&lt;u style=&quot;border-color: var(--border-color); font-size: 14px;&quot;&gt;MaLop&lt;/u&gt;&lt;/b&gt;" style="shape=partialRectangle;connectable=0;fillColor=none;top=0;left=0;bottom=0;right=0;align=left;spacingLeft=6;fontStyle=5;overflow=hidden;whiteSpace=wrap;html=1;fontSize=14;" parent="RrQlkDcYMKj6BXESaJ7J-19" vertex="1">
          <mxGeometry x="31" width="149" height="30" as="geometry">
            <mxRectangle width="149" height="30" as="alternateBounds" />
          </mxGeometry>
        </mxCell>
        <mxCell id="RrQlkDcYMKj6BXESaJ7J-22" value="&lt;font style=&quot;font-size: 14px;&quot;&gt;SoLuongGV&lt;/font&gt;" style="text;html=1;align=center;verticalAlign=middle;resizable=0;points=[];autosize=1;strokeColor=none;fillColor=none;" parent="1" vertex="1">
          <mxGeometry x="389" y="1472" width="100" height="30" as="geometry" />
        </mxCell>
        <mxCell id="RrQlkDcYMKj6BXESaJ7J-23" value="&lt;b style=&quot;border-color: var(--border-color);&quot;&gt;Dim_&lt;/b&gt;&lt;b style=&quot;font-size: 14px;&quot;&gt;ChuongTrinh&lt;/b&gt;" style="swimlane;fontStyle=0;childLayout=stackLayout;horizontal=1;startSize=30;horizontalStack=0;resizeParent=1;resizeParentMax=0;resizeLast=0;collapsible=1;marginBottom=0;whiteSpace=wrap;html=1;fontSize=14;" parent="1" vertex="1">
          <mxGeometry x="100" y="1230" width="140" height="60" as="geometry" />
        </mxCell>
        <mxCell id="RrQlkDcYMKj6BXESaJ7J-24" value="&lt;u style=&quot;font-size: 14px;&quot;&gt;&lt;b style=&quot;font-size: 14px;&quot;&gt;TenCT&lt;/b&gt;&lt;/u&gt;" style="text;strokeColor=none;fillColor=none;align=left;verticalAlign=middle;spacingLeft=4;spacingRight=4;overflow=hidden;points=[[0,0.5],[1,0.5]];portConstraint=eastwest;rotatable=0;whiteSpace=wrap;html=1;fontSize=14;" parent="RrQlkDcYMKj6BXESaJ7J-23" vertex="1">
          <mxGeometry y="30" width="140" height="30" as="geometry" />
        </mxCell>
        <mxCell id="RrQlkDcYMKj6BXESaJ7J-25" value="&lt;b style=&quot;border-color: var(--border-color);&quot;&gt;Dim_&lt;/b&gt;&lt;b style=&quot;font-size: 14px;&quot;&gt;Lop&lt;/b&gt;" style="swimlane;fontStyle=0;childLayout=stackLayout;horizontal=1;startSize=30;horizontalStack=0;resizeParent=1;resizeParentMax=0;resizeLast=0;collapsible=1;marginBottom=0;whiteSpace=wrap;html=1;fontSize=14;" parent="1" vertex="1">
          <mxGeometry x="100" y="1430" width="140" height="180" as="geometry" />
        </mxCell>
        <mxCell id="RrQlkDcYMKj6BXESaJ7J-26" value="&lt;b style=&quot;font-size: 14px;&quot;&gt;&lt;u style=&quot;font-size: 14px;&quot;&gt;MaLop&lt;/u&gt;&lt;/b&gt;" style="text;strokeColor=none;fillColor=none;align=left;verticalAlign=middle;spacingLeft=4;spacingRight=4;overflow=hidden;points=[[0,0.5],[1,0.5]];portConstraint=eastwest;rotatable=0;whiteSpace=wrap;html=1;fontSize=14;" parent="RrQlkDcYMKj6BXESaJ7J-25" vertex="1">
          <mxGeometry y="30" width="140" height="30" as="geometry" />
        </mxCell>
        <mxCell id="RrQlkDcYMKj6BXESaJ7J-27" value="TenLop" style="text;strokeColor=none;fillColor=none;align=left;verticalAlign=middle;spacingLeft=4;spacingRight=4;overflow=hidden;points=[[0,0.5],[1,0.5]];portConstraint=eastwest;rotatable=0;whiteSpace=wrap;html=1;fontSize=14;" parent="RrQlkDcYMKj6BXESaJ7J-25" vertex="1">
          <mxGeometry y="60" width="140" height="30" as="geometry" />
        </mxCell>
        <mxCell id="RrQlkDcYMKj6BXESaJ7J-28" value="SoTietLT" style="text;strokeColor=none;fillColor=none;align=left;verticalAlign=middle;spacingLeft=4;spacingRight=4;overflow=hidden;points=[[0,0.5],[1,0.5]];portConstraint=eastwest;rotatable=0;whiteSpace=wrap;html=1;fontSize=14;" parent="RrQlkDcYMKj6BXESaJ7J-25" vertex="1">
          <mxGeometry y="90" width="140" height="30" as="geometry" />
        </mxCell>
        <mxCell id="RrQlkDcYMKj6BXESaJ7J-29" value="SoTietTH" style="text;strokeColor=none;fillColor=none;align=left;verticalAlign=middle;spacingLeft=4;spacingRight=4;overflow=hidden;points=[[0,0.5],[1,0.5]];portConstraint=eastwest;rotatable=0;whiteSpace=wrap;html=1;fontSize=14;" parent="RrQlkDcYMKj6BXESaJ7J-25" vertex="1">
          <mxGeometry y="120" width="140" height="30" as="geometry" />
        </mxCell>
        <mxCell id="RrQlkDcYMKj6BXESaJ7J-30" value="SoTietTG" style="text;strokeColor=none;fillColor=none;align=left;verticalAlign=middle;spacingLeft=4;spacingRight=4;overflow=hidden;points=[[0,0.5],[1,0.5]];portConstraint=eastwest;rotatable=0;whiteSpace=wrap;html=1;fontSize=14;" parent="RrQlkDcYMKj6BXESaJ7J-25" vertex="1">
          <mxGeometry y="150" width="140" height="30" as="geometry" />
        </mxCell>
        <mxCell id="RrQlkDcYMKj6BXESaJ7J-31" value="" style="endArrow=none;html=1;rounded=0;strokeColor=none;fontSize=14;" parent="1" edge="1">
          <mxGeometry relative="1" as="geometry">
            <mxPoint x="110" y="1570" as="sourcePoint" />
            <mxPoint x="270" y="1570" as="targetPoint" />
          </mxGeometry>
        </mxCell>
        <mxCell id="RrQlkDcYMKj6BXESaJ7J-32" value="" style="fontSize=14;html=1;endArrow=ERzeroToMany;startArrow=ERmandOne;rounded=0;startSize=8;endSize=8;endFill=0;startFill=0;exitX=1;exitY=0.5;exitDx=0;exitDy=0;entryX=0;entryY=0.5;entryDx=0;entryDy=0;" parent="1" source="RrQlkDcYMKj6BXESaJ7J-28" target="RrQlkDcYMKj6BXESaJ7J-19" edge="1">
          <mxGeometry width="100" height="100" relative="1" as="geometry">
            <mxPoint x="370" y="1640" as="sourcePoint" />
            <mxPoint x="540" y="1640" as="targetPoint" />
          </mxGeometry>
        </mxCell>
        <mxCell id="RrQlkDcYMKj6BXESaJ7J-33" value="" style="fontSize=14;html=1;endArrow=ERzeroToMany;startArrow=ERmandOne;rounded=0;startSize=8;endSize=8;endFill=0;startFill=0;exitX=1;exitY=0.033;exitDx=0;exitDy=0;entryX=0;entryY=0.5;entryDx=0;entryDy=0;exitPerimeter=0;" parent="1" source="RrQlkDcYMKj6BXESaJ7J-24" target="RrQlkDcYMKj6BXESaJ7J-7" edge="1">
          <mxGeometry width="100" height="100" relative="1" as="geometry">
            <mxPoint x="260" y="1555" as="sourcePoint" />
            <mxPoint x="370" y="1475" as="targetPoint" />
          </mxGeometry>
        </mxCell>
        <mxCell id="RrQlkDcYMKj6BXESaJ7J-34" value="" style="fontSize=14;html=1;endArrow=ERzeroToMany;startArrow=ERmandOne;rounded=0;startSize=8;endSize=8;endFill=0;startFill=0;exitX=-0.007;exitY=-0.133;exitDx=0;exitDy=0;entryX=1;entryY=0.5;entryDx=0;entryDy=0;exitPerimeter=0;" parent="1" source="RrQlkDcYMKj6BXESaJ7J-37" target="RrQlkDcYMKj6BXESaJ7J-10" edge="1">
          <mxGeometry width="100" height="100" relative="1" as="geometry">
            <mxPoint x="270" y="1565" as="sourcePoint" />
            <mxPoint x="380" y="1485" as="targetPoint" />
          </mxGeometry>
        </mxCell>
        <mxCell id="RrQlkDcYMKj6BXESaJ7J-35" value="&lt;b style=&quot;font-size: 14px;&quot;&gt;Dim_GiangVien&lt;/b&gt;" style="swimlane;fontStyle=0;childLayout=stackLayout;horizontal=1;startSize=30;horizontalStack=0;resizeParent=1;resizeParentMax=0;resizeLast=0;collapsible=1;marginBottom=0;whiteSpace=wrap;html=1;fontSize=14;" parent="1" vertex="1">
          <mxGeometry x="631" y="1190" width="140" height="150" as="geometry" />
        </mxCell>
        <mxCell id="RrQlkDcYMKj6BXESaJ7J-36" value="&lt;b style=&quot;font-size: 14px;&quot;&gt;&lt;u style=&quot;font-size: 14px;&quot;&gt;MaGV&lt;/u&gt;&lt;/b&gt;" style="text;strokeColor=none;fillColor=none;align=left;verticalAlign=middle;spacingLeft=4;spacingRight=4;overflow=hidden;points=[[0,0.5],[1,0.5]];portConstraint=eastwest;rotatable=0;whiteSpace=wrap;html=1;fontSize=14;" parent="RrQlkDcYMKj6BXESaJ7J-35" vertex="1">
          <mxGeometry y="30" width="140" height="30" as="geometry" />
        </mxCell>
        <mxCell id="RrQlkDcYMKj6BXESaJ7J-37" value="TenGV" style="text;strokeColor=none;fillColor=none;align=left;verticalAlign=middle;spacingLeft=4;spacingRight=4;overflow=hidden;points=[[0,0.5],[1,0.5]];portConstraint=eastwest;rotatable=0;whiteSpace=wrap;html=1;fontSize=14;" parent="RrQlkDcYMKj6BXESaJ7J-35" vertex="1">
          <mxGeometry y="60" width="140" height="30" as="geometry" />
        </mxCell>
        <mxCell id="RrQlkDcYMKj6BXESaJ7J-38" value="Email" style="text;strokeColor=none;fillColor=none;align=left;verticalAlign=middle;spacingLeft=4;spacingRight=4;overflow=hidden;points=[[0,0.5],[1,0.5]];portConstraint=eastwest;rotatable=0;whiteSpace=wrap;html=1;fontSize=14;" parent="RrQlkDcYMKj6BXESaJ7J-35" vertex="1">
          <mxGeometry y="90" width="140" height="30" as="geometry" />
        </mxCell>
        <mxCell id="RrQlkDcYMKj6BXESaJ7J-39" value="Sodienthoai" style="text;strokeColor=none;fillColor=none;align=left;verticalAlign=middle;spacingLeft=4;spacingRight=4;overflow=hidden;points=[[0,0.5],[1,0.5]];portConstraint=eastwest;rotatable=0;whiteSpace=wrap;html=1;fontSize=14;" parent="RrQlkDcYMKj6BXESaJ7J-35" vertex="1">
          <mxGeometry y="120" width="140" height="30" as="geometry" />
        </mxCell>
        <mxCell id="RrQlkDcYMKj6BXESaJ7J-40" value="" style="endArrow=none;html=1;rounded=0;strokeColor=none;fontSize=14;" parent="1" edge="1">
          <mxGeometry relative="1" as="geometry">
            <mxPoint x="120" y="1580" as="sourcePoint" />
            <mxPoint x="280" y="1580" as="targetPoint" />
          </mxGeometry>
        </mxCell>
      </root>
    </mxGraphModel>
  </diagram>
  <diagram id="MkDH7ky1yO98rJSEUqEY" name="1b">
    <mxGraphModel grid="1" page="1" gridSize="10" guides="1" tooltips="1" connect="1" arrows="1" fold="1" pageScale="1" pageWidth="827" pageHeight="1169" math="0" shadow="0">
      <root>
        <mxCell id="0" />
        <mxCell id="1" parent="0" />
        <mxCell id="fMEcnpSyOCONif91HRDe-8" value="" style="rounded=0;whiteSpace=wrap;html=1;" vertex="1" parent="1">
          <mxGeometry x="200" y="1620" width="200" height="80" as="geometry" />
        </mxCell>
        <mxCell id="fMEcnpSyOCONif91HRDe-7" value="" style="rounded=0;whiteSpace=wrap;html=1;" vertex="1" parent="1">
          <mxGeometry x="210" y="1630" width="180" height="60" as="geometry" />
        </mxCell>
        <mxCell id="RndgJWnhztmSDEvUbOU--1" value="&lt;b style=&quot;border-color: var(--border-color);&quot;&gt;Dim_DonGia&lt;/b&gt;" style="swimlane;fontStyle=0;childLayout=stackLayout;horizontal=1;startSize=30;horizontalStack=0;resizeParent=1;resizeParentMax=0;resizeLast=0;collapsible=1;marginBottom=0;whiteSpace=wrap;html=1;fontSize=14;" vertex="1" parent="1">
          <mxGeometry x="611" y="372" width="140" height="90" as="geometry" />
        </mxCell>
        <mxCell id="RndgJWnhztmSDEvUbOU--2" value="LoaiMH" style="text;strokeColor=none;fillColor=none;align=left;verticalAlign=middle;spacingLeft=4;spacingRight=4;overflow=hidden;points=[[0,0.5],[1,0.5]];portConstraint=eastwest;rotatable=0;whiteSpace=wrap;html=1;fontSize=14;" vertex="1" parent="RndgJWnhztmSDEvUbOU--1">
          <mxGeometry y="30" width="140" height="30" as="geometry" />
        </mxCell>
        <mxCell id="RndgJWnhztmSDEvUbOU--3" value="DonGia" style="text;strokeColor=none;fillColor=none;align=left;verticalAlign=middle;spacingLeft=4;spacingRight=4;overflow=hidden;points=[[0,0.5],[1,0.5]];portConstraint=eastwest;rotatable=0;whiteSpace=wrap;html=1;fontSize=14;" vertex="1" parent="RndgJWnhztmSDEvUbOU--1">
          <mxGeometry y="60" width="140" height="30" as="geometry" />
        </mxCell>
        <mxCell id="RndgJWnhztmSDEvUbOU--4" value="FACT_CAU1b" style="shape=table;startSize=30;container=1;collapsible=1;childLayout=tableLayout;fixedRows=1;rowLines=0;fontStyle=1;align=center;resizeLast=1;html=1;fontSize=14;" vertex="1" parent="1">
          <mxGeometry x="330" y="220" width="180" height="272" as="geometry" />
        </mxCell>
        <mxCell id="RndgJWnhztmSDEvUbOU--5" value="" style="shape=tableRow;horizontal=0;startSize=0;swimlaneHead=0;swimlaneBody=0;fillColor=none;collapsible=0;dropTarget=0;points=[[0,0.5],[1,0.5]];portConstraint=eastwest;top=0;left=0;right=0;bottom=1;fontSize=14;" vertex="1" parent="RndgJWnhztmSDEvUbOU--4">
          <mxGeometry y="30" width="180" height="30" as="geometry" />
        </mxCell>
        <mxCell id="RndgJWnhztmSDEvUbOU--6" value="FK" style="shape=partialRectangle;connectable=0;fillColor=none;top=0;left=0;bottom=0;right=0;fontStyle=1;overflow=hidden;whiteSpace=wrap;html=1;fontSize=14;" vertex="1" parent="RndgJWnhztmSDEvUbOU--5">
          <mxGeometry width="31" height="30" as="geometry">
            <mxRectangle width="31" height="30" as="alternateBounds" />
          </mxGeometry>
        </mxCell>
        <mxCell id="RndgJWnhztmSDEvUbOU--7" value="&lt;b style=&quot;border-color: var(--border-color); font-size: 14px;&quot;&gt;&lt;u style=&quot;border-color: var(--border-color); font-size: 14px;&quot;&gt;TenCT&lt;/u&gt;&lt;/b&gt;" style="shape=partialRectangle;connectable=0;fillColor=none;top=0;left=0;bottom=0;right=0;align=left;spacingLeft=6;fontStyle=5;overflow=hidden;whiteSpace=wrap;html=1;fontSize=14;" vertex="1" parent="RndgJWnhztmSDEvUbOU--5">
          <mxGeometry x="31" width="149" height="30" as="geometry">
            <mxRectangle width="149" height="30" as="alternateBounds" />
          </mxGeometry>
        </mxCell>
        <mxCell id="RndgJWnhztmSDEvUbOU--8" value="" style="shape=tableRow;horizontal=0;startSize=0;swimlaneHead=0;swimlaneBody=0;fillColor=none;collapsible=0;dropTarget=0;points=[[0,0.5],[1,0.5]];portConstraint=eastwest;top=0;left=0;right=0;bottom=1;fontSize=14;" vertex="1" parent="RndgJWnhztmSDEvUbOU--4">
          <mxGeometry y="60" width="180" height="30" as="geometry" />
        </mxCell>
        <mxCell id="RndgJWnhztmSDEvUbOU--9" value="FK" style="shape=partialRectangle;connectable=0;fillColor=none;top=0;left=0;bottom=0;right=0;fontStyle=1;overflow=hidden;whiteSpace=wrap;html=1;fontSize=14;" vertex="1" parent="RndgJWnhztmSDEvUbOU--8">
          <mxGeometry width="31" height="30" as="geometry">
            <mxRectangle width="31" height="30" as="alternateBounds" />
          </mxGeometry>
        </mxCell>
        <mxCell id="RndgJWnhztmSDEvUbOU--10" value="&lt;b style=&quot;border-color: var(--border-color); font-size: 14px;&quot;&gt;&lt;u style=&quot;border-color: var(--border-color); font-size: 14px;&quot;&gt;MaGV&lt;/u&gt;&lt;/b&gt;" style="shape=partialRectangle;connectable=0;fillColor=none;top=0;left=0;bottom=0;right=0;align=left;spacingLeft=6;fontStyle=5;overflow=hidden;whiteSpace=wrap;html=1;fontSize=14;" vertex="1" parent="RndgJWnhztmSDEvUbOU--8">
          <mxGeometry x="31" width="149" height="30" as="geometry">
            <mxRectangle width="149" height="30" as="alternateBounds" />
          </mxGeometry>
        </mxCell>
        <mxCell id="RndgJWnhztmSDEvUbOU--11" value="" style="shape=tableRow;horizontal=0;startSize=0;swimlaneHead=0;swimlaneBody=0;fillColor=none;collapsible=0;dropTarget=0;points=[[0,0.5],[1,0.5]];portConstraint=eastwest;top=0;left=0;right=0;bottom=1;fontSize=14;" vertex="1" parent="RndgJWnhztmSDEvUbOU--4">
          <mxGeometry y="90" width="180" height="30" as="geometry" />
        </mxCell>
        <mxCell id="RndgJWnhztmSDEvUbOU--12" value="FK" style="shape=partialRectangle;connectable=0;fillColor=none;top=0;left=0;bottom=0;right=0;fontStyle=1;overflow=hidden;whiteSpace=wrap;html=1;fontSize=14;" vertex="1" parent="RndgJWnhztmSDEvUbOU--11">
          <mxGeometry width="31" height="30" as="geometry">
            <mxRectangle width="31" height="30" as="alternateBounds" />
          </mxGeometry>
        </mxCell>
        <mxCell id="RndgJWnhztmSDEvUbOU--13" value="&lt;u style=&quot;border-color: var(--border-color); font-size: 14px; font-weight: 400;&quot;&gt;&lt;b style=&quot;border-color: var(--border-color); font-size: 14px;&quot;&gt;NamHoc&lt;/b&gt;&lt;/u&gt;" style="shape=partialRectangle;connectable=0;fillColor=none;top=0;left=0;bottom=0;right=0;align=left;spacingLeft=6;fontStyle=5;overflow=hidden;whiteSpace=wrap;html=1;fontSize=14;" vertex="1" parent="RndgJWnhztmSDEvUbOU--11">
          <mxGeometry x="31" width="149" height="30" as="geometry">
            <mxRectangle width="149" height="30" as="alternateBounds" />
          </mxGeometry>
        </mxCell>
        <mxCell id="RndgJWnhztmSDEvUbOU--14" value="" style="shape=tableRow;horizontal=0;startSize=0;swimlaneHead=0;swimlaneBody=0;fillColor=none;collapsible=0;dropTarget=0;points=[[0,0.5],[1,0.5]];portConstraint=eastwest;top=0;left=0;right=0;bottom=1;fontSize=14;" vertex="1" parent="RndgJWnhztmSDEvUbOU--4">
          <mxGeometry y="120" width="180" height="30" as="geometry" />
        </mxCell>
        <mxCell id="RndgJWnhztmSDEvUbOU--15" value="FK" style="shape=partialRectangle;connectable=0;fillColor=none;top=0;left=0;bottom=0;right=0;fontStyle=1;overflow=hidden;whiteSpace=wrap;html=1;fontSize=14;" vertex="1" parent="RndgJWnhztmSDEvUbOU--14">
          <mxGeometry width="31" height="30" as="geometry">
            <mxRectangle width="31" height="30" as="alternateBounds" />
          </mxGeometry>
        </mxCell>
        <mxCell id="RndgJWnhztmSDEvUbOU--16" value="HocKy" style="shape=partialRectangle;connectable=0;fillColor=none;top=0;left=0;bottom=0;right=0;align=left;spacingLeft=6;fontStyle=5;overflow=hidden;whiteSpace=wrap;html=1;fontSize=14;" vertex="1" parent="RndgJWnhztmSDEvUbOU--14">
          <mxGeometry x="31" width="149" height="30" as="geometry">
            <mxRectangle width="149" height="30" as="alternateBounds" />
          </mxGeometry>
        </mxCell>
        <mxCell id="RndgJWnhztmSDEvUbOU--17" value="" style="shape=tableRow;horizontal=0;startSize=0;swimlaneHead=0;swimlaneBody=0;fillColor=none;collapsible=0;dropTarget=0;points=[[0,0.5],[1,0.5]];portConstraint=eastwest;top=0;left=0;right=0;bottom=1;fontSize=14;" vertex="1" parent="RndgJWnhztmSDEvUbOU--4">
          <mxGeometry y="150" width="180" height="30" as="geometry" />
        </mxCell>
        <mxCell id="RndgJWnhztmSDEvUbOU--18" value="FK" style="shape=partialRectangle;connectable=0;fillColor=none;top=0;left=0;bottom=0;right=0;fontStyle=1;overflow=hidden;whiteSpace=wrap;html=1;fontSize=14;" vertex="1" parent="RndgJWnhztmSDEvUbOU--17">
          <mxGeometry width="31" height="30" as="geometry">
            <mxRectangle width="31" height="30" as="alternateBounds" />
          </mxGeometry>
        </mxCell>
        <mxCell id="RndgJWnhztmSDEvUbOU--19" value="&lt;b style=&quot;border-color: var(--border-color); font-size: 14px;&quot;&gt;&lt;u style=&quot;border-color: var(--border-color); font-size: 14px;&quot;&gt;MaLop&lt;/u&gt;&lt;/b&gt;" style="shape=partialRectangle;connectable=0;fillColor=none;top=0;left=0;bottom=0;right=0;align=left;spacingLeft=6;fontStyle=5;overflow=hidden;whiteSpace=wrap;html=1;fontSize=14;" vertex="1" parent="RndgJWnhztmSDEvUbOU--17">
          <mxGeometry x="31" width="149" height="30" as="geometry">
            <mxRectangle width="149" height="30" as="alternateBounds" />
          </mxGeometry>
        </mxCell>
        <mxCell id="RndgJWnhztmSDEvUbOU--20" value="" style="shape=tableRow;horizontal=0;startSize=0;swimlaneHead=0;swimlaneBody=0;fillColor=none;collapsible=0;dropTarget=0;points=[[0,0.5],[1,0.5]];portConstraint=eastwest;top=0;left=0;right=0;bottom=1;fontSize=14;" vertex="1" parent="RndgJWnhztmSDEvUbOU--4">
          <mxGeometry y="180" width="180" height="30" as="geometry" />
        </mxCell>
        <mxCell id="RndgJWnhztmSDEvUbOU--21" value="" style="shape=partialRectangle;connectable=0;fillColor=none;top=0;left=0;bottom=0;right=0;fontStyle=1;overflow=hidden;whiteSpace=wrap;html=1;fontSize=14;" vertex="1" parent="RndgJWnhztmSDEvUbOU--20">
          <mxGeometry width="31" height="30" as="geometry">
            <mxRectangle width="31" height="30" as="alternateBounds" />
          </mxGeometry>
        </mxCell>
        <mxCell id="RndgJWnhztmSDEvUbOU--22" value="&lt;span style=&quot;border-color: var(--border-color); font-size: 14px; font-weight: normal;&quot;&gt;&lt;span style=&quot;border-color: var(--border-color); font-size: 14px;&quot;&gt;LoaiMH&lt;/span&gt;&lt;/span&gt;" style="shape=partialRectangle;connectable=0;fillColor=none;top=0;left=0;bottom=0;right=0;align=left;spacingLeft=6;fontStyle=1;overflow=hidden;whiteSpace=wrap;html=1;fontSize=14;" vertex="1" parent="RndgJWnhztmSDEvUbOU--20">
          <mxGeometry x="31" width="149" height="30" as="geometry">
            <mxRectangle width="149" height="30" as="alternateBounds" />
          </mxGeometry>
        </mxCell>
        <mxCell id="RndgJWnhztmSDEvUbOU--23" value="" style="shape=tableRow;horizontal=0;startSize=0;swimlaneHead=0;swimlaneBody=0;fillColor=none;collapsible=0;dropTarget=0;points=[[0,0.5],[1,0.5]];portConstraint=eastwest;top=0;left=0;right=0;bottom=1;fontSize=14;" vertex="1" parent="RndgJWnhztmSDEvUbOU--4">
          <mxGeometry y="210" width="180" height="30" as="geometry" />
        </mxCell>
        <mxCell id="RndgJWnhztmSDEvUbOU--24" value="" style="shape=partialRectangle;connectable=0;fillColor=none;top=0;left=0;bottom=0;right=0;fontStyle=1;overflow=hidden;whiteSpace=wrap;html=1;fontSize=14;" vertex="1" parent="RndgJWnhztmSDEvUbOU--23">
          <mxGeometry width="31" height="30" as="geometry">
            <mxRectangle width="31" height="30" as="alternateBounds" />
          </mxGeometry>
        </mxCell>
        <mxCell id="RndgJWnhztmSDEvUbOU--25" value="&lt;span style=&quot;border-color: var(--border-color); font-size: 14px; font-weight: normal;&quot;&gt;&lt;span style=&quot;border-color: var(--border-color); font-size: 14px;&quot;&gt;DonGia&lt;/span&gt;&lt;/span&gt;" style="shape=partialRectangle;connectable=0;fillColor=none;top=0;left=0;bottom=0;right=0;align=left;spacingLeft=6;fontStyle=1;overflow=hidden;whiteSpace=wrap;html=1;fontSize=14;" vertex="1" parent="RndgJWnhztmSDEvUbOU--23">
          <mxGeometry x="31" width="149" height="30" as="geometry">
            <mxRectangle width="149" height="30" as="alternateBounds" />
          </mxGeometry>
        </mxCell>
        <mxCell id="RndgJWnhztmSDEvUbOU--26" value="&lt;font style=&quot;font-size: 14px;&quot;&gt;ThuLaoGV&lt;/font&gt;" style="text;html=1;align=center;verticalAlign=middle;resizable=0;points=[];autosize=1;strokeColor=none;fillColor=none;" vertex="1" parent="1">
          <mxGeometry x="359" y="462" width="90" height="30" as="geometry" />
        </mxCell>
        <mxCell id="RndgJWnhztmSDEvUbOU--27" value="&lt;b style=&quot;border-color: var(--border-color);&quot;&gt;Dim_GiangDay&lt;/b&gt;" style="swimlane;fontStyle=0;childLayout=stackLayout;horizontal=1;startSize=30;horizontalStack=0;resizeParent=1;resizeParentMax=0;resizeLast=0;collapsible=1;marginBottom=0;whiteSpace=wrap;html=1;fontSize=14;" vertex="1" parent="1">
          <mxGeometry x="70" y="190" width="140" height="360" as="geometry" />
        </mxCell>
        <mxCell id="RndgJWnhztmSDEvUbOU--28" value="&lt;b style=&quot;font-size: 14px;&quot;&gt;&lt;u style=&quot;font-size: 14px;&quot;&gt;MaCT&lt;/u&gt;&lt;/b&gt;" style="text;strokeColor=none;fillColor=none;align=left;verticalAlign=middle;spacingLeft=4;spacingRight=4;overflow=hidden;points=[[0,0.5],[1,0.5]];portConstraint=eastwest;rotatable=0;whiteSpace=wrap;html=1;fontSize=14;" vertex="1" parent="RndgJWnhztmSDEvUbOU--27">
          <mxGeometry y="30" width="140" height="30" as="geometry" />
        </mxCell>
        <mxCell id="RndgJWnhztmSDEvUbOU--29" value="&lt;b style=&quot;font-size: 14px;&quot;&gt;&lt;u style=&quot;font-size: 14px;&quot;&gt;HocKy&lt;/u&gt;&lt;/b&gt;" style="text;strokeColor=none;fillColor=none;align=left;verticalAlign=middle;spacingLeft=4;spacingRight=4;overflow=hidden;points=[[0,0.5],[1,0.5]];portConstraint=eastwest;rotatable=0;whiteSpace=wrap;html=1;fontSize=14;" vertex="1" parent="RndgJWnhztmSDEvUbOU--27">
          <mxGeometry y="60" width="140" height="30" as="geometry" />
        </mxCell>
        <mxCell id="RndgJWnhztmSDEvUbOU--30" value="&lt;b style=&quot;font-size: 14px;&quot;&gt;&lt;u style=&quot;font-size: 14px;&quot;&gt;NamHoc&lt;/u&gt;&lt;/b&gt;" style="text;strokeColor=none;fillColor=none;align=left;verticalAlign=middle;spacingLeft=4;spacingRight=4;overflow=hidden;points=[[0,0.5],[1,0.5]];portConstraint=eastwest;rotatable=0;whiteSpace=wrap;html=1;fontSize=14;" vertex="1" parent="RndgJWnhztmSDEvUbOU--27">
          <mxGeometry y="90" width="140" height="30" as="geometry" />
        </mxCell>
        <mxCell id="RndgJWnhztmSDEvUbOU--31" value="&lt;b style=&quot;font-size: 14px;&quot;&gt;&lt;u style=&quot;font-size: 14px;&quot;&gt;MaGV&lt;/u&gt;&lt;/b&gt;" style="text;strokeColor=none;fillColor=none;align=left;verticalAlign=middle;spacingLeft=4;spacingRight=4;overflow=hidden;points=[[0,0.5],[1,0.5]];portConstraint=eastwest;rotatable=0;whiteSpace=wrap;html=1;fontSize=14;" vertex="1" parent="RndgJWnhztmSDEvUbOU--27">
          <mxGeometry y="120" width="140" height="30" as="geometry" />
        </mxCell>
        <mxCell id="RndgJWnhztmSDEvUbOU--32" value="MaMH" style="text;strokeColor=none;fillColor=none;align=left;verticalAlign=middle;spacingLeft=4;spacingRight=4;overflow=hidden;points=[[0,0.5],[1,0.5]];portConstraint=eastwest;rotatable=0;whiteSpace=wrap;html=1;fontSize=14;" vertex="1" parent="RndgJWnhztmSDEvUbOU--27">
          <mxGeometry y="150" width="140" height="30" as="geometry" />
        </mxCell>
        <mxCell id="RndgJWnhztmSDEvUbOU--33" value="TenMH" style="text;strokeColor=none;fillColor=none;align=left;verticalAlign=middle;spacingLeft=4;spacingRight=4;overflow=hidden;points=[[0,0.5],[1,0.5]];portConstraint=eastwest;rotatable=0;whiteSpace=wrap;html=1;fontSize=14;" vertex="1" parent="RndgJWnhztmSDEvUbOU--27">
          <mxGeometry y="180" width="140" height="30" as="geometry" />
        </mxCell>
        <mxCell id="RndgJWnhztmSDEvUbOU--34" value="MaLop" style="text;strokeColor=none;fillColor=none;align=left;verticalAlign=middle;spacingLeft=4;spacingRight=4;overflow=hidden;points=[[0,0.5],[1,0.5]];portConstraint=eastwest;rotatable=0;whiteSpace=wrap;html=1;fontSize=14;" vertex="1" parent="RndgJWnhztmSDEvUbOU--27">
          <mxGeometry y="210" width="140" height="30" as="geometry" />
        </mxCell>
        <mxCell id="RndgJWnhztmSDEvUbOU--35" value="VaiTro" style="text;strokeColor=none;fillColor=none;align=left;verticalAlign=middle;spacingLeft=4;spacingRight=4;overflow=hidden;points=[[0,0.5],[1,0.5]];portConstraint=eastwest;rotatable=0;whiteSpace=wrap;html=1;fontSize=14;" vertex="1" parent="RndgJWnhztmSDEvUbOU--27">
          <mxGeometry y="240" width="140" height="30" as="geometry" />
        </mxCell>
        <mxCell id="RndgJWnhztmSDEvUbOU--36" value="SoTietDay" style="text;strokeColor=none;fillColor=none;align=left;verticalAlign=middle;spacingLeft=4;spacingRight=4;overflow=hidden;points=[[0,0.5],[1,0.5]];portConstraint=eastwest;rotatable=0;whiteSpace=wrap;html=1;fontSize=14;" vertex="1" parent="RndgJWnhztmSDEvUbOU--27">
          <mxGeometry y="270" width="140" height="30" as="geometry" />
        </mxCell>
        <mxCell id="RndgJWnhztmSDEvUbOU--37" value="HocVi" style="text;strokeColor=none;fillColor=none;align=left;verticalAlign=middle;spacingLeft=4;spacingRight=4;overflow=hidden;points=[[0,0.5],[1,0.5]];portConstraint=eastwest;rotatable=0;whiteSpace=wrap;html=1;fontSize=14;" vertex="1" parent="RndgJWnhztmSDEvUbOU--27">
          <mxGeometry y="300" width="140" height="30" as="geometry" />
        </mxCell>
        <mxCell id="RndgJWnhztmSDEvUbOU--38" value="LoaiMH" style="text;strokeColor=none;fillColor=none;align=left;verticalAlign=middle;spacingLeft=4;spacingRight=4;overflow=hidden;points=[[0,0.5],[1,0.5]];portConstraint=eastwest;rotatable=0;whiteSpace=wrap;html=1;fontSize=14;" vertex="1" parent="RndgJWnhztmSDEvUbOU--27">
          <mxGeometry y="330" width="140" height="30" as="geometry" />
        </mxCell>
        <mxCell id="RndgJWnhztmSDEvUbOU--42" value="&lt;b style=&quot;font-size: 14px;&quot;&gt;Dim_GiangVien&lt;/b&gt;" style="swimlane;fontStyle=0;childLayout=stackLayout;horizontal=1;startSize=30;horizontalStack=0;resizeParent=1;resizeParentMax=0;resizeLast=0;collapsible=1;marginBottom=0;whiteSpace=wrap;html=1;fontSize=14;" vertex="1" parent="1">
          <mxGeometry x="611" y="120" width="140" height="240" as="geometry" />
        </mxCell>
        <mxCell id="RndgJWnhztmSDEvUbOU--43" value="&lt;b style=&quot;font-size: 14px;&quot;&gt;&lt;u style=&quot;font-size: 14px;&quot;&gt;MaGV&lt;/u&gt;&lt;/b&gt;" style="text;strokeColor=none;fillColor=none;align=left;verticalAlign=middle;spacingLeft=4;spacingRight=4;overflow=hidden;points=[[0,0.5],[1,0.5]];portConstraint=eastwest;rotatable=0;whiteSpace=wrap;html=1;fontSize=14;" vertex="1" parent="RndgJWnhztmSDEvUbOU--42">
          <mxGeometry y="30" width="140" height="30" as="geometry" />
        </mxCell>
        <mxCell id="RndgJWnhztmSDEvUbOU--44" value="HoTen" style="text;strokeColor=none;fillColor=none;align=left;verticalAlign=middle;spacingLeft=4;spacingRight=4;overflow=hidden;points=[[0,0.5],[1,0.5]];portConstraint=eastwest;rotatable=0;whiteSpace=wrap;html=1;fontSize=14;" vertex="1" parent="RndgJWnhztmSDEvUbOU--42">
          <mxGeometry y="60" width="140" height="30" as="geometry" />
        </mxCell>
        <mxCell id="RndgJWnhztmSDEvUbOU--45" value="NgaySinh" style="text;strokeColor=none;fillColor=none;align=left;verticalAlign=middle;spacingLeft=4;spacingRight=4;overflow=hidden;points=[[0,0.5],[1,0.5]];portConstraint=eastwest;rotatable=0;whiteSpace=wrap;html=1;fontSize=14;" vertex="1" parent="RndgJWnhztmSDEvUbOU--42">
          <mxGeometry y="90" width="140" height="30" as="geometry" />
        </mxCell>
        <mxCell id="RndgJWnhztmSDEvUbOU--46" value="DiaChi" style="text;strokeColor=none;fillColor=none;align=left;verticalAlign=middle;spacingLeft=4;spacingRight=4;overflow=hidden;points=[[0,0.5],[1,0.5]];portConstraint=eastwest;rotatable=0;whiteSpace=wrap;html=1;fontSize=14;" vertex="1" parent="RndgJWnhztmSDEvUbOU--42">
          <mxGeometry y="120" width="140" height="30" as="geometry" />
        </mxCell>
        <mxCell id="RndgJWnhztmSDEvUbOU--47" value="DienThoai" style="text;strokeColor=none;fillColor=none;align=left;verticalAlign=middle;spacingLeft=4;spacingRight=4;overflow=hidden;points=[[0,0.5],[1,0.5]];portConstraint=eastwest;rotatable=0;whiteSpace=wrap;html=1;fontSize=14;" vertex="1" parent="RndgJWnhztmSDEvUbOU--42">
          <mxGeometry y="150" width="140" height="30" as="geometry" />
        </mxCell>
        <mxCell id="RndgJWnhztmSDEvUbOU--48" value="Email" style="text;strokeColor=none;fillColor=none;align=left;verticalAlign=middle;spacingLeft=4;spacingRight=4;overflow=hidden;points=[[0,0.5],[1,0.5]];portConstraint=eastwest;rotatable=0;whiteSpace=wrap;html=1;fontSize=14;" vertex="1" parent="RndgJWnhztmSDEvUbOU--42">
          <mxGeometry y="180" width="140" height="30" as="geometry" />
        </mxCell>
        <mxCell id="RndgJWnhztmSDEvUbOU--49" value="LoaiGV" style="text;strokeColor=none;fillColor=none;align=left;verticalAlign=middle;spacingLeft=4;spacingRight=4;overflow=hidden;points=[[0,0.5],[1,0.5]];portConstraint=eastwest;rotatable=0;whiteSpace=wrap;html=1;fontSize=14;" vertex="1" parent="RndgJWnhztmSDEvUbOU--42">
          <mxGeometry y="210" width="140" height="30" as="geometry" />
        </mxCell>
        <mxCell id="RndgJWnhztmSDEvUbOU--50" value="Thù lao dạy của mỗi giảng viên trong mỗi học kỳ, chương trình" style="text;html=1;strokeColor=none;fillColor=none;align=center;verticalAlign=middle;whiteSpace=wrap;rounded=0;fontStyle=1;fontSize=16;" vertex="1" parent="1">
          <mxGeometry x="80" y="60" width="500" height="30" as="geometry" />
        </mxCell>
        <mxCell id="b4cU6S6EvynHO-xERDGS-1" value="HocKy" style="whiteSpace=wrap;html=1;align=center;" vertex="1" parent="1">
          <mxGeometry x="220" y="810" width="100" height="40" as="geometry" />
        </mxCell>
        <mxCell id="b4cU6S6EvynHO-xERDGS-2" value="NamHoc" style="whiteSpace=wrap;html=1;align=center;" vertex="1" parent="1">
          <mxGeometry x="320" y="810" width="100" height="40" as="geometry" />
        </mxCell>
        <mxCell id="b4cU6S6EvynHO-xERDGS-3" value="MaGV" style="whiteSpace=wrap;html=1;align=center;" vertex="1" parent="1">
          <mxGeometry x="420" y="810" width="100" height="40" as="geometry" />
        </mxCell>
        <mxCell id="b4cU6S6EvynHO-xERDGS-4" value="MaMH" style="whiteSpace=wrap;html=1;align=center;" vertex="1" parent="1">
          <mxGeometry x="521" y="810" width="100" height="40" as="geometry" />
        </mxCell>
        <mxCell id="b4cU6S6EvynHO-xERDGS-5" value="TenMH" style="whiteSpace=wrap;html=1;align=center;" vertex="1" parent="1">
          <mxGeometry x="621" y="810" width="100" height="40" as="geometry" />
        </mxCell>
        <mxCell id="b4cU6S6EvynHO-xERDGS-6" value="MaCT" style="whiteSpace=wrap;html=1;align=center;" vertex="1" parent="1">
          <mxGeometry x="130" y="820" width="100" height="40" as="geometry" />
        </mxCell>
        <mxCell id="b4cU6S6EvynHO-xERDGS-7" value="HocKy" style="whiteSpace=wrap;html=1;align=center;" vertex="1" parent="1">
          <mxGeometry x="230" y="820" width="100" height="40" as="geometry" />
        </mxCell>
        <mxCell id="b4cU6S6EvynHO-xERDGS-8" value="NamHoc" style="whiteSpace=wrap;html=1;align=center;" vertex="1" parent="1">
          <mxGeometry x="330" y="820" width="100" height="40" as="geometry" />
        </mxCell>
        <mxCell id="b4cU6S6EvynHO-xERDGS-9" value="MaGV" style="whiteSpace=wrap;html=1;align=center;" vertex="1" parent="1">
          <mxGeometry x="430" y="820" width="100" height="40" as="geometry" />
        </mxCell>
        <mxCell id="b4cU6S6EvynHO-xERDGS-10" value="MaMH" style="whiteSpace=wrap;html=1;align=center;" vertex="1" parent="1">
          <mxGeometry x="531" y="820" width="100" height="40" as="geometry" />
        </mxCell>
        <mxCell id="b4cU6S6EvynHO-xERDGS-11" value="TenMH" style="whiteSpace=wrap;html=1;align=center;" vertex="1" parent="1">
          <mxGeometry x="631" y="820" width="100" height="40" as="geometry" />
        </mxCell>
        <mxCell id="LuaKfp1yWTwl3YN1znLw-1" style="edgeStyle=orthogonalEdgeStyle;rounded=0;orthogonalLoop=1;jettySize=auto;html=1;exitX=1;exitY=0.5;exitDx=0;exitDy=0;entryX=0;entryY=0.5;entryDx=0;entryDy=0;" edge="1" parent="1" source="RndgJWnhztmSDEvUbOU--34" target="RndgJWnhztmSDEvUbOU--5">
          <mxGeometry relative="1" as="geometry" />
        </mxCell>
        <mxCell id="LuaKfp1yWTwl3YN1znLw-2" style="edgeStyle=orthogonalEdgeStyle;rounded=0;orthogonalLoop=1;jettySize=auto;html=1;exitX=0;exitY=0.5;exitDx=0;exitDy=0;entryX=1;entryY=0.5;entryDx=0;entryDy=0;" edge="1" parent="1" source="RndgJWnhztmSDEvUbOU--46" target="RndgJWnhztmSDEvUbOU--5">
          <mxGeometry relative="1" as="geometry" />
        </mxCell>
        <mxCell id="LuaKfp1yWTwl3YN1znLw-3" style="edgeStyle=orthogonalEdgeStyle;rounded=0;orthogonalLoop=1;jettySize=auto;html=1;exitX=0;exitY=0.5;exitDx=0;exitDy=0;entryX=1;entryY=0.5;entryDx=0;entryDy=0;" edge="1" parent="1" source="RndgJWnhztmSDEvUbOU--2" target="RndgJWnhztmSDEvUbOU--8">
          <mxGeometry relative="1" as="geometry" />
        </mxCell>
        <mxCell id="LuaKfp1yWTwl3YN1znLw-4" value="GIANGVIEN (MaGV, HoTen, NgaySinh, DiaChi, DienThoai, Email, LoaiGV)" style="text;whiteSpace=wrap;html=1;" vertex="1" parent="1">
          <mxGeometry x="90" y="990" width="430" height="40" as="geometry" />
        </mxCell>
        <mxCell id="LuaKfp1yWTwl3YN1znLw-9" style="edgeStyle=orthogonalEdgeStyle;rounded=0;orthogonalLoop=1;jettySize=auto;html=1;" edge="1" parent="1" source="LuaKfp1yWTwl3YN1znLw-5" target="LuaKfp1yWTwl3YN1znLw-4">
          <mxGeometry relative="1" as="geometry" />
        </mxCell>
        <mxCell id="LuaKfp1yWTwl3YN1znLw-16" style="edgeStyle=orthogonalEdgeStyle;rounded=0;orthogonalLoop=1;jettySize=auto;html=1;exitX=0.75;exitY=0;exitDx=0;exitDy=0;" edge="1" parent="1" source="LuaKfp1yWTwl3YN1znLw-5" target="LuaKfp1yWTwl3YN1znLw-14">
          <mxGeometry relative="1" as="geometry">
            <Array as="points">
              <mxPoint x="510" y="980" />
              <mxPoint x="180" y="980" />
            </Array>
          </mxGeometry>
        </mxCell>
        <mxCell id="LuaKfp1yWTwl3YN1znLw-17" style="edgeStyle=orthogonalEdgeStyle;rounded=0;orthogonalLoop=1;jettySize=auto;html=1;exitX=1;exitY=0.25;exitDx=0;exitDy=0;" edge="1" parent="1" source="LuaKfp1yWTwl3YN1znLw-5" target="LuaKfp1yWTwl3YN1znLw-15">
          <mxGeometry relative="1" as="geometry">
            <Array as="points">
              <mxPoint x="670" y="1063" />
              <mxPoint x="670" y="970" />
              <mxPoint x="440" y="970" />
            </Array>
          </mxGeometry>
        </mxCell>
        <mxCell id="LuaKfp1yWTwl3YN1znLw-5" value="GIANGDAY (MaCT, HocKy, NamHoc, MaGV, MaMH, TenMH, MaLop, VaiTro, SoTietDay, HocVi, LoaiMH)" style="text;whiteSpace=wrap;" vertex="1" parent="1">
          <mxGeometry x="90" y="1050" width="560" height="50" as="geometry" />
        </mxCell>
        <mxCell id="LuaKfp1yWTwl3YN1znLw-10" style="edgeStyle=orthogonalEdgeStyle;rounded=0;orthogonalLoop=1;jettySize=auto;html=1;exitX=0;exitY=0.5;exitDx=0;exitDy=0;entryX=0;entryY=0.5;entryDx=0;entryDy=0;" edge="1" parent="1" source="LuaKfp1yWTwl3YN1znLw-6" target="LuaKfp1yWTwl3YN1znLw-4">
          <mxGeometry relative="1" as="geometry" />
        </mxCell>
        <mxCell id="LuaKfp1yWTwl3YN1znLw-6" value="CANBO (MaCB, Ho, Ten, NgaySinh, DiaChi, DienThoai, ThinhGiang, HocVi, DonViCongTac, STK, NganHang, MST, CMND)" style="text;whiteSpace=wrap;" vertex="1" parent="1">
          <mxGeometry x="80" y="1120" width="560" height="50" as="geometry" />
        </mxCell>
        <mxCell id="LuaKfp1yWTwl3YN1znLw-7" value="MONHOC (MaMH, TenMH, SoTCLT, SoTCTH, LoaiMH)" style="text;whiteSpace=wrap;" vertex="1" parent="1">
          <mxGeometry x="80" y="1210" width="330" height="40" as="geometry" />
        </mxCell>
        <mxCell id="LuaKfp1yWTwl3YN1znLw-11" style="edgeStyle=orthogonalEdgeStyle;rounded=0;orthogonalLoop=1;jettySize=auto;html=1;exitX=1;exitY=0.5;exitDx=0;exitDy=0;entryX=0.75;entryY=1;entryDx=0;entryDy=0;" edge="1" parent="1" source="LuaKfp1yWTwl3YN1znLw-8" target="LuaKfp1yWTwl3YN1znLw-7">
          <mxGeometry relative="1" as="geometry" />
        </mxCell>
        <mxCell id="LuaKfp1yWTwl3YN1znLw-8" value="LoaiMH (LoaiMH, DonGia)" style="text;whiteSpace=wrap;" vertex="1" parent="1">
          <mxGeometry x="80" y="1270" width="180" height="40" as="geometry" />
        </mxCell>
        <mxCell id="LuaKfp1yWTwl3YN1znLw-14" value="CHUONGTRINH (MaCT, TenCT)" style="text;html=1;align=center;verticalAlign=middle;resizable=0;points=[];autosize=1;strokeColor=none;fillColor=none;" vertex="1" parent="1">
          <mxGeometry x="80" y="928" width="200" height="30" as="geometry" />
        </mxCell>
        <mxCell id="LuaKfp1yWTwl3YN1znLw-15" value="LOP (MaLop, TenLop, MaCT, MaMH)" style="text;html=1;align=center;verticalAlign=middle;resizable=0;points=[];autosize=1;strokeColor=none;fillColor=none;" vertex="1" parent="1">
          <mxGeometry x="330" y="928" width="220" height="30" as="geometry" />
        </mxCell>
        <mxCell id="LuaKfp1yWTwl3YN1znLw-21" value="&lt;b&gt;A&lt;/b&gt;" style="text;strokeColor=none;fillColor=none;spacingLeft=4;spacingRight=4;overflow=hidden;rotatable=0;points=[[0,0.5],[1,0.5]];portConstraint=eastwest;fontSize=12;whiteSpace=wrap;html=1;" vertex="1" parent="1">
          <mxGeometry x="50" y="928" width="40" height="30" as="geometry" />
        </mxCell>
        <mxCell id="LuaKfp1yWTwl3YN1znLw-22" value="&lt;b&gt;B&lt;/b&gt;" style="text;strokeColor=none;fillColor=none;spacingLeft=4;spacingRight=4;overflow=hidden;rotatable=0;points=[[0,0.5],[1,0.5]];portConstraint=eastwest;fontSize=12;whiteSpace=wrap;html=1;" vertex="1" parent="1">
          <mxGeometry x="290" y="928" width="40" height="30" as="geometry" />
        </mxCell>
        <mxCell id="LuaKfp1yWTwl3YN1znLw-23" value="&lt;b&gt;C&lt;br&gt;&lt;/b&gt;" style="text;strokeColor=none;fillColor=none;spacingLeft=4;spacingRight=4;overflow=hidden;rotatable=0;points=[[0,0.5],[1,0.5]];portConstraint=eastwest;fontSize=12;whiteSpace=wrap;html=1;" vertex="1" parent="1">
          <mxGeometry x="60" y="980" width="40" height="30" as="geometry" />
        </mxCell>
        <mxCell id="LuaKfp1yWTwl3YN1znLw-24" value="&lt;b&gt;D&lt;/b&gt;" style="text;strokeColor=none;fillColor=none;spacingLeft=4;spacingRight=4;overflow=hidden;rotatable=0;points=[[0,0.5],[1,0.5]];portConstraint=eastwest;fontSize=12;whiteSpace=wrap;html=1;" vertex="1" parent="1">
          <mxGeometry x="60" y="1050" width="40" height="30" as="geometry" />
        </mxCell>
        <mxCell id="LuaKfp1yWTwl3YN1znLw-25" value="&lt;b&gt;E&lt;/b&gt;" style="text;strokeColor=none;fillColor=none;spacingLeft=4;spacingRight=4;overflow=hidden;rotatable=0;points=[[0,0.5],[1,0.5]];portConstraint=eastwest;fontSize=12;whiteSpace=wrap;html=1;" vertex="1" parent="1">
          <mxGeometry x="30" y="1139" width="40" height="30" as="geometry" />
        </mxCell>
        <mxCell id="LuaKfp1yWTwl3YN1znLw-26" value="&lt;b&gt;F&lt;/b&gt;" style="text;strokeColor=none;fillColor=none;spacingLeft=4;spacingRight=4;overflow=hidden;rotatable=0;points=[[0,0.5],[1,0.5]];portConstraint=eastwest;fontSize=12;whiteSpace=wrap;html=1;" vertex="1" parent="1">
          <mxGeometry x="50" y="1210" width="40" height="30" as="geometry" />
        </mxCell>
        <mxCell id="LuaKfp1yWTwl3YN1znLw-27" value="&lt;b&gt;G&lt;/b&gt;" style="text;strokeColor=none;fillColor=none;spacingLeft=4;spacingRight=4;overflow=hidden;rotatable=0;points=[[0,0.5],[1,0.5]];portConstraint=eastwest;fontSize=12;whiteSpace=wrap;html=1;" vertex="1" parent="1">
          <mxGeometry x="50" y="1270" width="40" height="30" as="geometry" />
        </mxCell>
        <mxCell id="fMEcnpSyOCONif91HRDe-1" value="CANBO (MaCB, HoVaTen, NgaySinh, DiaChi, DienThoai, LoaiGV, HocVi, DonViCongTac, STK, NganHang, MST, CMND)" style="text;whiteSpace=wrap;" vertex="1" parent="1">
          <mxGeometry x="80" y="1490" width="520" height="50" as="geometry" />
        </mxCell>
        <mxCell id="fMEcnpSyOCONif91HRDe-2" value="MONHOC (MaMH_NK, TenMH, SoTCLT, SoTCTH, LoaiMH)" style="text;whiteSpace=wrap;" vertex="1" parent="1">
          <mxGeometry x="80" y="1550" width="330" height="40" as="geometry" />
        </mxCell>
        <mxCell id="fMEcnpSyOCONif91HRDe-3" value="LoaiMH (MaLoaiMH, TenLoaiMH, DonGia)" style="text;whiteSpace=wrap;" vertex="1" parent="1">
          <mxGeometry x="-180" y="1550" width="180" height="40" as="geometry" />
        </mxCell>
        <mxCell id="fMEcnpSyOCONif91HRDe-4" value="ThoiGian (HocKy, Nam)" style="text;whiteSpace=wrap;" vertex="1" parent="1">
          <mxGeometry x="90" y="1734" width="180" height="40" as="geometry" />
        </mxCell>
        <mxCell id="fMEcnpSyOCONif91HRDe-6" value="MonHocMo (MaCT, STTLop, " style="text;whiteSpace=wrap;" vertex="1" parent="1">
          <mxGeometry x="215" y="1640" width="180" height="40" as="geometry" />
        </mxCell>
        <mxCell id="fMEcnpSyOCONif91HRDe-10" value="" style="fontSize=12;html=1;endArrow=ERoneToMany;startArrow=ERmandOne;rounded=0;" edge="1" parent="1" source="fMEcnpSyOCONif91HRDe-3" target="fMEcnpSyOCONif91HRDe-2">
          <mxGeometry width="100" height="100" relative="1" as="geometry">
            <mxPoint x="220" y="1730" as="sourcePoint" />
            <mxPoint x="320" y="1630" as="targetPoint" />
          </mxGeometry>
        </mxCell>
        <mxCell id="fMEcnpSyOCONif91HRDe-11" value="" style="fontSize=12;html=1;endArrow=ERoneToMany;startArrow=ERmandOne;rounded=0;exitX=0.039;exitY=0.975;exitDx=0;exitDy=0;exitPerimeter=0;entryX=0;entryY=0.25;entryDx=0;entryDy=0;" edge="1" parent="1" source="fMEcnpSyOCONif91HRDe-2" target="fMEcnpSyOCONif91HRDe-8">
          <mxGeometry width="100" height="100" relative="1" as="geometry">
            <mxPoint x="166" y="1742" as="sourcePoint" />
            <mxPoint x="230" y="1710" as="targetPoint" />
          </mxGeometry>
        </mxCell>
        <mxCell id="fMEcnpSyOCONif91HRDe-12" value="" style="edgeStyle=entityRelationEdgeStyle;fontSize=12;html=1;endArrow=ERoneToMany;startArrow=ERoneToMany;rounded=0;exitX=1;exitY=0.25;exitDx=0;exitDy=0;" edge="1" parent="1" source="fMEcnpSyOCONif91HRDe-8" target="fMEcnpSyOCONif91HRDe-1">
          <mxGeometry width="100" height="100" relative="1" as="geometry">
            <mxPoint x="280" y="1670" as="sourcePoint" />
            <mxPoint x="380" y="1570" as="targetPoint" />
          </mxGeometry>
        </mxCell>
        <mxCell id="fMEcnpSyOCONif91HRDe-13" value="VaiTro (SoTietDay)" style="text;whiteSpace=wrap;" vertex="1" parent="1">
          <mxGeometry x="480" y="1590" width="120" height="30" as="geometry" />
        </mxCell>
        <mxCell id="fMEcnpSyOCONif91HRDe-14" value="" style="endArrow=none;dashed=1;html=1;rounded=0;" edge="1" parent="1" target="fMEcnpSyOCONif91HRDe-13">
          <mxGeometry width="50" height="50" relative="1" as="geometry">
            <mxPoint x="590" y="1640" as="sourcePoint" />
            <mxPoint x="500" y="1630" as="targetPoint" />
          </mxGeometry>
        </mxCell>
        <mxCell id="fMEcnpSyOCONif91HRDe-15" value="CHUONGTRINH (MaCT, TenCT)" style="text;html=1;align=center;verticalAlign=middle;resizable=0;points=[];autosize=1;strokeColor=none;fillColor=none;" vertex="1" parent="1">
          <mxGeometry x="350" y="1750" width="200" height="30" as="geometry" />
        </mxCell>
        <mxCell id="fMEcnpSyOCONif91HRDe-16" value="" style="fontSize=12;html=1;endArrow=ERoneToMany;startArrow=ERmandOne;rounded=0;exitX=0.5;exitY=0;exitDx=0;exitDy=0;entryX=-0.005;entryY=0.675;entryDx=0;entryDy=0;entryPerimeter=0;" edge="1" parent="1" source="fMEcnpSyOCONif91HRDe-4" target="fMEcnpSyOCONif91HRDe-8">
          <mxGeometry width="100" height="100" relative="1" as="geometry">
            <mxPoint x="103" y="1599" as="sourcePoint" />
            <mxPoint x="210" y="1650" as="targetPoint" />
          </mxGeometry>
        </mxCell>
        <mxCell id="fMEcnpSyOCONif91HRDe-17" value="" style="endArrow=none;html=1;rounded=0;exitX=0.5;exitY=1;exitDx=0;exitDy=0;" edge="1" parent="1" source="fMEcnpSyOCONif91HRDe-8" target="fMEcnpSyOCONif91HRDe-15">
          <mxGeometry relative="1" as="geometry">
            <mxPoint x="250" y="1710" as="sourcePoint" />
            <mxPoint x="410" y="1710" as="targetPoint" />
          </mxGeometry>
        </mxCell>
        <mxCell id="fMEcnpSyOCONif91HRDe-18" value="MonHoc" style="shape=table;startSize=30;container=1;collapsible=1;childLayout=tableLayout;fixedRows=1;rowLines=0;fontStyle=1;align=center;resizeLast=1;html=1;" vertex="1" parent="1">
          <mxGeometry x="-150" y="1860" width="180" height="180" as="geometry" />
        </mxCell>
        <mxCell id="fMEcnpSyOCONif91HRDe-19" value="" style="shape=tableRow;horizontal=0;startSize=0;swimlaneHead=0;swimlaneBody=0;fillColor=none;collapsible=0;dropTarget=0;points=[[0,0.5],[1,0.5]];portConstraint=eastwest;top=0;left=0;right=0;bottom=1;" vertex="1" parent="fMEcnpSyOCONif91HRDe-18">
          <mxGeometry y="30" width="180" height="30" as="geometry" />
        </mxCell>
        <mxCell id="fMEcnpSyOCONif91HRDe-20" value="PK" style="shape=partialRectangle;connectable=0;fillColor=none;top=0;left=0;bottom=0;right=0;fontStyle=1;overflow=hidden;whiteSpace=wrap;html=1;" vertex="1" parent="fMEcnpSyOCONif91HRDe-19">
          <mxGeometry width="30" height="30" as="geometry">
            <mxRectangle width="30" height="30" as="alternateBounds" />
          </mxGeometry>
        </mxCell>
        <mxCell id="fMEcnpSyOCONif91HRDe-21" value="MaMH_SK&lt;br&gt;MaMH_NK&lt;br&gt;" style="shape=partialRectangle;connectable=0;fillColor=none;top=0;left=0;bottom=0;right=0;align=left;spacingLeft=6;fontStyle=5;overflow=hidden;whiteSpace=wrap;html=1;" vertex="1" parent="fMEcnpSyOCONif91HRDe-19">
          <mxGeometry x="30" width="150" height="30" as="geometry">
            <mxRectangle width="150" height="30" as="alternateBounds" />
          </mxGeometry>
        </mxCell>
        <mxCell id="fMEcnpSyOCONif91HRDe-22" value="" style="shape=tableRow;horizontal=0;startSize=0;swimlaneHead=0;swimlaneBody=0;fillColor=none;collapsible=0;dropTarget=0;points=[[0,0.5],[1,0.5]];portConstraint=eastwest;top=0;left=0;right=0;bottom=0;" vertex="1" parent="fMEcnpSyOCONif91HRDe-18">
          <mxGeometry y="60" width="180" height="30" as="geometry" />
        </mxCell>
        <mxCell id="fMEcnpSyOCONif91HRDe-23" value="" style="shape=partialRectangle;connectable=0;fillColor=none;top=0;left=0;bottom=0;right=0;editable=1;overflow=hidden;whiteSpace=wrap;html=1;" vertex="1" parent="fMEcnpSyOCONif91HRDe-22">
          <mxGeometry width="30" height="30" as="geometry">
            <mxRectangle width="30" height="30" as="alternateBounds" />
          </mxGeometry>
        </mxCell>
        <mxCell id="fMEcnpSyOCONif91HRDe-24" value="TenMH" style="shape=partialRectangle;connectable=0;fillColor=none;top=0;left=0;bottom=0;right=0;align=left;spacingLeft=6;overflow=hidden;whiteSpace=wrap;html=1;" vertex="1" parent="fMEcnpSyOCONif91HRDe-22">
          <mxGeometry x="30" width="150" height="30" as="geometry">
            <mxRectangle width="150" height="30" as="alternateBounds" />
          </mxGeometry>
        </mxCell>
        <mxCell id="fMEcnpSyOCONif91HRDe-25" value="" style="shape=tableRow;horizontal=0;startSize=0;swimlaneHead=0;swimlaneBody=0;fillColor=none;collapsible=0;dropTarget=0;points=[[0,0.5],[1,0.5]];portConstraint=eastwest;top=0;left=0;right=0;bottom=0;" vertex="1" parent="fMEcnpSyOCONif91HRDe-18">
          <mxGeometry y="90" width="180" height="30" as="geometry" />
        </mxCell>
        <mxCell id="fMEcnpSyOCONif91HRDe-26" value="" style="shape=partialRectangle;connectable=0;fillColor=none;top=0;left=0;bottom=0;right=0;editable=1;overflow=hidden;whiteSpace=wrap;html=1;" vertex="1" parent="fMEcnpSyOCONif91HRDe-25">
          <mxGeometry width="30" height="30" as="geometry">
            <mxRectangle width="30" height="30" as="alternateBounds" />
          </mxGeometry>
        </mxCell>
        <mxCell id="fMEcnpSyOCONif91HRDe-27" value="SoTCLT&lt;br&gt;" style="shape=partialRectangle;connectable=0;fillColor=none;top=0;left=0;bottom=0;right=0;align=left;spacingLeft=6;overflow=hidden;whiteSpace=wrap;html=1;" vertex="1" parent="fMEcnpSyOCONif91HRDe-25">
          <mxGeometry x="30" width="150" height="30" as="geometry">
            <mxRectangle width="150" height="30" as="alternateBounds" />
          </mxGeometry>
        </mxCell>
        <mxCell id="fMEcnpSyOCONif91HRDe-28" value="" style="shape=tableRow;horizontal=0;startSize=0;swimlaneHead=0;swimlaneBody=0;fillColor=none;collapsible=0;dropTarget=0;points=[[0,0.5],[1,0.5]];portConstraint=eastwest;top=0;left=0;right=0;bottom=0;" vertex="1" parent="fMEcnpSyOCONif91HRDe-18">
          <mxGeometry y="120" width="180" height="30" as="geometry" />
        </mxCell>
        <mxCell id="fMEcnpSyOCONif91HRDe-29" value="" style="shape=partialRectangle;connectable=0;fillColor=none;top=0;left=0;bottom=0;right=0;editable=1;overflow=hidden;whiteSpace=wrap;html=1;" vertex="1" parent="fMEcnpSyOCONif91HRDe-28">
          <mxGeometry width="30" height="30" as="geometry">
            <mxRectangle width="30" height="30" as="alternateBounds" />
          </mxGeometry>
        </mxCell>
        <mxCell id="fMEcnpSyOCONif91HRDe-30" value="SoTCTH" style="shape=partialRectangle;connectable=0;fillColor=none;top=0;left=0;bottom=0;right=0;align=left;spacingLeft=6;overflow=hidden;whiteSpace=wrap;html=1;" vertex="1" parent="fMEcnpSyOCONif91HRDe-28">
          <mxGeometry x="30" width="150" height="30" as="geometry">
            <mxRectangle width="150" height="30" as="alternateBounds" />
          </mxGeometry>
        </mxCell>
        <mxCell id="fMEcnpSyOCONif91HRDe-31" value="" style="shape=tableRow;horizontal=0;startSize=0;swimlaneHead=0;swimlaneBody=0;fillColor=none;collapsible=0;dropTarget=0;points=[[0,0.5],[1,0.5]];portConstraint=eastwest;top=0;left=0;right=0;bottom=0;" vertex="1" parent="fMEcnpSyOCONif91HRDe-18">
          <mxGeometry y="150" width="180" height="30" as="geometry" />
        </mxCell>
        <mxCell id="fMEcnpSyOCONif91HRDe-32" value="" style="shape=partialRectangle;connectable=0;fillColor=none;top=0;left=0;bottom=0;right=0;editable=1;overflow=hidden;whiteSpace=wrap;html=1;" vertex="1" parent="fMEcnpSyOCONif91HRDe-31">
          <mxGeometry width="30" height="30" as="geometry">
            <mxRectangle width="30" height="30" as="alternateBounds" />
          </mxGeometry>
        </mxCell>
        <mxCell id="fMEcnpSyOCONif91HRDe-33" value="LoaiMH" style="shape=partialRectangle;connectable=0;fillColor=none;top=0;left=0;bottom=0;right=0;align=left;spacingLeft=6;overflow=hidden;whiteSpace=wrap;html=1;" vertex="1" parent="fMEcnpSyOCONif91HRDe-31">
          <mxGeometry x="30" width="150" height="30" as="geometry">
            <mxRectangle width="150" height="30" as="alternateBounds" />
          </mxGeometry>
        </mxCell>
        <mxCell id="fMEcnpSyOCONif91HRDe-34" value="LoaiMH" style="shape=table;startSize=30;container=1;collapsible=1;childLayout=tableLayout;fixedRows=1;rowLines=0;fontStyle=1;align=center;resizeLast=1;html=1;" vertex="1" parent="1">
          <mxGeometry x="-140" y="2090" width="180" height="180" as="geometry" />
        </mxCell>
        <mxCell id="fMEcnpSyOCONif91HRDe-35" value="" style="shape=tableRow;horizontal=0;startSize=0;swimlaneHead=0;swimlaneBody=0;fillColor=none;collapsible=0;dropTarget=0;points=[[0,0.5],[1,0.5]];portConstraint=eastwest;top=0;left=0;right=0;bottom=1;" vertex="1" parent="fMEcnpSyOCONif91HRDe-34">
          <mxGeometry y="30" width="180" height="30" as="geometry" />
        </mxCell>
        <mxCell id="fMEcnpSyOCONif91HRDe-36" value="PK" style="shape=partialRectangle;connectable=0;fillColor=none;top=0;left=0;bottom=0;right=0;fontStyle=1;overflow=hidden;whiteSpace=wrap;html=1;" vertex="1" parent="fMEcnpSyOCONif91HRDe-35">
          <mxGeometry width="30" height="30" as="geometry">
            <mxRectangle width="30" height="30" as="alternateBounds" />
          </mxGeometry>
        </mxCell>
        <mxCell id="fMEcnpSyOCONif91HRDe-37" value="MaLoaiMH_SK&lt;br&gt;MaLoaiMH_NK" style="shape=partialRectangle;connectable=0;fillColor=none;top=0;left=0;bottom=0;right=0;align=left;spacingLeft=6;fontStyle=5;overflow=hidden;whiteSpace=wrap;html=1;" vertex="1" parent="fMEcnpSyOCONif91HRDe-35">
          <mxGeometry x="30" width="150" height="30" as="geometry">
            <mxRectangle width="150" height="30" as="alternateBounds" />
          </mxGeometry>
        </mxCell>
        <mxCell id="fMEcnpSyOCONif91HRDe-38" value="" style="shape=tableRow;horizontal=0;startSize=0;swimlaneHead=0;swimlaneBody=0;fillColor=none;collapsible=0;dropTarget=0;points=[[0,0.5],[1,0.5]];portConstraint=eastwest;top=0;left=0;right=0;bottom=0;" vertex="1" parent="fMEcnpSyOCONif91HRDe-34">
          <mxGeometry y="60" width="180" height="30" as="geometry" />
        </mxCell>
        <mxCell id="fMEcnpSyOCONif91HRDe-39" value="" style="shape=partialRectangle;connectable=0;fillColor=none;top=0;left=0;bottom=0;right=0;editable=1;overflow=hidden;whiteSpace=wrap;html=1;" vertex="1" parent="fMEcnpSyOCONif91HRDe-38">
          <mxGeometry width="30" height="30" as="geometry">
            <mxRectangle width="30" height="30" as="alternateBounds" />
          </mxGeometry>
        </mxCell>
        <mxCell id="fMEcnpSyOCONif91HRDe-40" value="TenLoaiMH" style="shape=partialRectangle;connectable=0;fillColor=none;top=0;left=0;bottom=0;right=0;align=left;spacingLeft=6;overflow=hidden;whiteSpace=wrap;html=1;" vertex="1" parent="fMEcnpSyOCONif91HRDe-38">
          <mxGeometry x="30" width="150" height="30" as="geometry">
            <mxRectangle width="150" height="30" as="alternateBounds" />
          </mxGeometry>
        </mxCell>
        <mxCell id="fMEcnpSyOCONif91HRDe-41" value="" style="shape=tableRow;horizontal=0;startSize=0;swimlaneHead=0;swimlaneBody=0;fillColor=none;collapsible=0;dropTarget=0;points=[[0,0.5],[1,0.5]];portConstraint=eastwest;top=0;left=0;right=0;bottom=0;" vertex="1" parent="fMEcnpSyOCONif91HRDe-34">
          <mxGeometry y="90" width="180" height="30" as="geometry" />
        </mxCell>
        <mxCell id="fMEcnpSyOCONif91HRDe-42" value="" style="shape=partialRectangle;connectable=0;fillColor=none;top=0;left=0;bottom=0;right=0;editable=1;overflow=hidden;whiteSpace=wrap;html=1;" vertex="1" parent="fMEcnpSyOCONif91HRDe-41">
          <mxGeometry width="30" height="30" as="geometry">
            <mxRectangle width="30" height="30" as="alternateBounds" />
          </mxGeometry>
        </mxCell>
        <mxCell id="fMEcnpSyOCONif91HRDe-43" value="DonGia" style="shape=partialRectangle;connectable=0;fillColor=none;top=0;left=0;bottom=0;right=0;align=left;spacingLeft=6;overflow=hidden;whiteSpace=wrap;html=1;" vertex="1" parent="fMEcnpSyOCONif91HRDe-41">
          <mxGeometry x="30" width="150" height="30" as="geometry">
            <mxRectangle width="150" height="30" as="alternateBounds" />
          </mxGeometry>
        </mxCell>
        <mxCell id="fMEcnpSyOCONif91HRDe-44" value="" style="shape=tableRow;horizontal=0;startSize=0;swimlaneHead=0;swimlaneBody=0;fillColor=none;collapsible=0;dropTarget=0;points=[[0,0.5],[1,0.5]];portConstraint=eastwest;top=0;left=0;right=0;bottom=0;" vertex="1" parent="fMEcnpSyOCONif91HRDe-34">
          <mxGeometry y="120" width="180" height="30" as="geometry" />
        </mxCell>
        <mxCell id="fMEcnpSyOCONif91HRDe-45" value="" style="shape=partialRectangle;connectable=0;fillColor=none;top=0;left=0;bottom=0;right=0;editable=1;overflow=hidden;whiteSpace=wrap;html=1;" vertex="1" parent="fMEcnpSyOCONif91HRDe-44">
          <mxGeometry width="30" height="30" as="geometry">
            <mxRectangle width="30" height="30" as="alternateBounds" />
          </mxGeometry>
        </mxCell>
        <mxCell id="fMEcnpSyOCONif91HRDe-46" value="" style="shape=partialRectangle;connectable=0;fillColor=none;top=0;left=0;bottom=0;right=0;align=left;spacingLeft=6;overflow=hidden;whiteSpace=wrap;html=1;" vertex="1" parent="fMEcnpSyOCONif91HRDe-44">
          <mxGeometry x="30" width="150" height="30" as="geometry">
            <mxRectangle width="150" height="30" as="alternateBounds" />
          </mxGeometry>
        </mxCell>
        <mxCell id="fMEcnpSyOCONif91HRDe-47" value="" style="shape=tableRow;horizontal=0;startSize=0;swimlaneHead=0;swimlaneBody=0;fillColor=none;collapsible=0;dropTarget=0;points=[[0,0.5],[1,0.5]];portConstraint=eastwest;top=0;left=0;right=0;bottom=0;" vertex="1" parent="fMEcnpSyOCONif91HRDe-34">
          <mxGeometry y="150" width="180" height="30" as="geometry" />
        </mxCell>
        <mxCell id="fMEcnpSyOCONif91HRDe-48" value="" style="shape=partialRectangle;connectable=0;fillColor=none;top=0;left=0;bottom=0;right=0;editable=1;overflow=hidden;whiteSpace=wrap;html=1;" vertex="1" parent="fMEcnpSyOCONif91HRDe-47">
          <mxGeometry width="30" height="30" as="geometry">
            <mxRectangle width="30" height="30" as="alternateBounds" />
          </mxGeometry>
        </mxCell>
        <mxCell id="fMEcnpSyOCONif91HRDe-49" value="" style="shape=partialRectangle;connectable=0;fillColor=none;top=0;left=0;bottom=0;right=0;align=left;spacingLeft=6;overflow=hidden;whiteSpace=wrap;html=1;" vertex="1" parent="fMEcnpSyOCONif91HRDe-47">
          <mxGeometry x="30" width="150" height="30" as="geometry">
            <mxRectangle width="150" height="30" as="alternateBounds" />
          </mxGeometry>
        </mxCell>
      </root>
    </mxGraphModel>
  </diagram>
  <diagram id="1EG5zmxSTe32E62Xml2q" name="1d">
    <mxGraphModel dx="1050" dy="585" grid="1" gridSize="10" guides="1" tooltips="1" connect="1" arrows="1" fold="1" page="1" pageScale="1" pageWidth="827" pageHeight="1169" math="0" shadow="0">
      <root>
        <mxCell id="0" />
        <mxCell id="1" parent="0" />
        <mxCell id="32MBrHUGP2S-G-w69w53-83" value="&lt;b style=&quot;border-color: var(--border-color);&quot;&gt;Dim_HocKy&lt;/b&gt;" style="swimlane;fontStyle=0;childLayout=stackLayout;horizontal=1;startSize=30;horizontalStack=0;resizeParent=1;resizeParentMax=0;resizeLast=0;collapsible=1;marginBottom=0;whiteSpace=wrap;html=1;fontSize=14;" parent="1" vertex="1">
          <mxGeometry x="660" y="870" width="140" height="150" as="geometry" />
        </mxCell>
        <mxCell id="32MBrHUGP2S-G-w69w53-84" value="&lt;u style=&quot;font-size: 14px;&quot;&gt;&lt;b style=&quot;font-size: 14px;&quot;&gt;NamHoc&lt;/b&gt;&lt;/u&gt;" style="text;strokeColor=none;fillColor=none;align=left;verticalAlign=middle;spacingLeft=4;spacingRight=4;overflow=hidden;points=[[0,0.5],[1,0.5]];portConstraint=eastwest;rotatable=0;whiteSpace=wrap;html=1;fontSize=14;" parent="32MBrHUGP2S-G-w69w53-83" vertex="1">
          <mxGeometry y="30" width="140" height="30" as="geometry" />
        </mxCell>
        <mxCell id="32MBrHUGP2S-G-w69w53-85" value="&lt;b style=&quot;font-size: 14px;&quot;&gt;&lt;u style=&quot;font-size: 14px;&quot;&gt;HocKi&lt;/u&gt;&lt;/b&gt;" style="text;strokeColor=none;fillColor=none;align=left;verticalAlign=middle;spacingLeft=4;spacingRight=4;overflow=hidden;points=[[0,0.5],[1,0.5]];portConstraint=eastwest;rotatable=0;whiteSpace=wrap;html=1;fontSize=14;" parent="32MBrHUGP2S-G-w69w53-83" vertex="1">
          <mxGeometry y="60" width="140" height="30" as="geometry" />
        </mxCell>
        <mxCell id="32MBrHUGP2S-G-w69w53-86" value="NgayBatDau" style="text;strokeColor=none;fillColor=none;align=left;verticalAlign=middle;spacingLeft=4;spacingRight=4;overflow=hidden;points=[[0,0.5],[1,0.5]];portConstraint=eastwest;rotatable=0;whiteSpace=wrap;html=1;fontSize=14;" parent="32MBrHUGP2S-G-w69w53-83" vertex="1">
          <mxGeometry y="90" width="140" height="30" as="geometry" />
        </mxCell>
        <mxCell id="32MBrHUGP2S-G-w69w53-87" value="NgayKetThuc" style="text;strokeColor=none;fillColor=none;align=left;verticalAlign=middle;spacingLeft=4;spacingRight=4;overflow=hidden;points=[[0,0.5],[1,0.5]];portConstraint=eastwest;rotatable=0;whiteSpace=wrap;html=1;fontSize=14;" parent="32MBrHUGP2S-G-w69w53-83" vertex="1">
          <mxGeometry y="120" width="140" height="30" as="geometry" />
        </mxCell>
        <mxCell id="32MBrHUGP2S-G-w69w53-88" value="FACT_CAU1d" style="shape=table;startSize=30;container=1;collapsible=1;childLayout=tableLayout;fixedRows=1;rowLines=0;fontStyle=1;align=center;resizeLast=1;html=1;fontSize=14;" parent="1" vertex="1">
          <mxGeometry x="340" y="760" width="180" height="182" as="geometry" />
        </mxCell>
        <mxCell id="32MBrHUGP2S-G-w69w53-89" value="" style="shape=tableRow;horizontal=0;startSize=0;swimlaneHead=0;swimlaneBody=0;fillColor=none;collapsible=0;dropTarget=0;points=[[0,0.5],[1,0.5]];portConstraint=eastwest;top=0;left=0;right=0;bottom=1;fontSize=14;" parent="32MBrHUGP2S-G-w69w53-88" vertex="1">
          <mxGeometry y="30" width="180" height="30" as="geometry" />
        </mxCell>
        <mxCell id="32MBrHUGP2S-G-w69w53-90" value="FK" style="shape=partialRectangle;connectable=0;fillColor=none;top=0;left=0;bottom=0;right=0;fontStyle=1;overflow=hidden;whiteSpace=wrap;html=1;fontSize=14;" parent="32MBrHUGP2S-G-w69w53-89" vertex="1">
          <mxGeometry width="31" height="30" as="geometry">
            <mxRectangle width="31" height="30" as="alternateBounds" />
          </mxGeometry>
        </mxCell>
        <mxCell id="32MBrHUGP2S-G-w69w53-91" value="&lt;b style=&quot;border-color: var(--border-color); font-size: 14px;&quot;&gt;&lt;u style=&quot;border-color: var(--border-color); font-size: 14px;&quot;&gt;TenCT&lt;/u&gt;&lt;/b&gt;" style="shape=partialRectangle;connectable=0;fillColor=none;top=0;left=0;bottom=0;right=0;align=left;spacingLeft=6;fontStyle=5;overflow=hidden;whiteSpace=wrap;html=1;fontSize=14;" parent="32MBrHUGP2S-G-w69w53-89" vertex="1">
          <mxGeometry x="31" width="149" height="30" as="geometry">
            <mxRectangle width="149" height="30" as="alternateBounds" />
          </mxGeometry>
        </mxCell>
        <mxCell id="32MBrHUGP2S-G-w69w53-92" value="" style="shape=tableRow;horizontal=0;startSize=0;swimlaneHead=0;swimlaneBody=0;fillColor=none;collapsible=0;dropTarget=0;points=[[0,0.5],[1,0.5]];portConstraint=eastwest;top=0;left=0;right=0;bottom=1;fontSize=14;" parent="32MBrHUGP2S-G-w69w53-88" vertex="1">
          <mxGeometry y="60" width="180" height="30" as="geometry" />
        </mxCell>
        <mxCell id="32MBrHUGP2S-G-w69w53-93" value="FK" style="shape=partialRectangle;connectable=0;fillColor=none;top=0;left=0;bottom=0;right=0;fontStyle=1;overflow=hidden;whiteSpace=wrap;html=1;fontSize=14;" parent="32MBrHUGP2S-G-w69w53-92" vertex="1">
          <mxGeometry width="31" height="30" as="geometry">
            <mxRectangle width="31" height="30" as="alternateBounds" />
          </mxGeometry>
        </mxCell>
        <mxCell id="32MBrHUGP2S-G-w69w53-94" value="&lt;b style=&quot;border-color: var(--border-color); font-size: 14px;&quot;&gt;&lt;u style=&quot;border-color: var(--border-color); font-size: 14px;&quot;&gt;MaMH&lt;/u&gt;&lt;/b&gt;" style="shape=partialRectangle;connectable=0;fillColor=none;top=0;left=0;bottom=0;right=0;align=left;spacingLeft=6;fontStyle=5;overflow=hidden;whiteSpace=wrap;html=1;fontSize=14;" parent="32MBrHUGP2S-G-w69w53-92" vertex="1">
          <mxGeometry x="31" width="149" height="30" as="geometry">
            <mxRectangle width="149" height="30" as="alternateBounds" />
          </mxGeometry>
        </mxCell>
        <mxCell id="32MBrHUGP2S-G-w69w53-95" value="" style="shape=tableRow;horizontal=0;startSize=0;swimlaneHead=0;swimlaneBody=0;fillColor=none;collapsible=0;dropTarget=0;points=[[0,0.5],[1,0.5]];portConstraint=eastwest;top=0;left=0;right=0;bottom=1;fontSize=14;" parent="32MBrHUGP2S-G-w69w53-88" vertex="1">
          <mxGeometry y="90" width="180" height="30" as="geometry" />
        </mxCell>
        <mxCell id="32MBrHUGP2S-G-w69w53-96" value="FK" style="shape=partialRectangle;connectable=0;fillColor=none;top=0;left=0;bottom=0;right=0;fontStyle=1;overflow=hidden;whiteSpace=wrap;html=1;fontSize=14;" parent="32MBrHUGP2S-G-w69w53-95" vertex="1">
          <mxGeometry width="31" height="30" as="geometry">
            <mxRectangle width="31" height="30" as="alternateBounds" />
          </mxGeometry>
        </mxCell>
        <mxCell id="32MBrHUGP2S-G-w69w53-97" value="&lt;u style=&quot;border-color: var(--border-color); font-size: 14px; font-weight: 400;&quot;&gt;&lt;b style=&quot;border-color: var(--border-color); font-size: 14px;&quot;&gt;NamHoc&lt;/b&gt;&lt;/u&gt;" style="shape=partialRectangle;connectable=0;fillColor=none;top=0;left=0;bottom=0;right=0;align=left;spacingLeft=6;fontStyle=5;overflow=hidden;whiteSpace=wrap;html=1;fontSize=14;" parent="32MBrHUGP2S-G-w69w53-95" vertex="1">
          <mxGeometry x="31" width="149" height="30" as="geometry">
            <mxRectangle width="149" height="30" as="alternateBounds" />
          </mxGeometry>
        </mxCell>
        <mxCell id="32MBrHUGP2S-G-w69w53-98" value="" style="shape=tableRow;horizontal=0;startSize=0;swimlaneHead=0;swimlaneBody=0;fillColor=none;collapsible=0;dropTarget=0;points=[[0,0.5],[1,0.5]];portConstraint=eastwest;top=0;left=0;right=0;bottom=1;fontSize=14;" parent="32MBrHUGP2S-G-w69w53-88" vertex="1">
          <mxGeometry y="120" width="180" height="30" as="geometry" />
        </mxCell>
        <mxCell id="32MBrHUGP2S-G-w69w53-99" value="FK" style="shape=partialRectangle;connectable=0;fillColor=none;top=0;left=0;bottom=0;right=0;fontStyle=1;overflow=hidden;whiteSpace=wrap;html=1;fontSize=14;" parent="32MBrHUGP2S-G-w69w53-98" vertex="1">
          <mxGeometry width="31" height="30" as="geometry">
            <mxRectangle width="31" height="30" as="alternateBounds" />
          </mxGeometry>
        </mxCell>
        <mxCell id="32MBrHUGP2S-G-w69w53-100" value="&lt;b style=&quot;border-color: var(--border-color); font-size: 14px;&quot;&gt;&lt;u style=&quot;border-color: var(--border-color); font-size: 14px;&quot;&gt;HocKi&lt;/u&gt;&lt;/b&gt;" style="shape=partialRectangle;connectable=0;fillColor=none;top=0;left=0;bottom=0;right=0;align=left;spacingLeft=6;fontStyle=5;overflow=hidden;whiteSpace=wrap;html=1;fontSize=14;" parent="32MBrHUGP2S-G-w69w53-98" vertex="1">
          <mxGeometry x="31" width="149" height="30" as="geometry">
            <mxRectangle width="149" height="30" as="alternateBounds" />
          </mxGeometry>
        </mxCell>
        <mxCell id="32MBrHUGP2S-G-w69w53-104" value="&lt;span style=&quot;font-size: 14px;&quot;&gt;ThuLao&lt;/span&gt;" style="text;html=1;align=center;verticalAlign=middle;resizable=0;points=[];autosize=1;strokeColor=none;fillColor=none;" parent="1" vertex="1">
          <mxGeometry x="370" y="912" width="70" height="30" as="geometry" />
        </mxCell>
        <mxCell id="32MBrHUGP2S-G-w69w53-105" value="&lt;b style=&quot;border-color: var(--border-color);&quot;&gt;Dim_&lt;/b&gt;&lt;b style=&quot;font-size: 14px;&quot;&gt;ChuongTrinh&lt;/b&gt;" style="swimlane;fontStyle=0;childLayout=stackLayout;horizontal=1;startSize=30;horizontalStack=0;resizeParent=1;resizeParentMax=0;resizeLast=0;collapsible=1;marginBottom=0;whiteSpace=wrap;html=1;fontSize=14;" parent="1" vertex="1">
          <mxGeometry x="90" y="760" width="140" height="60" as="geometry" />
        </mxCell>
        <mxCell id="32MBrHUGP2S-G-w69w53-106" value="&lt;u style=&quot;font-size: 14px;&quot;&gt;&lt;b style=&quot;font-size: 14px;&quot;&gt;TenCT&lt;/b&gt;&lt;/u&gt;" style="text;strokeColor=none;fillColor=none;align=left;verticalAlign=middle;spacingLeft=4;spacingRight=4;overflow=hidden;points=[[0,0.5],[1,0.5]];portConstraint=eastwest;rotatable=0;whiteSpace=wrap;html=1;fontSize=14;" parent="32MBrHUGP2S-G-w69w53-105" vertex="1">
          <mxGeometry y="30" width="140" height="30" as="geometry" />
        </mxCell>
        <mxCell id="32MBrHUGP2S-G-w69w53-134" style="edgeStyle=orthogonalEdgeStyle;rounded=0;orthogonalLoop=1;jettySize=auto;html=1;exitX=0.5;exitY=0;exitDx=0;exitDy=0;" parent="1" source="32MBrHUGP2S-G-w69w53-107" target="32MBrHUGP2S-G-w69w53-92" edge="1">
          <mxGeometry relative="1" as="geometry" />
        </mxCell>
        <mxCell id="32MBrHUGP2S-G-w69w53-107" value="&lt;b style=&quot;border-color: var(--border-color);&quot;&gt;Dim_MonHoc&lt;/b&gt;" style="swimlane;fontStyle=0;childLayout=stackLayout;horizontal=1;startSize=30;horizontalStack=0;resizeParent=1;resizeParentMax=0;resizeLast=0;collapsible=1;marginBottom=0;whiteSpace=wrap;html=1;fontSize=14;" parent="1" vertex="1">
          <mxGeometry x="90" y="900" width="140" height="120" as="geometry" />
        </mxCell>
        <mxCell id="32MBrHUGP2S-G-w69w53-108" value="&lt;b style=&quot;font-size: 14px;&quot;&gt;&lt;u style=&quot;font-size: 14px;&quot;&gt;MaMH&lt;/u&gt;&lt;/b&gt;" style="text;strokeColor=none;fillColor=none;align=left;verticalAlign=middle;spacingLeft=4;spacingRight=4;overflow=hidden;points=[[0,0.5],[1,0.5]];portConstraint=eastwest;rotatable=0;whiteSpace=wrap;html=1;fontSize=14;" parent="32MBrHUGP2S-G-w69w53-107" vertex="1">
          <mxGeometry y="30" width="140" height="30" as="geometry" />
        </mxCell>
        <mxCell id="32MBrHUGP2S-G-w69w53-109" value="TenMH" style="text;strokeColor=none;fillColor=none;align=left;verticalAlign=middle;spacingLeft=4;spacingRight=4;overflow=hidden;points=[[0,0.5],[1,0.5]];portConstraint=eastwest;rotatable=0;whiteSpace=wrap;html=1;fontSize=14;" parent="32MBrHUGP2S-G-w69w53-107" vertex="1">
          <mxGeometry y="60" width="140" height="30" as="geometry" />
        </mxCell>
        <mxCell id="32MBrHUGP2S-G-w69w53-110" value="LoaiMH" style="text;strokeColor=none;fillColor=none;align=left;verticalAlign=middle;spacingLeft=4;spacingRight=4;overflow=hidden;points=[[0,0.5],[1,0.5]];portConstraint=eastwest;rotatable=0;whiteSpace=wrap;html=1;fontSize=14;" parent="32MBrHUGP2S-G-w69w53-107" vertex="1">
          <mxGeometry y="90" width="140" height="30" as="geometry" />
        </mxCell>
        <mxCell id="32MBrHUGP2S-G-w69w53-118" value="&lt;b style=&quot;font-size: 14px;&quot;&gt;Dim_NamHoc&lt;/b&gt;" style="swimlane;fontStyle=0;childLayout=stackLayout;horizontal=1;startSize=30;horizontalStack=0;resizeParent=1;resizeParentMax=0;resizeLast=0;collapsible=1;marginBottom=0;whiteSpace=wrap;html=1;fontSize=14;" parent="1" vertex="1">
          <mxGeometry x="621" y="660" width="140" height="120" as="geometry" />
        </mxCell>
        <mxCell id="32MBrHUGP2S-G-w69w53-119" value="&lt;b&gt;&lt;u&gt;NamHoc&lt;/u&gt;&lt;/b&gt;" style="text;strokeColor=none;fillColor=none;align=left;verticalAlign=middle;spacingLeft=4;spacingRight=4;overflow=hidden;points=[[0,0.5],[1,0.5]];portConstraint=eastwest;rotatable=0;whiteSpace=wrap;html=1;fontSize=14;" parent="32MBrHUGP2S-G-w69w53-118" vertex="1">
          <mxGeometry y="30" width="140" height="30" as="geometry" />
        </mxCell>
        <mxCell id="32MBrHUGP2S-G-w69w53-125" value="NgayBatDau" style="text;strokeColor=none;fillColor=none;align=left;verticalAlign=middle;spacingLeft=4;spacingRight=4;overflow=hidden;points=[[0,0.5],[1,0.5]];portConstraint=eastwest;rotatable=0;whiteSpace=wrap;html=1;fontSize=14;" parent="32MBrHUGP2S-G-w69w53-118" vertex="1">
          <mxGeometry y="60" width="140" height="30" as="geometry" />
        </mxCell>
        <mxCell id="32MBrHUGP2S-G-w69w53-124" value="NgayKetThuc" style="text;strokeColor=none;fillColor=none;align=left;verticalAlign=middle;spacingLeft=4;spacingRight=4;overflow=hidden;points=[[0,0.5],[1,0.5]];portConstraint=eastwest;rotatable=0;whiteSpace=wrap;html=1;fontSize=14;" parent="32MBrHUGP2S-G-w69w53-118" vertex="1">
          <mxGeometry y="90" width="140" height="30" as="geometry" />
        </mxCell>
        <mxCell id="32MBrHUGP2S-G-w69w53-123" value="&lt;ul style=&quot;-webkit-tap-highlight-color: transparent; list-style: disc; margin: 1em 0px; padding: 0px 0px 0px 40px; color: rgb(60, 64, 67); font-family: Roboto, Arial, sans-serif; font-size: 14px; font-style: normal; font-variant-ligatures: normal; font-variant-caps: normal; font-weight: 400; letter-spacing: 0.2px; orphans: 2; text-align: start; text-indent: 0px; text-transform: none; widows: 2; word-spacing: 0px; -webkit-text-stroke-width: 0px; text-decoration-thickness: initial; text-decoration-style: initial; text-decoration-color: initial;&quot;&gt;&lt;li style=&quot;-webkit-tap-highlight-color: transparent;&quot;&gt;So sánh thù lao dạy của mỗi (chương trình, học kỳ, năm ) hoặc mỗi (chương trình, năm)&lt;/li&gt;&lt;/ul&gt;" style="text;whiteSpace=wrap;html=1;" parent="1" vertex="1">
          <mxGeometry x="80" y="560" width="560" height="90" as="geometry" />
        </mxCell>
        <mxCell id="32MBrHUGP2S-G-w69w53-126" value="&lt;b style=&quot;border-color: var(--border-color);&quot;&gt;Dim_DonGia&lt;/b&gt;" style="swimlane;fontStyle=0;childLayout=stackLayout;horizontal=1;startSize=30;horizontalStack=0;resizeParent=1;resizeParentMax=0;resizeLast=0;collapsible=1;marginBottom=0;whiteSpace=wrap;html=1;fontSize=14;" parent="1" vertex="1">
          <mxGeometry x="344" y="1030" width="140" height="90" as="geometry" />
        </mxCell>
        <mxCell id="32MBrHUGP2S-G-w69w53-127" value="&lt;b&gt;&lt;u&gt;LoaiMH&lt;/u&gt;&lt;/b&gt;" style="text;strokeColor=none;fillColor=none;align=left;verticalAlign=middle;spacingLeft=4;spacingRight=4;overflow=hidden;points=[[0,0.5],[1,0.5]];portConstraint=eastwest;rotatable=0;whiteSpace=wrap;html=1;fontSize=14;" parent="32MBrHUGP2S-G-w69w53-126" vertex="1">
          <mxGeometry y="30" width="140" height="30" as="geometry" />
        </mxCell>
        <mxCell id="32MBrHUGP2S-G-w69w53-128" value="DonGia" style="text;strokeColor=none;fillColor=none;align=left;verticalAlign=middle;spacingLeft=4;spacingRight=4;overflow=hidden;points=[[0,0.5],[1,0.5]];portConstraint=eastwest;rotatable=0;whiteSpace=wrap;html=1;fontSize=14;" parent="32MBrHUGP2S-G-w69w53-126" vertex="1">
          <mxGeometry y="60" width="140" height="30" as="geometry" />
        </mxCell>
        <mxCell id="32MBrHUGP2S-G-w69w53-130" style="edgeStyle=orthogonalEdgeStyle;rounded=0;orthogonalLoop=1;jettySize=auto;html=1;exitX=0;exitY=0.5;exitDx=0;exitDy=0;entryX=1;entryY=0.5;entryDx=0;entryDy=0;" parent="1" source="32MBrHUGP2S-G-w69w53-125" target="32MBrHUGP2S-G-w69w53-95" edge="1">
          <mxGeometry relative="1" as="geometry" />
        </mxCell>
        <mxCell id="32MBrHUGP2S-G-w69w53-131" style="edgeStyle=orthogonalEdgeStyle;rounded=0;orthogonalLoop=1;jettySize=auto;html=1;exitX=0;exitY=0.5;exitDx=0;exitDy=0;" parent="1" source="32MBrHUGP2S-G-w69w53-85" target="32MBrHUGP2S-G-w69w53-98" edge="1">
          <mxGeometry relative="1" as="geometry" />
        </mxCell>
        <mxCell id="32MBrHUGP2S-G-w69w53-132" style="edgeStyle=orthogonalEdgeStyle;rounded=0;orthogonalLoop=1;jettySize=auto;html=1;exitX=1;exitY=0.5;exitDx=0;exitDy=0;entryX=0;entryY=0.5;entryDx=0;entryDy=0;" parent="1" source="32MBrHUGP2S-G-w69w53-106" target="32MBrHUGP2S-G-w69w53-89" edge="1">
          <mxGeometry relative="1" as="geometry" />
        </mxCell>
        <mxCell id="32MBrHUGP2S-G-w69w53-133" style="edgeStyle=orthogonalEdgeStyle;rounded=0;orthogonalLoop=1;jettySize=auto;html=1;exitX=0;exitY=0.5;exitDx=0;exitDy=0;entryX=1;entryY=0.5;entryDx=0;entryDy=0;" parent="1" source="32MBrHUGP2S-G-w69w53-127" target="32MBrHUGP2S-G-w69w53-110" edge="1">
          <mxGeometry relative="1" as="geometry" />
        </mxCell>
        <mxCell id="32MBrHUGP2S-G-w69w53-175" value="&lt;b style=&quot;border-color: var(--border-color);&quot;&gt;Dim_HocKy&lt;/b&gt;" style="swimlane;fontStyle=0;childLayout=stackLayout;horizontal=1;startSize=30;horizontalStack=0;resizeParent=1;resizeParentMax=0;resizeLast=0;collapsible=1;marginBottom=0;whiteSpace=wrap;html=1;fontSize=14;" parent="1" vertex="1">
          <mxGeometry x="160" y="1580" width="140" height="150" as="geometry" />
        </mxCell>
        <mxCell id="32MBrHUGP2S-G-w69w53-176" value="&lt;u style=&quot;font-size: 14px;&quot;&gt;&lt;b style=&quot;font-size: 14px;&quot;&gt;NamHoc&lt;/b&gt;&lt;/u&gt;" style="text;strokeColor=none;fillColor=none;align=left;verticalAlign=middle;spacingLeft=4;spacingRight=4;overflow=hidden;points=[[0,0.5],[1,0.5]];portConstraint=eastwest;rotatable=0;whiteSpace=wrap;html=1;fontSize=14;" parent="32MBrHUGP2S-G-w69w53-175" vertex="1">
          <mxGeometry y="30" width="140" height="30" as="geometry" />
        </mxCell>
        <mxCell id="32MBrHUGP2S-G-w69w53-177" value="&lt;b style=&quot;font-size: 14px;&quot;&gt;&lt;u style=&quot;font-size: 14px;&quot;&gt;HocKi&lt;/u&gt;&lt;/b&gt;" style="text;strokeColor=none;fillColor=none;align=left;verticalAlign=middle;spacingLeft=4;spacingRight=4;overflow=hidden;points=[[0,0.5],[1,0.5]];portConstraint=eastwest;rotatable=0;whiteSpace=wrap;html=1;fontSize=14;" parent="32MBrHUGP2S-G-w69w53-175" vertex="1">
          <mxGeometry y="60" width="140" height="30" as="geometry" />
        </mxCell>
        <mxCell id="32MBrHUGP2S-G-w69w53-178" value="NgayBatDau" style="text;strokeColor=none;fillColor=none;align=left;verticalAlign=middle;spacingLeft=4;spacingRight=4;overflow=hidden;points=[[0,0.5],[1,0.5]];portConstraint=eastwest;rotatable=0;whiteSpace=wrap;html=1;fontSize=14;" parent="32MBrHUGP2S-G-w69w53-175" vertex="1">
          <mxGeometry y="90" width="140" height="30" as="geometry" />
        </mxCell>
        <mxCell id="32MBrHUGP2S-G-w69w53-179" value="NgayKetThuc" style="text;strokeColor=none;fillColor=none;align=left;verticalAlign=middle;spacingLeft=4;spacingRight=4;overflow=hidden;points=[[0,0.5],[1,0.5]];portConstraint=eastwest;rotatable=0;whiteSpace=wrap;html=1;fontSize=14;" parent="32MBrHUGP2S-G-w69w53-175" vertex="1">
          <mxGeometry y="120" width="140" height="30" as="geometry" />
        </mxCell>
        <mxCell id="32MBrHUGP2S-G-w69w53-180" value="FACT_CAU1d" style="shape=table;startSize=30;container=1;collapsible=1;childLayout=tableLayout;fixedRows=1;rowLines=0;fontStyle=1;align=center;resizeLast=1;html=1;fontSize=14;" parent="1" vertex="1">
          <mxGeometry x="340" y="1380" width="180" height="152" as="geometry" />
        </mxCell>
        <mxCell id="32MBrHUGP2S-G-w69w53-181" value="" style="shape=tableRow;horizontal=0;startSize=0;swimlaneHead=0;swimlaneBody=0;fillColor=none;collapsible=0;dropTarget=0;points=[[0,0.5],[1,0.5]];portConstraint=eastwest;top=0;left=0;right=0;bottom=1;fontSize=14;" parent="32MBrHUGP2S-G-w69w53-180" vertex="1">
          <mxGeometry y="30" width="180" height="30" as="geometry" />
        </mxCell>
        <mxCell id="32MBrHUGP2S-G-w69w53-182" value="FK" style="shape=partialRectangle;connectable=0;fillColor=none;top=0;left=0;bottom=0;right=0;fontStyle=1;overflow=hidden;whiteSpace=wrap;html=1;fontSize=14;" parent="32MBrHUGP2S-G-w69w53-181" vertex="1">
          <mxGeometry width="31" height="30" as="geometry">
            <mxRectangle width="31" height="30" as="alternateBounds" />
          </mxGeometry>
        </mxCell>
        <mxCell id="32MBrHUGP2S-G-w69w53-183" value="&lt;b style=&quot;border-color: var(--border-color); font-size: 14px;&quot;&gt;&lt;u style=&quot;border-color: var(--border-color); font-size: 14px;&quot;&gt;TenCT&lt;/u&gt;&lt;/b&gt;" style="shape=partialRectangle;connectable=0;fillColor=none;top=0;left=0;bottom=0;right=0;align=left;spacingLeft=6;fontStyle=5;overflow=hidden;whiteSpace=wrap;html=1;fontSize=14;" parent="32MBrHUGP2S-G-w69w53-181" vertex="1">
          <mxGeometry x="31" width="149" height="30" as="geometry">
            <mxRectangle width="149" height="30" as="alternateBounds" />
          </mxGeometry>
        </mxCell>
        <mxCell id="32MBrHUGP2S-G-w69w53-184" value="" style="shape=tableRow;horizontal=0;startSize=0;swimlaneHead=0;swimlaneBody=0;fillColor=none;collapsible=0;dropTarget=0;points=[[0,0.5],[1,0.5]];portConstraint=eastwest;top=0;left=0;right=0;bottom=1;fontSize=14;" parent="32MBrHUGP2S-G-w69w53-180" vertex="1">
          <mxGeometry y="60" width="180" height="30" as="geometry" />
        </mxCell>
        <mxCell id="32MBrHUGP2S-G-w69w53-185" value="FK" style="shape=partialRectangle;connectable=0;fillColor=none;top=0;left=0;bottom=0;right=0;fontStyle=1;overflow=hidden;whiteSpace=wrap;html=1;fontSize=14;" parent="32MBrHUGP2S-G-w69w53-184" vertex="1">
          <mxGeometry width="31" height="30" as="geometry">
            <mxRectangle width="31" height="30" as="alternateBounds" />
          </mxGeometry>
        </mxCell>
        <mxCell id="32MBrHUGP2S-G-w69w53-186" value="&lt;u style=&quot;border-color: var(--border-color); font-size: 14px; font-weight: 400;&quot;&gt;&lt;b style=&quot;border-color: var(--border-color); font-size: 14px;&quot;&gt;NamHoc&lt;/b&gt;&lt;/u&gt;" style="shape=partialRectangle;connectable=0;fillColor=none;top=0;left=0;bottom=0;right=0;align=left;spacingLeft=6;fontStyle=5;overflow=hidden;whiteSpace=wrap;html=1;fontSize=14;" parent="32MBrHUGP2S-G-w69w53-184" vertex="1">
          <mxGeometry x="31" width="149" height="30" as="geometry">
            <mxRectangle width="149" height="30" as="alternateBounds" />
          </mxGeometry>
        </mxCell>
        <mxCell id="32MBrHUGP2S-G-w69w53-187" value="" style="shape=tableRow;horizontal=0;startSize=0;swimlaneHead=0;swimlaneBody=0;fillColor=none;collapsible=0;dropTarget=0;points=[[0,0.5],[1,0.5]];portConstraint=eastwest;top=0;left=0;right=0;bottom=1;fontSize=14;" parent="32MBrHUGP2S-G-w69w53-180" vertex="1">
          <mxGeometry y="90" width="180" height="30" as="geometry" />
        </mxCell>
        <mxCell id="32MBrHUGP2S-G-w69w53-188" value="FK" style="shape=partialRectangle;connectable=0;fillColor=none;top=0;left=0;bottom=0;right=0;fontStyle=1;overflow=hidden;whiteSpace=wrap;html=1;fontSize=14;" parent="32MBrHUGP2S-G-w69w53-187" vertex="1">
          <mxGeometry width="31" height="30" as="geometry">
            <mxRectangle width="31" height="30" as="alternateBounds" />
          </mxGeometry>
        </mxCell>
        <mxCell id="32MBrHUGP2S-G-w69w53-189" value="&lt;b style=&quot;border-color: var(--border-color); font-size: 14px;&quot;&gt;&lt;u style=&quot;border-color: var(--border-color); font-size: 14px;&quot;&gt;HocKi&lt;/u&gt;&lt;/b&gt;" style="shape=partialRectangle;connectable=0;fillColor=none;top=0;left=0;bottom=0;right=0;align=left;spacingLeft=6;fontStyle=5;overflow=hidden;whiteSpace=wrap;html=1;fontSize=14;" parent="32MBrHUGP2S-G-w69w53-187" vertex="1">
          <mxGeometry x="31" width="149" height="30" as="geometry">
            <mxRectangle width="149" height="30" as="alternateBounds" />
          </mxGeometry>
        </mxCell>
        <mxCell id="32MBrHUGP2S-G-w69w53-193" value="&lt;span style=&quot;font-size: 14px;&quot;&gt;ThuLao&lt;/span&gt;" style="text;html=1;align=center;verticalAlign=middle;resizable=0;points=[];autosize=1;strokeColor=none;fillColor=none;" parent="1" vertex="1">
          <mxGeometry x="370" y="1502" width="70" height="30" as="geometry" />
        </mxCell>
        <mxCell id="32MBrHUGP2S-G-w69w53-194" value="&lt;b style=&quot;border-color: var(--border-color);&quot;&gt;Dim_&lt;/b&gt;&lt;b style=&quot;font-size: 14px;&quot;&gt;ChuongTrinh&lt;/b&gt;" style="swimlane;fontStyle=0;childLayout=stackLayout;horizontal=1;startSize=30;horizontalStack=0;resizeParent=1;resizeParentMax=0;resizeLast=0;collapsible=1;marginBottom=0;whiteSpace=wrap;html=1;fontSize=14;" parent="1" vertex="1">
          <mxGeometry x="150" y="1380" width="140" height="60" as="geometry" />
        </mxCell>
        <mxCell id="32MBrHUGP2S-G-w69w53-195" value="&lt;u style=&quot;font-size: 14px;&quot;&gt;&lt;b style=&quot;font-size: 14px;&quot;&gt;TenCT&lt;/b&gt;&lt;/u&gt;" style="text;strokeColor=none;fillColor=none;align=left;verticalAlign=middle;spacingLeft=4;spacingRight=4;overflow=hidden;points=[[0,0.5],[1,0.5]];portConstraint=eastwest;rotatable=0;whiteSpace=wrap;html=1;fontSize=14;" parent="32MBrHUGP2S-G-w69w53-194" vertex="1">
          <mxGeometry y="30" width="140" height="30" as="geometry" />
        </mxCell>
        <mxCell id="32MBrHUGP2S-G-w69w53-196" value="&lt;b style=&quot;border-color: var(--border-color);&quot;&gt;Dim_MonHoc&lt;/b&gt;" style="swimlane;fontStyle=0;childLayout=stackLayout;horizontal=1;startSize=30;horizontalStack=0;resizeParent=1;resizeParentMax=0;resizeLast=0;collapsible=1;marginBottom=0;whiteSpace=wrap;html=1;fontSize=14;" parent="1" vertex="1">
          <mxGeometry x="470" y="1604" width="140" height="150" as="geometry" />
        </mxCell>
        <mxCell id="32MBrHUGP2S-G-w69w53-197" value="&lt;b style=&quot;font-size: 14px;&quot;&gt;&lt;u style=&quot;font-size: 14px;&quot;&gt;MaMH&lt;/u&gt;&lt;/b&gt;" style="text;strokeColor=none;fillColor=none;align=left;verticalAlign=middle;spacingLeft=4;spacingRight=4;overflow=hidden;points=[[0,0.5],[1,0.5]];portConstraint=eastwest;rotatable=0;whiteSpace=wrap;html=1;fontSize=14;" parent="32MBrHUGP2S-G-w69w53-196" vertex="1">
          <mxGeometry y="30" width="140" height="30" as="geometry" />
        </mxCell>
        <mxCell id="32MBrHUGP2S-G-w69w53-198" value="TenMH" style="text;strokeColor=none;fillColor=none;align=left;verticalAlign=middle;spacingLeft=4;spacingRight=4;overflow=hidden;points=[[0,0.5],[1,0.5]];portConstraint=eastwest;rotatable=0;whiteSpace=wrap;html=1;fontSize=14;" parent="32MBrHUGP2S-G-w69w53-196" vertex="1">
          <mxGeometry y="60" width="140" height="30" as="geometry" />
        </mxCell>
        <mxCell id="32MBrHUGP2S-G-w69w53-211" value="HocKy" style="text;strokeColor=none;fillColor=none;align=left;verticalAlign=middle;spacingLeft=4;spacingRight=4;overflow=hidden;points=[[0,0.5],[1,0.5]];portConstraint=eastwest;rotatable=0;whiteSpace=wrap;html=1;fontSize=14;" parent="32MBrHUGP2S-G-w69w53-196" vertex="1">
          <mxGeometry y="90" width="140" height="30" as="geometry" />
        </mxCell>
        <mxCell id="32MBrHUGP2S-G-w69w53-199" value="LoaiMH" style="text;strokeColor=none;fillColor=none;align=left;verticalAlign=middle;spacingLeft=4;spacingRight=4;overflow=hidden;points=[[0,0.5],[1,0.5]];portConstraint=eastwest;rotatable=0;whiteSpace=wrap;html=1;fontSize=14;" parent="32MBrHUGP2S-G-w69w53-196" vertex="1">
          <mxGeometry y="120" width="140" height="30" as="geometry" />
        </mxCell>
        <mxCell id="32MBrHUGP2S-G-w69w53-200" value="&lt;b style=&quot;font-size: 14px;&quot;&gt;Dim_NamHoc&lt;/b&gt;" style="swimlane;fontStyle=0;childLayout=stackLayout;horizontal=1;startSize=30;horizontalStack=0;resizeParent=1;resizeParentMax=0;resizeLast=0;collapsible=1;marginBottom=0;whiteSpace=wrap;html=1;fontSize=14;" parent="1" vertex="1">
          <mxGeometry x="640" y="1380" width="140" height="120" as="geometry" />
        </mxCell>
        <mxCell id="32MBrHUGP2S-G-w69w53-201" value="&lt;b&gt;&lt;u&gt;NamHoc&lt;/u&gt;&lt;/b&gt;" style="text;strokeColor=none;fillColor=none;align=left;verticalAlign=middle;spacingLeft=4;spacingRight=4;overflow=hidden;points=[[0,0.5],[1,0.5]];portConstraint=eastwest;rotatable=0;whiteSpace=wrap;html=1;fontSize=14;" parent="32MBrHUGP2S-G-w69w53-200" vertex="1">
          <mxGeometry y="30" width="140" height="30" as="geometry" />
        </mxCell>
        <mxCell id="32MBrHUGP2S-G-w69w53-202" value="NgayBatDau" style="text;strokeColor=none;fillColor=none;align=left;verticalAlign=middle;spacingLeft=4;spacingRight=4;overflow=hidden;points=[[0,0.5],[1,0.5]];portConstraint=eastwest;rotatable=0;whiteSpace=wrap;html=1;fontSize=14;" parent="32MBrHUGP2S-G-w69w53-200" vertex="1">
          <mxGeometry y="60" width="140" height="30" as="geometry" />
        </mxCell>
        <mxCell id="32MBrHUGP2S-G-w69w53-203" value="NgayKetThuc" style="text;strokeColor=none;fillColor=none;align=left;verticalAlign=middle;spacingLeft=4;spacingRight=4;overflow=hidden;points=[[0,0.5],[1,0.5]];portConstraint=eastwest;rotatable=0;whiteSpace=wrap;html=1;fontSize=14;" parent="32MBrHUGP2S-G-w69w53-200" vertex="1">
          <mxGeometry y="90" width="140" height="30" as="geometry" />
        </mxCell>
        <mxCell id="32MBrHUGP2S-G-w69w53-204" value="&lt;b style=&quot;border-color: var(--border-color);&quot;&gt;Dim_DonGia&lt;/b&gt;" style="swimlane;fontStyle=0;childLayout=stackLayout;horizontal=1;startSize=30;horizontalStack=0;resizeParent=1;resizeParentMax=0;resizeLast=0;collapsible=1;marginBottom=0;whiteSpace=wrap;html=1;fontSize=14;" parent="1" vertex="1">
          <mxGeometry x="687" y="1610" width="140" height="90" as="geometry" />
        </mxCell>
        <mxCell id="32MBrHUGP2S-G-w69w53-205" value="&lt;b&gt;&lt;u&gt;LoaiMH&lt;/u&gt;&lt;/b&gt;" style="text;strokeColor=none;fillColor=none;align=left;verticalAlign=middle;spacingLeft=4;spacingRight=4;overflow=hidden;points=[[0,0.5],[1,0.5]];portConstraint=eastwest;rotatable=0;whiteSpace=wrap;html=1;fontSize=14;" parent="32MBrHUGP2S-G-w69w53-204" vertex="1">
          <mxGeometry y="30" width="140" height="30" as="geometry" />
        </mxCell>
        <mxCell id="32MBrHUGP2S-G-w69w53-206" value="DonGia" style="text;strokeColor=none;fillColor=none;align=left;verticalAlign=middle;spacingLeft=4;spacingRight=4;overflow=hidden;points=[[0,0.5],[1,0.5]];portConstraint=eastwest;rotatable=0;whiteSpace=wrap;html=1;fontSize=14;" parent="32MBrHUGP2S-G-w69w53-204" vertex="1">
          <mxGeometry y="60" width="140" height="30" as="geometry" />
        </mxCell>
        <mxCell id="32MBrHUGP2S-G-w69w53-207" style="edgeStyle=orthogonalEdgeStyle;rounded=0;orthogonalLoop=1;jettySize=auto;html=1;exitX=0;exitY=0.5;exitDx=0;exitDy=0;entryX=1;entryY=0.5;entryDx=0;entryDy=0;" parent="1" source="32MBrHUGP2S-G-w69w53-202" target="32MBrHUGP2S-G-w69w53-184" edge="1">
          <mxGeometry relative="1" as="geometry" />
        </mxCell>
        <mxCell id="32MBrHUGP2S-G-w69w53-208" style="edgeStyle=orthogonalEdgeStyle;rounded=0;orthogonalLoop=1;jettySize=auto;html=1;exitX=0;exitY=0.5;exitDx=0;exitDy=0;" parent="1" source="32MBrHUGP2S-G-w69w53-177" target="32MBrHUGP2S-G-w69w53-187" edge="1">
          <mxGeometry relative="1" as="geometry" />
        </mxCell>
        <mxCell id="32MBrHUGP2S-G-w69w53-209" style="edgeStyle=orthogonalEdgeStyle;rounded=0;orthogonalLoop=1;jettySize=auto;html=1;exitX=1;exitY=0.5;exitDx=0;exitDy=0;entryX=0;entryY=0.5;entryDx=0;entryDy=0;" parent="1" source="32MBrHUGP2S-G-w69w53-195" target="32MBrHUGP2S-G-w69w53-181" edge="1">
          <mxGeometry relative="1" as="geometry" />
        </mxCell>
        <mxCell id="32MBrHUGP2S-G-w69w53-212" value="DDS" style="text;html=1;align=center;verticalAlign=middle;resizable=0;points=[];autosize=1;strokeColor=none;fillColor=none;" parent="1" vertex="1">
          <mxGeometry x="280" y="670" width="50" height="30" as="geometry" />
        </mxCell>
        <mxCell id="32MBrHUGP2S-G-w69w53-214" value="NDS" style="text;html=1;align=center;verticalAlign=middle;resizable=0;points=[];autosize=1;strokeColor=none;fillColor=none;" parent="1" vertex="1">
          <mxGeometry x="205" y="1290" width="50" height="30" as="geometry" />
        </mxCell>
        <mxCell id="32MBrHUGP2S-G-w69w53-216" style="edgeStyle=orthogonalEdgeStyle;rounded=0;orthogonalLoop=1;jettySize=auto;html=1;exitX=0;exitY=0.5;exitDx=0;exitDy=0;entryX=1;entryY=0.5;entryDx=0;entryDy=0;" parent="1" source="32MBrHUGP2S-G-w69w53-211" target="32MBrHUGP2S-G-w69w53-177" edge="1">
          <mxGeometry relative="1" as="geometry" />
        </mxCell>
        <mxCell id="32MBrHUGP2S-G-w69w53-217" style="edgeStyle=orthogonalEdgeStyle;rounded=0;orthogonalLoop=1;jettySize=auto;html=1;exitX=0;exitY=0.5;exitDx=0;exitDy=0;entryX=1;entryY=0.5;entryDx=0;entryDy=0;" parent="1" source="32MBrHUGP2S-G-w69w53-205" target="32MBrHUGP2S-G-w69w53-199" edge="1">
          <mxGeometry relative="1" as="geometry" />
        </mxCell>
      </root>
    </mxGraphModel>
  </diagram>
  <diagram id="4bxkmBpHQjVAq0hN3Yki" name="1e">
    <mxGraphModel dx="596" dy="425" grid="1" gridSize="10" guides="1" tooltips="1" connect="1" arrows="1" fold="1" page="1" pageScale="1" pageWidth="850" pageHeight="1100" math="0" shadow="0">
      <root>
        <mxCell id="0" />
        <mxCell id="1" parent="0" />
        <mxCell id="BNDsPz6uWOse8F-yXVrc-6" value="FACT_CAU1E" style="shape=table;startSize=30;container=1;collapsible=1;childLayout=tableLayout;fixedRows=1;rowLines=0;fontStyle=1;align=center;resizeLast=1;html=1;fontSize=14;" parent="1" vertex="1">
          <mxGeometry x="340" y="760" width="180" height="152" as="geometry" />
        </mxCell>
        <mxCell id="BNDsPz6uWOse8F-yXVrc-7" value="" style="shape=tableRow;horizontal=0;startSize=0;swimlaneHead=0;swimlaneBody=0;fillColor=none;collapsible=0;dropTarget=0;points=[[0,0.5],[1,0.5]];portConstraint=eastwest;top=0;left=0;right=0;bottom=1;fontSize=14;" parent="BNDsPz6uWOse8F-yXVrc-6" vertex="1">
          <mxGeometry y="30" width="180" height="30" as="geometry" />
        </mxCell>
        <mxCell id="BNDsPz6uWOse8F-yXVrc-8" value="FK" style="shape=partialRectangle;connectable=0;fillColor=none;top=0;left=0;bottom=0;right=0;fontStyle=1;overflow=hidden;whiteSpace=wrap;html=1;fontSize=14;" parent="BNDsPz6uWOse8F-yXVrc-7" vertex="1">
          <mxGeometry width="31" height="30" as="geometry">
            <mxRectangle width="31" height="30" as="alternateBounds" />
          </mxGeometry>
        </mxCell>
        <mxCell id="BNDsPz6uWOse8F-yXVrc-9" value="&lt;b style=&quot;border-color: var(--border-color); font-size: 14px;&quot;&gt;&lt;u style=&quot;border-color: var(--border-color); font-size: 14px;&quot;&gt;MaGV&lt;/u&gt;&lt;/b&gt;" style="shape=partialRectangle;connectable=0;fillColor=none;top=0;left=0;bottom=0;right=0;align=left;spacingLeft=6;fontStyle=5;overflow=hidden;whiteSpace=wrap;html=1;fontSize=14;" parent="BNDsPz6uWOse8F-yXVrc-7" vertex="1">
          <mxGeometry x="31" width="149" height="30" as="geometry">
            <mxRectangle width="149" height="30" as="alternateBounds" />
          </mxGeometry>
        </mxCell>
        <mxCell id="BNDsPz6uWOse8F-yXVrc-10" value="" style="shape=tableRow;horizontal=0;startSize=0;swimlaneHead=0;swimlaneBody=0;fillColor=none;collapsible=0;dropTarget=0;points=[[0,0.5],[1,0.5]];portConstraint=eastwest;top=0;left=0;right=0;bottom=1;fontSize=14;" parent="BNDsPz6uWOse8F-yXVrc-6" vertex="1">
          <mxGeometry y="60" width="180" height="30" as="geometry" />
        </mxCell>
        <mxCell id="BNDsPz6uWOse8F-yXVrc-11" value="FK" style="shape=partialRectangle;connectable=0;fillColor=none;top=0;left=0;bottom=0;right=0;fontStyle=1;overflow=hidden;whiteSpace=wrap;html=1;fontSize=14;" parent="BNDsPz6uWOse8F-yXVrc-10" vertex="1">
          <mxGeometry width="31" height="30" as="geometry">
            <mxRectangle width="31" height="30" as="alternateBounds" />
          </mxGeometry>
        </mxCell>
        <mxCell id="BNDsPz6uWOse8F-yXVrc-12" value="&lt;b style=&quot;border-color: var(--border-color); font-size: 14px;&quot;&gt;&lt;u style=&quot;border-color: var(--border-color); font-size: 14px;&quot;&gt;MaMH&lt;/u&gt;&lt;/b&gt;" style="shape=partialRectangle;connectable=0;fillColor=none;top=0;left=0;bottom=0;right=0;align=left;spacingLeft=6;fontStyle=5;overflow=hidden;whiteSpace=wrap;html=1;fontSize=14;" parent="BNDsPz6uWOse8F-yXVrc-10" vertex="1">
          <mxGeometry x="31" width="149" height="30" as="geometry">
            <mxRectangle width="149" height="30" as="alternateBounds" />
          </mxGeometry>
        </mxCell>
        <mxCell id="BNDsPz6uWOse8F-yXVrc-13" value="" style="shape=tableRow;horizontal=0;startSize=0;swimlaneHead=0;swimlaneBody=0;fillColor=none;collapsible=0;dropTarget=0;points=[[0,0.5],[1,0.5]];portConstraint=eastwest;top=0;left=0;right=0;bottom=1;fontSize=14;" parent="BNDsPz6uWOse8F-yXVrc-6" vertex="1">
          <mxGeometry y="90" width="180" height="30" as="geometry" />
        </mxCell>
        <mxCell id="BNDsPz6uWOse8F-yXVrc-14" value="FK" style="shape=partialRectangle;connectable=0;fillColor=none;top=0;left=0;bottom=0;right=0;fontStyle=1;overflow=hidden;whiteSpace=wrap;html=1;fontSize=14;" parent="BNDsPz6uWOse8F-yXVrc-13" vertex="1">
          <mxGeometry width="31" height="30" as="geometry">
            <mxRectangle width="31" height="30" as="alternateBounds" />
          </mxGeometry>
        </mxCell>
        <mxCell id="BNDsPz6uWOse8F-yXVrc-15" value="&lt;u style=&quot;border-color: var(--border-color); font-size: 14px; font-weight: 400;&quot;&gt;&lt;b style=&quot;border-color: var(--border-color); font-size: 14px;&quot;&gt;NamHoc&lt;/b&gt;&lt;/u&gt;" style="shape=partialRectangle;connectable=0;fillColor=none;top=0;left=0;bottom=0;right=0;align=left;spacingLeft=6;fontStyle=5;overflow=hidden;whiteSpace=wrap;html=1;fontSize=14;" parent="BNDsPz6uWOse8F-yXVrc-13" vertex="1">
          <mxGeometry x="31" width="149" height="30" as="geometry">
            <mxRectangle width="149" height="30" as="alternateBounds" />
          </mxGeometry>
        </mxCell>
        <mxCell id="BNDsPz6uWOse8F-yXVrc-27" value="&lt;b style=&quot;font-size: 14px;&quot;&gt;Dim_NamHoc&lt;/b&gt;" style="swimlane;fontStyle=0;childLayout=stackLayout;horizontal=1;startSize=30;horizontalStack=0;resizeParent=1;resizeParentMax=0;resizeLast=0;collapsible=1;marginBottom=0;whiteSpace=wrap;html=1;fontSize=14;" parent="1" vertex="1">
          <mxGeometry x="621" y="660" width="140" height="120" as="geometry" />
        </mxCell>
        <mxCell id="MFQGFgA-p1u-WEqwgYEl-1" value="NamHoc" style="text;strokeColor=none;fillColor=none;align=left;verticalAlign=middle;spacingLeft=4;spacingRight=4;overflow=hidden;points=[[0,0.5],[1,0.5]];portConstraint=eastwest;rotatable=0;whiteSpace=wrap;html=1;fontSize=14;fontStyle=5" vertex="1" parent="BNDsPz6uWOse8F-yXVrc-27">
          <mxGeometry y="30" width="140" height="30" as="geometry" />
        </mxCell>
        <mxCell id="BNDsPz6uWOse8F-yXVrc-29" value="NgayBatDau" style="text;strokeColor=none;fillColor=none;align=left;verticalAlign=middle;spacingLeft=4;spacingRight=4;overflow=hidden;points=[[0,0.5],[1,0.5]];portConstraint=eastwest;rotatable=0;whiteSpace=wrap;html=1;fontSize=14;" parent="BNDsPz6uWOse8F-yXVrc-27" vertex="1">
          <mxGeometry y="60" width="140" height="30" as="geometry" />
        </mxCell>
        <mxCell id="BNDsPz6uWOse8F-yXVrc-30" value="NgayKetThuc" style="text;strokeColor=none;fillColor=none;align=left;verticalAlign=middle;spacingLeft=4;spacingRight=4;overflow=hidden;points=[[0,0.5],[1,0.5]];portConstraint=eastwest;rotatable=0;whiteSpace=wrap;html=1;fontSize=14;" parent="BNDsPz6uWOse8F-yXVrc-27" vertex="1">
          <mxGeometry y="90" width="140" height="30" as="geometry" />
        </mxCell>
        <mxCell id="BNDsPz6uWOse8F-yXVrc-19" value="&lt;span style=&quot;font-size: 14px;&quot;&gt;ThuLao&lt;/span&gt;" style="text;html=1;align=center;verticalAlign=middle;resizable=0;points=[];autosize=1;strokeColor=none;fillColor=none;" parent="1" vertex="1">
          <mxGeometry x="390" y="882" width="70" height="30" as="geometry" />
        </mxCell>
        <mxCell id="BNDsPz6uWOse8F-yXVrc-22" style="edgeStyle=orthogonalEdgeStyle;rounded=0;orthogonalLoop=1;jettySize=auto;html=1;exitX=0.5;exitY=0;exitDx=0;exitDy=0;" parent="1" source="BNDsPz6uWOse8F-yXVrc-23" target="BNDsPz6uWOse8F-yXVrc-10" edge="1">
          <mxGeometry relative="1" as="geometry" />
        </mxCell>
        <mxCell id="BNDsPz6uWOse8F-yXVrc-35" style="edgeStyle=orthogonalEdgeStyle;rounded=0;orthogonalLoop=1;jettySize=auto;html=1;exitX=0;exitY=0.5;exitDx=0;exitDy=0;entryX=1;entryY=0.5;entryDx=0;entryDy=0;" parent="1" source="BNDsPz6uWOse8F-yXVrc-29" target="BNDsPz6uWOse8F-yXVrc-13" edge="1">
          <mxGeometry relative="1" as="geometry" />
        </mxCell>
        <mxCell id="BNDsPz6uWOse8F-yXVrc-23" value="&lt;b style=&quot;border-color: var(--border-color);&quot;&gt;Dim_MonHoc&lt;/b&gt;" style="swimlane;fontStyle=0;childLayout=stackLayout;horizontal=1;startSize=30;horizontalStack=0;resizeParent=1;resizeParentMax=0;resizeLast=0;collapsible=1;marginBottom=0;whiteSpace=wrap;html=1;fontSize=14;" parent="1" vertex="1">
          <mxGeometry x="90" y="900" width="140" height="120" as="geometry" />
        </mxCell>
        <mxCell id="BNDsPz6uWOse8F-yXVrc-24" value="&lt;b style=&quot;font-size: 14px;&quot;&gt;&lt;u style=&quot;font-size: 14px;&quot;&gt;MaMH&lt;/u&gt;&lt;/b&gt;" style="text;strokeColor=none;fillColor=none;align=left;verticalAlign=middle;spacingLeft=4;spacingRight=4;overflow=hidden;points=[[0,0.5],[1,0.5]];portConstraint=eastwest;rotatable=0;whiteSpace=wrap;html=1;fontSize=14;" parent="BNDsPz6uWOse8F-yXVrc-23" vertex="1">
          <mxGeometry y="30" width="140" height="30" as="geometry" />
        </mxCell>
        <mxCell id="BNDsPz6uWOse8F-yXVrc-25" value="TenMH" style="text;strokeColor=none;fillColor=none;align=left;verticalAlign=middle;spacingLeft=4;spacingRight=4;overflow=hidden;points=[[0,0.5],[1,0.5]];portConstraint=eastwest;rotatable=0;whiteSpace=wrap;html=1;fontSize=14;" parent="BNDsPz6uWOse8F-yXVrc-23" vertex="1">
          <mxGeometry y="60" width="140" height="30" as="geometry" />
        </mxCell>
        <mxCell id="BNDsPz6uWOse8F-yXVrc-26" value="LoaiMH" style="text;strokeColor=none;fillColor=none;align=left;verticalAlign=middle;spacingLeft=4;spacingRight=4;overflow=hidden;points=[[0,0.5],[1,0.5]];portConstraint=eastwest;rotatable=0;whiteSpace=wrap;html=1;fontSize=14;" parent="BNDsPz6uWOse8F-yXVrc-23" vertex="1">
          <mxGeometry y="90" width="140" height="30" as="geometry" />
        </mxCell>
        <mxCell id="BNDsPz6uWOse8F-yXVrc-31" value="&lt;ul style=&quot;-webkit-tap-highlight-color: transparent; list-style: disc; margin: 1em 0px; padding: 0px 0px 0px 40px; color: rgb(60, 64, 67); font-family: Roboto, Arial, sans-serif; font-size: 14px; font-style: normal; font-variant-ligatures: normal; font-variant-caps: normal; letter-spacing: 0.2px; orphans: 2; text-align: start; text-indent: 0px; text-transform: none; widows: 2; word-spacing: 0px; -webkit-text-stroke-width: 0px; text-decoration-thickness: initial; text-decoration-style: initial; text-decoration-color: initial;&quot;&gt;&lt;li style=&quot;-webkit-tap-highlight-color: transparent;&quot;&gt;So sánh thù lao dạy của mỗi năm&lt;/li&gt;&lt;/ul&gt;" style="text;whiteSpace=wrap;html=1;fontStyle=1" parent="1" vertex="1">
          <mxGeometry x="80" y="560" width="560" height="90" as="geometry" />
        </mxCell>
        <mxCell id="BNDsPz6uWOse8F-yXVrc-32" value="&lt;b style=&quot;border-color: var(--border-color);&quot;&gt;Dim_DonGia&lt;/b&gt;" style="swimlane;fontStyle=0;childLayout=stackLayout;horizontal=1;startSize=30;horizontalStack=0;resizeParent=1;resizeParentMax=0;resizeLast=0;collapsible=1;marginBottom=0;whiteSpace=wrap;html=1;fontSize=14;" parent="1" vertex="1">
          <mxGeometry x="344" y="1030" width="140" height="90" as="geometry" />
        </mxCell>
        <mxCell id="BNDsPz6uWOse8F-yXVrc-33" value="&lt;b&gt;&lt;u&gt;LoaiMH&lt;/u&gt;&lt;/b&gt;" style="text;strokeColor=none;fillColor=none;align=left;verticalAlign=middle;spacingLeft=4;spacingRight=4;overflow=hidden;points=[[0,0.5],[1,0.5]];portConstraint=eastwest;rotatable=0;whiteSpace=wrap;html=1;fontSize=14;" parent="BNDsPz6uWOse8F-yXVrc-32" vertex="1">
          <mxGeometry y="30" width="140" height="30" as="geometry" />
        </mxCell>
        <mxCell id="BNDsPz6uWOse8F-yXVrc-34" value="DonGia" style="text;strokeColor=none;fillColor=none;align=left;verticalAlign=middle;spacingLeft=4;spacingRight=4;overflow=hidden;points=[[0,0.5],[1,0.5]];portConstraint=eastwest;rotatable=0;whiteSpace=wrap;html=1;fontSize=14;" parent="BNDsPz6uWOse8F-yXVrc-32" vertex="1">
          <mxGeometry y="60" width="140" height="30" as="geometry" />
        </mxCell>
        <mxCell id="BNDsPz6uWOse8F-yXVrc-38" style="edgeStyle=orthogonalEdgeStyle;rounded=0;orthogonalLoop=1;jettySize=auto;html=1;exitX=0;exitY=0.5;exitDx=0;exitDy=0;entryX=1;entryY=0.5;entryDx=0;entryDy=0;" parent="1" source="BNDsPz6uWOse8F-yXVrc-33" target="BNDsPz6uWOse8F-yXVrc-26" edge="1">
          <mxGeometry relative="1" as="geometry" />
        </mxCell>
        <mxCell id="BNDsPz6uWOse8F-yXVrc-44" value="FACT_CAU1E" style="shape=table;startSize=30;container=1;collapsible=1;childLayout=tableLayout;fixedRows=1;rowLines=0;fontStyle=1;align=center;resizeLast=1;html=1;fontSize=14;" parent="1" vertex="1">
          <mxGeometry x="340" y="1380" width="180" height="152" as="geometry" />
        </mxCell>
        <mxCell id="BNDsPz6uWOse8F-yXVrc-45" value="" style="shape=tableRow;horizontal=0;startSize=0;swimlaneHead=0;swimlaneBody=0;fillColor=none;collapsible=0;dropTarget=0;points=[[0,0.5],[1,0.5]];portConstraint=eastwest;top=0;left=0;right=0;bottom=1;fontSize=14;" parent="BNDsPz6uWOse8F-yXVrc-44" vertex="1">
          <mxGeometry y="30" width="180" height="30" as="geometry" />
        </mxCell>
        <mxCell id="BNDsPz6uWOse8F-yXVrc-46" value="FK" style="shape=partialRectangle;connectable=0;fillColor=none;top=0;left=0;bottom=0;right=0;fontStyle=1;overflow=hidden;whiteSpace=wrap;html=1;fontSize=14;" parent="BNDsPz6uWOse8F-yXVrc-45" vertex="1">
          <mxGeometry width="31" height="30" as="geometry">
            <mxRectangle width="31" height="30" as="alternateBounds" />
          </mxGeometry>
        </mxCell>
        <mxCell id="BNDsPz6uWOse8F-yXVrc-47" value="&lt;b style=&quot;border-color: var(--border-color); font-size: 14px;&quot;&gt;&lt;u style=&quot;border-color: var(--border-color); font-size: 14px;&quot;&gt;MaGV&lt;/u&gt;&lt;/b&gt;" style="shape=partialRectangle;connectable=0;fillColor=none;top=0;left=0;bottom=0;right=0;align=left;spacingLeft=6;fontStyle=5;overflow=hidden;whiteSpace=wrap;html=1;fontSize=14;" parent="BNDsPz6uWOse8F-yXVrc-45" vertex="1">
          <mxGeometry x="31" width="149" height="30" as="geometry">
            <mxRectangle width="149" height="30" as="alternateBounds" />
          </mxGeometry>
        </mxCell>
        <mxCell id="BNDsPz6uWOse8F-yXVrc-48" value="" style="shape=tableRow;horizontal=0;startSize=0;swimlaneHead=0;swimlaneBody=0;fillColor=none;collapsible=0;dropTarget=0;points=[[0,0.5],[1,0.5]];portConstraint=eastwest;top=0;left=0;right=0;bottom=1;fontSize=14;" parent="BNDsPz6uWOse8F-yXVrc-44" vertex="1">
          <mxGeometry y="60" width="180" height="30" as="geometry" />
        </mxCell>
        <mxCell id="BNDsPz6uWOse8F-yXVrc-49" value="FK" style="shape=partialRectangle;connectable=0;fillColor=none;top=0;left=0;bottom=0;right=0;fontStyle=1;overflow=hidden;whiteSpace=wrap;html=1;fontSize=14;" parent="BNDsPz6uWOse8F-yXVrc-48" vertex="1">
          <mxGeometry width="31" height="30" as="geometry">
            <mxRectangle width="31" height="30" as="alternateBounds" />
          </mxGeometry>
        </mxCell>
        <mxCell id="BNDsPz6uWOse8F-yXVrc-50" value="&lt;u style=&quot;border-color: var(--border-color); font-size: 14px; font-weight: 400;&quot;&gt;&lt;b style=&quot;border-color: var(--border-color); font-size: 14px;&quot;&gt;NamHoc&lt;/b&gt;&lt;/u&gt;" style="shape=partialRectangle;connectable=0;fillColor=none;top=0;left=0;bottom=0;right=0;align=left;spacingLeft=6;fontStyle=5;overflow=hidden;whiteSpace=wrap;html=1;fontSize=14;" parent="BNDsPz6uWOse8F-yXVrc-48" vertex="1">
          <mxGeometry x="31" width="149" height="30" as="geometry">
            <mxRectangle width="149" height="30" as="alternateBounds" />
          </mxGeometry>
        </mxCell>
        <mxCell id="BNDsPz6uWOse8F-yXVrc-51" value="" style="shape=tableRow;horizontal=0;startSize=0;swimlaneHead=0;swimlaneBody=0;fillColor=none;collapsible=0;dropTarget=0;points=[[0,0.5],[1,0.5]];portConstraint=eastwest;top=0;left=0;right=0;bottom=1;fontSize=14;" parent="BNDsPz6uWOse8F-yXVrc-44" vertex="1">
          <mxGeometry y="90" width="180" height="30" as="geometry" />
        </mxCell>
        <mxCell id="BNDsPz6uWOse8F-yXVrc-52" value="FK" style="shape=partialRectangle;connectable=0;fillColor=none;top=0;left=0;bottom=0;right=0;fontStyle=1;overflow=hidden;whiteSpace=wrap;html=1;fontSize=14;" parent="BNDsPz6uWOse8F-yXVrc-51" vertex="1">
          <mxGeometry width="31" height="30" as="geometry">
            <mxRectangle width="31" height="30" as="alternateBounds" />
          </mxGeometry>
        </mxCell>
        <mxCell id="BNDsPz6uWOse8F-yXVrc-53" value="&lt;b style=&quot;border-color: var(--border-color); font-size: 14px;&quot;&gt;&lt;u style=&quot;border-color: var(--border-color); font-size: 14px;&quot;&gt;HocKi&lt;/u&gt;&lt;/b&gt;" style="shape=partialRectangle;connectable=0;fillColor=none;top=0;left=0;bottom=0;right=0;align=left;spacingLeft=6;fontStyle=5;overflow=hidden;whiteSpace=wrap;html=1;fontSize=14;" parent="BNDsPz6uWOse8F-yXVrc-51" vertex="1">
          <mxGeometry x="31" width="149" height="30" as="geometry">
            <mxRectangle width="149" height="30" as="alternateBounds" />
          </mxGeometry>
        </mxCell>
        <mxCell id="BNDsPz6uWOse8F-yXVrc-54" value="&lt;span style=&quot;font-size: 14px;&quot;&gt;ThuLao&lt;/span&gt;" style="text;html=1;align=center;verticalAlign=middle;resizable=0;points=[];autosize=1;strokeColor=none;fillColor=none;" parent="1" vertex="1">
          <mxGeometry x="394" y="1500" width="70" height="30" as="geometry" />
        </mxCell>
        <mxCell id="BNDsPz6uWOse8F-yXVrc-57" value="&lt;b style=&quot;border-color: var(--border-color);&quot;&gt;Dim_MonHoc&lt;/b&gt;" style="swimlane;fontStyle=0;childLayout=stackLayout;horizontal=1;startSize=30;horizontalStack=0;resizeParent=1;resizeParentMax=0;resizeLast=0;collapsible=1;marginBottom=0;whiteSpace=wrap;html=1;fontSize=14;" parent="1" vertex="1">
          <mxGeometry x="470" y="1604" width="140" height="150" as="geometry" />
        </mxCell>
        <mxCell id="BNDsPz6uWOse8F-yXVrc-58" value="&lt;b style=&quot;font-size: 14px;&quot;&gt;&lt;u style=&quot;font-size: 14px;&quot;&gt;MaMH&lt;/u&gt;&lt;/b&gt;" style="text;strokeColor=none;fillColor=none;align=left;verticalAlign=middle;spacingLeft=4;spacingRight=4;overflow=hidden;points=[[0,0.5],[1,0.5]];portConstraint=eastwest;rotatable=0;whiteSpace=wrap;html=1;fontSize=14;" parent="BNDsPz6uWOse8F-yXVrc-57" vertex="1">
          <mxGeometry y="30" width="140" height="30" as="geometry" />
        </mxCell>
        <mxCell id="BNDsPz6uWOse8F-yXVrc-59" value="TenMH" style="text;strokeColor=none;fillColor=none;align=left;verticalAlign=middle;spacingLeft=4;spacingRight=4;overflow=hidden;points=[[0,0.5],[1,0.5]];portConstraint=eastwest;rotatable=0;whiteSpace=wrap;html=1;fontSize=14;" parent="BNDsPz6uWOse8F-yXVrc-57" vertex="1">
          <mxGeometry y="60" width="140" height="30" as="geometry" />
        </mxCell>
        <mxCell id="BNDsPz6uWOse8F-yXVrc-60" value="HocKy" style="text;strokeColor=none;fillColor=none;align=left;verticalAlign=middle;spacingLeft=4;spacingRight=4;overflow=hidden;points=[[0,0.5],[1,0.5]];portConstraint=eastwest;rotatable=0;whiteSpace=wrap;html=1;fontSize=14;" parent="BNDsPz6uWOse8F-yXVrc-57" vertex="1">
          <mxGeometry y="90" width="140" height="30" as="geometry" />
        </mxCell>
        <mxCell id="BNDsPz6uWOse8F-yXVrc-61" value="LoaiMH" style="text;strokeColor=none;fillColor=none;align=left;verticalAlign=middle;spacingLeft=4;spacingRight=4;overflow=hidden;points=[[0,0.5],[1,0.5]];portConstraint=eastwest;rotatable=0;whiteSpace=wrap;html=1;fontSize=14;" parent="BNDsPz6uWOse8F-yXVrc-57" vertex="1">
          <mxGeometry y="120" width="140" height="30" as="geometry" />
        </mxCell>
        <mxCell id="BNDsPz6uWOse8F-yXVrc-62" value="&lt;b style=&quot;font-size: 14px;&quot;&gt;Dim_NamHoc&lt;/b&gt;" style="swimlane;fontStyle=0;childLayout=stackLayout;horizontal=1;startSize=30;horizontalStack=0;resizeParent=1;resizeParentMax=0;resizeLast=0;collapsible=1;marginBottom=0;whiteSpace=wrap;html=1;fontSize=14;" parent="1" vertex="1">
          <mxGeometry x="640" y="1380" width="140" height="120" as="geometry" />
        </mxCell>
        <mxCell id="BNDsPz6uWOse8F-yXVrc-63" value="&lt;b&gt;&lt;u&gt;NamHoc&lt;/u&gt;&lt;/b&gt;" style="text;strokeColor=none;fillColor=none;align=left;verticalAlign=middle;spacingLeft=4;spacingRight=4;overflow=hidden;points=[[0,0.5],[1,0.5]];portConstraint=eastwest;rotatable=0;whiteSpace=wrap;html=1;fontSize=14;" parent="BNDsPz6uWOse8F-yXVrc-62" vertex="1">
          <mxGeometry y="30" width="140" height="30" as="geometry" />
        </mxCell>
        <mxCell id="BNDsPz6uWOse8F-yXVrc-64" value="NgayBatDau" style="text;strokeColor=none;fillColor=none;align=left;verticalAlign=middle;spacingLeft=4;spacingRight=4;overflow=hidden;points=[[0,0.5],[1,0.5]];portConstraint=eastwest;rotatable=0;whiteSpace=wrap;html=1;fontSize=14;" parent="BNDsPz6uWOse8F-yXVrc-62" vertex="1">
          <mxGeometry y="60" width="140" height="30" as="geometry" />
        </mxCell>
        <mxCell id="BNDsPz6uWOse8F-yXVrc-65" value="NgayKetThuc" style="text;strokeColor=none;fillColor=none;align=left;verticalAlign=middle;spacingLeft=4;spacingRight=4;overflow=hidden;points=[[0,0.5],[1,0.5]];portConstraint=eastwest;rotatable=0;whiteSpace=wrap;html=1;fontSize=14;" parent="BNDsPz6uWOse8F-yXVrc-62" vertex="1">
          <mxGeometry y="90" width="140" height="30" as="geometry" />
        </mxCell>
        <mxCell id="BNDsPz6uWOse8F-yXVrc-66" value="&lt;b style=&quot;border-color: var(--border-color);&quot;&gt;Dim_DonGia&lt;/b&gt;" style="swimlane;fontStyle=0;childLayout=stackLayout;horizontal=1;startSize=30;horizontalStack=0;resizeParent=1;resizeParentMax=0;resizeLast=0;collapsible=1;marginBottom=0;whiteSpace=wrap;html=1;fontSize=14;" parent="1" vertex="1">
          <mxGeometry x="687" y="1610" width="140" height="90" as="geometry" />
        </mxCell>
        <mxCell id="BNDsPz6uWOse8F-yXVrc-67" value="&lt;b&gt;&lt;u&gt;LoaiMH&lt;/u&gt;&lt;/b&gt;" style="text;strokeColor=none;fillColor=none;align=left;verticalAlign=middle;spacingLeft=4;spacingRight=4;overflow=hidden;points=[[0,0.5],[1,0.5]];portConstraint=eastwest;rotatable=0;whiteSpace=wrap;html=1;fontSize=14;" parent="BNDsPz6uWOse8F-yXVrc-66" vertex="1">
          <mxGeometry y="30" width="140" height="30" as="geometry" />
        </mxCell>
        <mxCell id="BNDsPz6uWOse8F-yXVrc-68" value="DonGia" style="text;strokeColor=none;fillColor=none;align=left;verticalAlign=middle;spacingLeft=4;spacingRight=4;overflow=hidden;points=[[0,0.5],[1,0.5]];portConstraint=eastwest;rotatable=0;whiteSpace=wrap;html=1;fontSize=14;" parent="BNDsPz6uWOse8F-yXVrc-66" vertex="1">
          <mxGeometry y="60" width="140" height="30" as="geometry" />
        </mxCell>
        <mxCell id="BNDsPz6uWOse8F-yXVrc-69" style="edgeStyle=orthogonalEdgeStyle;rounded=0;orthogonalLoop=1;jettySize=auto;html=1;exitX=0;exitY=0.5;exitDx=0;exitDy=0;entryX=1;entryY=0.5;entryDx=0;entryDy=0;" parent="1" source="BNDsPz6uWOse8F-yXVrc-64" target="BNDsPz6uWOse8F-yXVrc-48" edge="1">
          <mxGeometry relative="1" as="geometry" />
        </mxCell>
        <mxCell id="BNDsPz6uWOse8F-yXVrc-72" value="DDS" style="text;html=1;align=center;verticalAlign=middle;resizable=0;points=[];autosize=1;strokeColor=none;fillColor=none;" parent="1" vertex="1">
          <mxGeometry x="280" y="670" width="50" height="30" as="geometry" />
        </mxCell>
        <mxCell id="BNDsPz6uWOse8F-yXVrc-73" value="NDS" style="text;html=1;align=center;verticalAlign=middle;resizable=0;points=[];autosize=1;strokeColor=none;fillColor=none;" parent="1" vertex="1">
          <mxGeometry x="205" y="1290" width="50" height="30" as="geometry" />
        </mxCell>
        <mxCell id="BNDsPz6uWOse8F-yXVrc-74" style="edgeStyle=orthogonalEdgeStyle;rounded=0;orthogonalLoop=1;jettySize=auto;html=1;exitX=0;exitY=0.5;exitDx=0;exitDy=0;entryX=0.5;entryY=1;entryDx=0;entryDy=0;" parent="1" source="BNDsPz6uWOse8F-yXVrc-60" target="BNDsPz6uWOse8F-yXVrc-44" edge="1">
          <mxGeometry relative="1" as="geometry">
            <mxPoint x="430" y="1550" as="targetPoint" />
          </mxGeometry>
        </mxCell>
        <mxCell id="BNDsPz6uWOse8F-yXVrc-75" style="edgeStyle=orthogonalEdgeStyle;rounded=0;orthogonalLoop=1;jettySize=auto;html=1;exitX=0;exitY=0.5;exitDx=0;exitDy=0;entryX=1;entryY=0.5;entryDx=0;entryDy=0;" parent="1" source="BNDsPz6uWOse8F-yXVrc-67" target="BNDsPz6uWOse8F-yXVrc-61" edge="1">
          <mxGeometry relative="1" as="geometry" />
        </mxCell>
        <mxCell id="0gFQtnNJmAbqzq2pZSLa-1" value="&lt;b style=&quot;font-size: 14px;&quot;&gt;GiangVien&lt;/b&gt;" style="swimlane;fontStyle=0;childLayout=stackLayout;horizontal=1;startSize=30;horizontalStack=0;resizeParent=1;resizeParentMax=0;resizeLast=0;collapsible=1;marginBottom=0;whiteSpace=wrap;html=1;fontSize=14;" parent="1" vertex="1">
          <mxGeometry x="90" y="630" width="140" height="150" as="geometry" />
        </mxCell>
        <mxCell id="0gFQtnNJmAbqzq2pZSLa-2" value="&lt;b style=&quot;font-size: 14px;&quot;&gt;&lt;u style=&quot;font-size: 14px;&quot;&gt;MaGV&lt;/u&gt;&lt;/b&gt;" style="text;strokeColor=none;fillColor=none;align=left;verticalAlign=middle;spacingLeft=4;spacingRight=4;overflow=hidden;points=[[0,0.5],[1,0.5]];portConstraint=eastwest;rotatable=0;whiteSpace=wrap;html=1;fontSize=14;" parent="0gFQtnNJmAbqzq2pZSLa-1" vertex="1">
          <mxGeometry y="30" width="140" height="30" as="geometry" />
        </mxCell>
        <mxCell id="0gFQtnNJmAbqzq2pZSLa-3" value="TenGV" style="text;strokeColor=none;fillColor=none;align=left;verticalAlign=middle;spacingLeft=4;spacingRight=4;overflow=hidden;points=[[0,0.5],[1,0.5]];portConstraint=eastwest;rotatable=0;whiteSpace=wrap;html=1;fontSize=14;" parent="0gFQtnNJmAbqzq2pZSLa-1" vertex="1">
          <mxGeometry y="60" width="140" height="30" as="geometry" />
        </mxCell>
        <mxCell id="0gFQtnNJmAbqzq2pZSLa-4" value="Email" style="text;strokeColor=none;fillColor=none;align=left;verticalAlign=middle;spacingLeft=4;spacingRight=4;overflow=hidden;points=[[0,0.5],[1,0.5]];portConstraint=eastwest;rotatable=0;whiteSpace=wrap;html=1;fontSize=14;" parent="0gFQtnNJmAbqzq2pZSLa-1" vertex="1">
          <mxGeometry y="90" width="140" height="30" as="geometry" />
        </mxCell>
        <mxCell id="0gFQtnNJmAbqzq2pZSLa-5" value="Sodienthoai" style="text;strokeColor=none;fillColor=none;align=left;verticalAlign=middle;spacingLeft=4;spacingRight=4;overflow=hidden;points=[[0,0.5],[1,0.5]];portConstraint=eastwest;rotatable=0;whiteSpace=wrap;html=1;fontSize=14;" parent="0gFQtnNJmAbqzq2pZSLa-1" vertex="1">
          <mxGeometry y="120" width="140" height="30" as="geometry" />
        </mxCell>
        <mxCell id="0gFQtnNJmAbqzq2pZSLa-7" style="edgeStyle=orthogonalEdgeStyle;rounded=0;orthogonalLoop=1;jettySize=auto;html=1;exitX=1;exitY=0.5;exitDx=0;exitDy=0;entryX=0.5;entryY=0;entryDx=0;entryDy=0;" parent="1" edge="1" target="BNDsPz6uWOse8F-yXVrc-6" source="0gFQtnNJmAbqzq2pZSLa-4">
          <mxGeometry relative="1" as="geometry">
            <mxPoint x="240" y="737.25" as="sourcePoint" />
            <mxPoint x="420" y="672.25" as="targetPoint" />
          </mxGeometry>
        </mxCell>
        <mxCell id="MFQGFgA-p1u-WEqwgYEl-4" value="&lt;b style=&quot;font-size: 14px;&quot;&gt;GiangVien&lt;/b&gt;" style="swimlane;fontStyle=0;childLayout=stackLayout;horizontal=1;startSize=30;horizontalStack=0;resizeParent=1;resizeParentMax=0;resizeLast=0;collapsible=1;marginBottom=0;whiteSpace=wrap;html=1;fontSize=14;" vertex="1" parent="1">
          <mxGeometry x="20" y="1380" width="140" height="150" as="geometry" />
        </mxCell>
        <mxCell id="MFQGFgA-p1u-WEqwgYEl-5" value="&lt;b style=&quot;font-size: 14px;&quot;&gt;&lt;u style=&quot;font-size: 14px;&quot;&gt;MaGV&lt;/u&gt;&lt;/b&gt;" style="text;strokeColor=none;fillColor=none;align=left;verticalAlign=middle;spacingLeft=4;spacingRight=4;overflow=hidden;points=[[0,0.5],[1,0.5]];portConstraint=eastwest;rotatable=0;whiteSpace=wrap;html=1;fontSize=14;" vertex="1" parent="MFQGFgA-p1u-WEqwgYEl-4">
          <mxGeometry y="30" width="140" height="30" as="geometry" />
        </mxCell>
        <mxCell id="MFQGFgA-p1u-WEqwgYEl-6" value="TenGV" style="text;strokeColor=none;fillColor=none;align=left;verticalAlign=middle;spacingLeft=4;spacingRight=4;overflow=hidden;points=[[0,0.5],[1,0.5]];portConstraint=eastwest;rotatable=0;whiteSpace=wrap;html=1;fontSize=14;" vertex="1" parent="MFQGFgA-p1u-WEqwgYEl-4">
          <mxGeometry y="60" width="140" height="30" as="geometry" />
        </mxCell>
        <mxCell id="MFQGFgA-p1u-WEqwgYEl-7" value="Email" style="text;strokeColor=none;fillColor=none;align=left;verticalAlign=middle;spacingLeft=4;spacingRight=4;overflow=hidden;points=[[0,0.5],[1,0.5]];portConstraint=eastwest;rotatable=0;whiteSpace=wrap;html=1;fontSize=14;" vertex="1" parent="MFQGFgA-p1u-WEqwgYEl-4">
          <mxGeometry y="90" width="140" height="30" as="geometry" />
        </mxCell>
        <mxCell id="MFQGFgA-p1u-WEqwgYEl-8" value="Sodienthoai" style="text;strokeColor=none;fillColor=none;align=left;verticalAlign=middle;spacingLeft=4;spacingRight=4;overflow=hidden;points=[[0,0.5],[1,0.5]];portConstraint=eastwest;rotatable=0;whiteSpace=wrap;html=1;fontSize=14;" vertex="1" parent="MFQGFgA-p1u-WEqwgYEl-4">
          <mxGeometry y="120" width="140" height="30" as="geometry" />
        </mxCell>
        <mxCell id="MFQGFgA-p1u-WEqwgYEl-9" style="edgeStyle=orthogonalEdgeStyle;rounded=0;orthogonalLoop=1;jettySize=auto;html=1;exitX=1;exitY=0.5;exitDx=0;exitDy=0;entryX=0;entryY=0.5;entryDx=0;entryDy=0;" edge="1" parent="1" source="MFQGFgA-p1u-WEqwgYEl-7" target="BNDsPz6uWOse8F-yXVrc-51">
          <mxGeometry relative="1" as="geometry">
            <mxPoint x="170" y="1487.25" as="sourcePoint" />
            <mxPoint x="360" y="1510" as="targetPoint" />
          </mxGeometry>
        </mxCell>
      </root>
    </mxGraphModel>
  </diagram>
  <diagram id="QQbuXFRujkvZ3C1Pgp_3" name="DDS">
    <mxGraphModel grid="1" page="1" gridSize="10" guides="1" tooltips="1" connect="1" arrows="1" fold="1" pageScale="1" pageWidth="827" pageHeight="1169" math="0" shadow="0">
      <root>
        <mxCell id="0" />
        <mxCell id="1" parent="0" />
        <mxCell id="ZaWR3fiifLt9OsGcbR0e-1" value="&lt;b style=&quot;border-color: var(--border-color);&quot;&gt;CANBO&lt;/b&gt;" style="swimlane;fontStyle=0;childLayout=stackLayout;horizontal=1;startSize=30;horizontalStack=0;resizeParent=1;resizeParentMax=0;resizeLast=0;collapsible=1;marginBottom=0;whiteSpace=wrap;html=1;fontSize=14;" vertex="1" parent="1">
          <mxGeometry x="610" y="495" width="140" height="120" as="geometry" />
        </mxCell>
        <mxCell id="ZaWR3fiifLt9OsGcbR0e-2" value="&lt;b style=&quot;font-size: 14px;&quot;&gt;&lt;u style=&quot;font-size: 14px;&quot;&gt;MACB_SK&lt;/u&gt;&lt;/b&gt;" style="text;strokeColor=none;fillColor=none;align=left;verticalAlign=middle;spacingLeft=4;spacingRight=4;overflow=hidden;points=[[0,0.5],[1,0.5]];portConstraint=eastwest;rotatable=0;whiteSpace=wrap;html=1;fontSize=14;" vertex="1" parent="ZaWR3fiifLt9OsGcbR0e-1">
          <mxGeometry y="30" width="140" height="30" as="geometry" />
        </mxCell>
        <mxCell id="ZaWR3fiifLt9OsGcbR0e-3" value="MACB_NK" style="text;strokeColor=none;fillColor=none;align=left;verticalAlign=middle;spacingLeft=4;spacingRight=4;overflow=hidden;points=[[0,0.5],[1,0.5]];portConstraint=eastwest;rotatable=0;whiteSpace=wrap;html=1;fontSize=14;" vertex="1" parent="ZaWR3fiifLt9OsGcbR0e-1">
          <mxGeometry y="60" width="140" height="30" as="geometry" />
        </mxCell>
        <mxCell id="ZaWR3fiifLt9OsGcbR0e-4" value="SOURCEID" style="text;strokeColor=none;fillColor=none;align=left;verticalAlign=middle;spacingLeft=4;spacingRight=4;overflow=hidden;points=[[0,0.5],[1,0.5]];portConstraint=eastwest;rotatable=0;whiteSpace=wrap;html=1;fontSize=14;" vertex="1" parent="ZaWR3fiifLt9OsGcbR0e-1">
          <mxGeometry y="90" width="140" height="30" as="geometry" />
        </mxCell>
        <mxCell id="ZaWR3fiifLt9OsGcbR0e-5" value="&lt;span style=&quot;border-color: var(--border-color);&quot;&gt;GIANGDAY&lt;/span&gt;" style="swimlane;fontStyle=1;childLayout=stackLayout;horizontal=1;startSize=30;horizontalStack=0;resizeParent=1;resizeParentMax=0;resizeLast=0;collapsible=1;marginBottom=0;whiteSpace=wrap;html=1;fontSize=14;" vertex="1" parent="1">
          <mxGeometry x="610" y="700" width="140" height="300" as="geometry" />
        </mxCell>
        <mxCell id="ZaWR3fiifLt9OsGcbR0e-6" value="&lt;b style=&quot;font-size: 14px;&quot;&gt;&lt;u style=&quot;font-size: 14px;&quot;&gt;MACB_SK&lt;/u&gt;&lt;/b&gt;" style="text;strokeColor=none;fillColor=none;align=left;verticalAlign=middle;spacingLeft=4;spacingRight=4;overflow=hidden;points=[[0,0.5],[1,0.5]];portConstraint=eastwest;rotatable=0;whiteSpace=wrap;html=1;fontSize=14;" vertex="1" parent="ZaWR3fiifLt9OsGcbR0e-5">
          <mxGeometry y="30" width="140" height="30" as="geometry" />
        </mxCell>
        <mxCell id="ZaWR3fiifLt9OsGcbR0e-7" value="MACT_SK" style="text;strokeColor=none;fillColor=none;align=left;verticalAlign=middle;spacingLeft=4;spacingRight=4;overflow=hidden;points=[[0,0.5],[1,0.5]];portConstraint=eastwest;rotatable=0;whiteSpace=wrap;html=1;fontSize=14;fontStyle=5" vertex="1" parent="ZaWR3fiifLt9OsGcbR0e-5">
          <mxGeometry y="60" width="140" height="30" as="geometry" />
        </mxCell>
        <mxCell id="ZaWR3fiifLt9OsGcbR0e-8" value="STTLOP" style="text;strokeColor=none;fillColor=none;align=left;verticalAlign=middle;spacingLeft=4;spacingRight=4;overflow=hidden;points=[[0,0.5],[1,0.5]];portConstraint=eastwest;rotatable=0;whiteSpace=wrap;html=1;fontSize=14;fontStyle=5" vertex="1" parent="ZaWR3fiifLt9OsGcbR0e-5">
          <mxGeometry y="90" width="140" height="30" as="geometry" />
        </mxCell>
        <mxCell id="ZaWR3fiifLt9OsGcbR0e-9" value="MAMH_SK" style="text;strokeColor=none;fillColor=none;align=left;verticalAlign=middle;spacingLeft=4;spacingRight=4;overflow=hidden;points=[[0,0.5],[1,0.5]];portConstraint=eastwest;rotatable=0;whiteSpace=wrap;html=1;fontSize=14;fontStyle=5" vertex="1" parent="ZaWR3fiifLt9OsGcbR0e-5">
          <mxGeometry y="120" width="140" height="30" as="geometry" />
        </mxCell>
        <mxCell id="ZaWR3fiifLt9OsGcbR0e-10" value="HOCKY" style="text;strokeColor=none;fillColor=none;align=left;verticalAlign=middle;spacingLeft=4;spacingRight=4;overflow=hidden;points=[[0,0.5],[1,0.5]];portConstraint=eastwest;rotatable=0;whiteSpace=wrap;html=1;fontSize=14;fontStyle=5" vertex="1" parent="ZaWR3fiifLt9OsGcbR0e-5">
          <mxGeometry y="150" width="140" height="30" as="geometry" />
        </mxCell>
        <mxCell id="ZaWR3fiifLt9OsGcbR0e-11" value="NAM" style="text;strokeColor=none;fillColor=none;align=left;verticalAlign=middle;spacingLeft=4;spacingRight=4;overflow=hidden;points=[[0,0.5],[1,0.5]];portConstraint=eastwest;rotatable=0;whiteSpace=wrap;html=1;fontSize=14;fontStyle=5" vertex="1" parent="ZaWR3fiifLt9OsGcbR0e-5">
          <mxGeometry y="180" width="140" height="30" as="geometry" />
        </mxCell>
        <mxCell id="ZaWR3fiifLt9OsGcbR0e-12" value="VAITRO" style="text;strokeColor=none;fillColor=none;align=left;verticalAlign=middle;spacingLeft=4;spacingRight=4;overflow=hidden;points=[[0,0.5],[1,0.5]];portConstraint=eastwest;rotatable=0;whiteSpace=wrap;html=1;fontSize=14;" vertex="1" parent="ZaWR3fiifLt9OsGcbR0e-5">
          <mxGeometry y="210" width="140" height="30" as="geometry" />
        </mxCell>
        <mxCell id="ZaWR3fiifLt9OsGcbR0e-13" value="SOTIETDAY" style="text;strokeColor=none;fillColor=none;align=left;verticalAlign=middle;spacingLeft=4;spacingRight=4;overflow=hidden;points=[[0,0.5],[1,0.5]];portConstraint=eastwest;rotatable=0;whiteSpace=wrap;html=1;fontSize=14;" vertex="1" parent="ZaWR3fiifLt9OsGcbR0e-5">
          <mxGeometry y="240" width="140" height="30" as="geometry" />
        </mxCell>
        <mxCell id="ToyHTbEaA47Q6Ki5Ke9e-1" value="SOURCEID" style="text;strokeColor=none;fillColor=none;align=left;verticalAlign=middle;spacingLeft=4;spacingRight=4;overflow=hidden;points=[[0,0.5],[1,0.5]];portConstraint=eastwest;rotatable=0;whiteSpace=wrap;html=1;fontSize=14;" vertex="1" parent="ZaWR3fiifLt9OsGcbR0e-5">
          <mxGeometry y="270" width="140" height="30" as="geometry" />
        </mxCell>
        <mxCell id="ZaWR3fiifLt9OsGcbR0e-14" value="&lt;b&gt;THOIGIAN&lt;/b&gt;" style="swimlane;fontStyle=0;childLayout=stackLayout;horizontal=1;startSize=30;horizontalStack=0;resizeParent=1;resizeParentMax=0;resizeLast=0;collapsible=1;marginBottom=0;whiteSpace=wrap;html=1;fontSize=14;" vertex="1" parent="1">
          <mxGeometry x="450" y="340" width="140" height="90" as="geometry" />
        </mxCell>
        <mxCell id="ZaWR3fiifLt9OsGcbR0e-15" value="&lt;b style=&quot;font-size: 14px;&quot;&gt;&lt;u style=&quot;font-size: 14px;&quot;&gt;HOCKY&lt;/u&gt;&lt;/b&gt;" style="text;strokeColor=none;fillColor=none;align=left;verticalAlign=middle;spacingLeft=4;spacingRight=4;overflow=hidden;points=[[0,0.5],[1,0.5]];portConstraint=eastwest;rotatable=0;whiteSpace=wrap;html=1;fontSize=14;" vertex="1" parent="ZaWR3fiifLt9OsGcbR0e-14">
          <mxGeometry y="30" width="140" height="30" as="geometry" />
        </mxCell>
        <mxCell id="ZaWR3fiifLt9OsGcbR0e-16" value="NAM" style="text;strokeColor=none;fillColor=none;align=left;verticalAlign=middle;spacingLeft=4;spacingRight=4;overflow=hidden;points=[[0,0.5],[1,0.5]];portConstraint=eastwest;rotatable=0;whiteSpace=wrap;html=1;fontSize=14;fontStyle=5" vertex="1" parent="ZaWR3fiifLt9OsGcbR0e-14">
          <mxGeometry y="60" width="140" height="30" as="geometry" />
        </mxCell>
        <mxCell id="ZaWR3fiifLt9OsGcbR0e-17" value="&lt;b style=&quot;border-color: var(--border-color);&quot;&gt;CHUONGTRINH&lt;/b&gt;" style="swimlane;fontStyle=0;childLayout=stackLayout;horizontal=1;startSize=30;horizontalStack=0;resizeParent=1;resizeParentMax=0;resizeLast=0;collapsible=1;marginBottom=0;whiteSpace=wrap;html=1;fontSize=14;" vertex="1" parent="1">
          <mxGeometry x="350" y="920" width="140" height="150" as="geometry" />
        </mxCell>
        <mxCell id="ZaWR3fiifLt9OsGcbR0e-18" value="&lt;b style=&quot;font-size: 14px;&quot;&gt;&lt;u style=&quot;font-size: 14px;&quot;&gt;MACT_SK&lt;/u&gt;&lt;/b&gt;" style="text;strokeColor=none;fillColor=none;align=left;verticalAlign=middle;spacingLeft=4;spacingRight=4;overflow=hidden;points=[[0,0.5],[1,0.5]];portConstraint=eastwest;rotatable=0;whiteSpace=wrap;html=1;fontSize=14;" vertex="1" parent="ZaWR3fiifLt9OsGcbR0e-17">
          <mxGeometry y="30" width="140" height="30" as="geometry" />
        </mxCell>
        <mxCell id="ZaWR3fiifLt9OsGcbR0e-19" value="MACT_NK" style="text;strokeColor=none;fillColor=none;align=left;verticalAlign=middle;spacingLeft=4;spacingRight=4;overflow=hidden;points=[[0,0.5],[1,0.5]];portConstraint=eastwest;rotatable=0;whiteSpace=wrap;html=1;fontSize=14;" vertex="1" parent="ZaWR3fiifLt9OsGcbR0e-17">
          <mxGeometry y="60" width="140" height="30" as="geometry" />
        </mxCell>
        <mxCell id="ZaWR3fiifLt9OsGcbR0e-20" value="TENCT" style="text;strokeColor=none;fillColor=none;align=left;verticalAlign=middle;spacingLeft=4;spacingRight=4;overflow=hidden;points=[[0,0.5],[1,0.5]];portConstraint=eastwest;rotatable=0;whiteSpace=wrap;html=1;fontSize=14;" vertex="1" parent="ZaWR3fiifLt9OsGcbR0e-17">
          <mxGeometry y="90" width="140" height="30" as="geometry" />
        </mxCell>
        <mxCell id="ZaWR3fiifLt9OsGcbR0e-21" value="SOURCEID" style="text;strokeColor=none;fillColor=none;align=left;verticalAlign=middle;spacingLeft=4;spacingRight=4;overflow=hidden;points=[[0,0.5],[1,0.5]];portConstraint=eastwest;rotatable=0;whiteSpace=wrap;html=1;fontSize=14;" vertex="1" parent="ZaWR3fiifLt9OsGcbR0e-17">
          <mxGeometry y="120" width="140" height="30" as="geometry" />
        </mxCell>
        <mxCell id="ZaWR3fiifLt9OsGcbR0e-22" value="" style="endArrow=ERmandOne;html=1;rounded=0;entryX=0.443;entryY=0.947;entryDx=0;entryDy=0;entryPerimeter=0;startArrow=ERoneToMany;startFill=0;endFill=0;exitX=0.5;exitY=0;exitDx=0;exitDy=0;" edge="1" parent="1" source="ZaWR3fiifLt9OsGcbR0e-43" target="ZaWR3fiifLt9OsGcbR0e-16">
          <mxGeometry width="50" height="50" relative="1" as="geometry">
            <mxPoint x="464.38960265886226" y="590" as="sourcePoint" />
            <mxPoint x="460" y="550" as="targetPoint" />
          </mxGeometry>
        </mxCell>
        <mxCell id="ZaWR3fiifLt9OsGcbR0e-23" value="" style="endArrow=ERoneToMany;html=1;rounded=0;entryX=0;entryY=0.5;entryDx=0;entryDy=0;startArrow=ERmandOne;startFill=0;endFill=0;exitX=1;exitY=0.5;exitDx=0;exitDy=0;" edge="1" parent="1" source="ZaWR3fiifLt9OsGcbR0e-48" target="ZaWR3fiifLt9OsGcbR0e-6">
          <mxGeometry width="50" height="50" relative="1" as="geometry">
            <mxPoint x="470" y="665" as="sourcePoint" />
            <mxPoint x="580" y="650" as="targetPoint" />
          </mxGeometry>
        </mxCell>
        <mxCell id="ZaWR3fiifLt9OsGcbR0e-24" value="" style="endArrow=none;html=1;rounded=0;entryX=0.997;entryY=0.867;entryDx=0;entryDy=0;entryPerimeter=0;" edge="1" parent="1" target="ZaWR3fiifLt9OsGcbR0e-2">
          <mxGeometry width="50" height="50" relative="1" as="geometry">
            <mxPoint x="750" y="782" as="sourcePoint" />
            <mxPoint x="380" y="550" as="targetPoint" />
            <Array as="points">
              <mxPoint x="810" y="782" />
              <mxPoint x="810" y="550" />
            </Array>
          </mxGeometry>
        </mxCell>
        <mxCell id="ZaWR3fiifLt9OsGcbR0e-25" value="" style="endArrow=none;html=1;rounded=0;exitX=0.5;exitY=0;exitDx=0;exitDy=0;entryX=0.65;entryY=0.996;entryDx=0;entryDy=0;entryPerimeter=0;" edge="1" parent="1" source="ZaWR3fiifLt9OsGcbR0e-17" target="ZaWR3fiifLt9OsGcbR0e-50">
          <mxGeometry width="50" height="50" relative="1" as="geometry">
            <mxPoint x="420" y="870" as="sourcePoint" />
            <mxPoint x="411.68000000000006" y="799.01" as="targetPoint" />
          </mxGeometry>
        </mxCell>
        <mxCell id="ZaWR3fiifLt9OsGcbR0e-26" value="" style="fontSize=14;html=1;endArrow=ERoneToMany;startArrow=ERmandOne;rounded=0;startSize=8;endSize=8;entryX=-0.019;entryY=1.032;entryDx=0;entryDy=0;startFill=0;endFill=0;exitX=0.996;exitY=0.277;exitDx=0;exitDy=0;exitPerimeter=0;entryPerimeter=0;" edge="1" parent="1" source="ZaWR3fiifLt9OsGcbR0e-39" target="ZaWR3fiifLt9OsGcbR0e-45">
          <mxGeometry width="100" height="100" relative="1" as="geometry">
            <mxPoint x="170" y="505" as="sourcePoint" />
            <mxPoint x="290" y="635" as="targetPoint" />
          </mxGeometry>
        </mxCell>
        <mxCell id="ZaWR3fiifLt9OsGcbR0e-27" value="" style="fontSize=14;html=1;endArrow=ERoneToMany;startArrow=ERmandOne;rounded=0;startSize=8;endSize=8;startFill=0;endFill=0;exitX=0.575;exitY=0.007;exitDx=0;exitDy=0;exitPerimeter=0;entryX=0.424;entryY=0.933;entryDx=0;entryDy=0;entryPerimeter=0;" edge="1" parent="1" source="ZaWR3fiifLt9OsGcbR0e-28" target="ZaWR3fiifLt9OsGcbR0e-41">
          <mxGeometry width="100" height="100" relative="1" as="geometry">
            <mxPoint x="80.08000000000015" y="700" as="sourcePoint" />
            <mxPoint x="80.06439426461748" y="610" as="targetPoint" />
          </mxGeometry>
        </mxCell>
        <mxCell id="ZaWR3fiifLt9OsGcbR0e-28" value="&lt;b&gt;LOAI_MH&lt;/b&gt;" style="swimlane;fontStyle=0;childLayout=stackLayout;horizontal=1;startSize=30;horizontalStack=0;resizeParent=1;resizeParentMax=0;resizeLast=0;collapsible=1;marginBottom=0;whiteSpace=wrap;html=1;fontSize=14;" vertex="1" parent="1">
          <mxGeometry y="710" width="140" height="180" as="geometry" />
        </mxCell>
        <mxCell id="ZaWR3fiifLt9OsGcbR0e-29" value="&lt;b&gt;&lt;u&gt;MALOAIMH_SK&lt;/u&gt;&lt;/b&gt;" style="text;strokeColor=none;fillColor=none;align=left;verticalAlign=middle;spacingLeft=4;spacingRight=4;overflow=hidden;points=[[0,0.5],[1,0.5]];portConstraint=eastwest;rotatable=0;whiteSpace=wrap;html=1;fontSize=14;" vertex="1" parent="ZaWR3fiifLt9OsGcbR0e-28">
          <mxGeometry y="30" width="140" height="30" as="geometry" />
        </mxCell>
        <mxCell id="ZaWR3fiifLt9OsGcbR0e-30" value="&lt;span&gt;&lt;span&gt;MALOAIMH_NK&lt;/span&gt;&lt;/span&gt;" style="text;strokeColor=none;fillColor=none;align=left;verticalAlign=middle;spacingLeft=4;spacingRight=4;overflow=hidden;points=[[0,0.5],[1,0.5]];portConstraint=eastwest;rotatable=0;whiteSpace=wrap;html=1;fontSize=14;fontStyle=0" vertex="1" parent="ZaWR3fiifLt9OsGcbR0e-28">
          <mxGeometry y="60" width="140" height="30" as="geometry" />
        </mxCell>
        <mxCell id="ZaWR3fiifLt9OsGcbR0e-31" value="TENLOAIMH" style="text;strokeColor=none;fillColor=none;align=left;verticalAlign=middle;spacingLeft=4;spacingRight=4;overflow=hidden;points=[[0,0.5],[1,0.5]];portConstraint=eastwest;rotatable=0;whiteSpace=wrap;html=1;fontSize=14;" vertex="1" parent="ZaWR3fiifLt9OsGcbR0e-28">
          <mxGeometry y="90" width="140" height="30" as="geometry" />
        </mxCell>
        <mxCell id="ZaWR3fiifLt9OsGcbR0e-32" value="DONGIA" style="text;strokeColor=none;fillColor=none;align=left;verticalAlign=middle;spacingLeft=4;spacingRight=4;overflow=hidden;points=[[0,0.5],[1,0.5]];portConstraint=eastwest;rotatable=0;whiteSpace=wrap;html=1;fontSize=14;" vertex="1" parent="ZaWR3fiifLt9OsGcbR0e-28">
          <mxGeometry y="120" width="140" height="30" as="geometry" />
        </mxCell>
        <mxCell id="ZaWR3fiifLt9OsGcbR0e-33" value="SOURCEID" style="text;strokeColor=none;fillColor=none;align=left;verticalAlign=middle;spacingLeft=4;spacingRight=4;overflow=hidden;points=[[0,0.5],[1,0.5]];portConstraint=eastwest;rotatable=0;whiteSpace=wrap;html=1;fontSize=14;" vertex="1" parent="ZaWR3fiifLt9OsGcbR0e-28">
          <mxGeometry y="150" width="140" height="30" as="geometry" />
        </mxCell>
        <mxCell id="ZaWR3fiifLt9OsGcbR0e-35" value="&lt;b&gt;MONHOC&lt;/b&gt;" style="swimlane;fontStyle=0;childLayout=stackLayout;horizontal=1;startSize=30;horizontalStack=0;resizeParent=1;resizeParentMax=0;resizeLast=0;collapsible=1;marginBottom=0;whiteSpace=wrap;html=1;fontSize=14;" vertex="1" parent="1">
          <mxGeometry x="20" y="360" width="140" height="240" as="geometry" />
        </mxCell>
        <mxCell id="ZaWR3fiifLt9OsGcbR0e-36" value="&lt;b&gt;&lt;u&gt;MAMH_SK&lt;/u&gt;&lt;/b&gt;" style="text;strokeColor=none;fillColor=none;align=left;verticalAlign=middle;spacingLeft=4;spacingRight=4;overflow=hidden;points=[[0,0.5],[1,0.5]];portConstraint=eastwest;rotatable=0;whiteSpace=wrap;html=1;fontSize=14;" vertex="1" parent="ZaWR3fiifLt9OsGcbR0e-35">
          <mxGeometry y="30" width="140" height="30" as="geometry" />
        </mxCell>
        <mxCell id="ZaWR3fiifLt9OsGcbR0e-37" value="&lt;b&gt;&lt;u&gt;LOAIMH_SK&lt;/u&gt;&lt;/b&gt;" style="text;strokeColor=none;fillColor=none;align=left;verticalAlign=middle;spacingLeft=4;spacingRight=4;overflow=hidden;points=[[0,0.5],[1,0.5]];portConstraint=eastwest;rotatable=0;whiteSpace=wrap;html=1;fontSize=14;" vertex="1" parent="ZaWR3fiifLt9OsGcbR0e-35">
          <mxGeometry y="60" width="140" height="30" as="geometry" />
        </mxCell>
        <mxCell id="ZaWR3fiifLt9OsGcbR0e-38" value="&lt;span&gt;&lt;span&gt;MAMH_NK&lt;/span&gt;&lt;/span&gt;" style="text;strokeColor=none;fillColor=none;align=left;verticalAlign=middle;spacingLeft=4;spacingRight=4;overflow=hidden;points=[[0,0.5],[1,0.5]];portConstraint=eastwest;rotatable=0;whiteSpace=wrap;html=1;fontSize=14;fontStyle=0" vertex="1" parent="ZaWR3fiifLt9OsGcbR0e-35">
          <mxGeometry y="90" width="140" height="30" as="geometry" />
        </mxCell>
        <mxCell id="ZaWR3fiifLt9OsGcbR0e-39" value="TENMH" style="text;strokeColor=none;fillColor=none;align=left;verticalAlign=middle;spacingLeft=4;spacingRight=4;overflow=hidden;points=[[0,0.5],[1,0.5]];portConstraint=eastwest;rotatable=0;whiteSpace=wrap;html=1;fontSize=14;" vertex="1" parent="ZaWR3fiifLt9OsGcbR0e-35">
          <mxGeometry y="120" width="140" height="30" as="geometry" />
        </mxCell>
        <mxCell id="ZaWR3fiifLt9OsGcbR0e-40" value="TCLT" style="text;strokeColor=none;fillColor=none;align=left;verticalAlign=middle;spacingLeft=4;spacingRight=4;overflow=hidden;points=[[0,0.5],[1,0.5]];portConstraint=eastwest;rotatable=0;whiteSpace=wrap;html=1;fontSize=14;" vertex="1" parent="ZaWR3fiifLt9OsGcbR0e-35">
          <mxGeometry y="150" width="140" height="30" as="geometry" />
        </mxCell>
        <mxCell id="ZaWR3fiifLt9OsGcbR0e-42" value="TCTH" style="text;strokeColor=none;fillColor=none;align=left;verticalAlign=middle;spacingLeft=4;spacingRight=4;overflow=hidden;points=[[0,0.5],[1,0.5]];portConstraint=eastwest;rotatable=0;whiteSpace=wrap;html=1;fontSize=14;" vertex="1" parent="ZaWR3fiifLt9OsGcbR0e-35">
          <mxGeometry y="180" width="140" height="30" as="geometry" />
        </mxCell>
        <mxCell id="ZaWR3fiifLt9OsGcbR0e-41" value="SOURCEID" style="text;strokeColor=none;fillColor=none;align=left;verticalAlign=middle;spacingLeft=4;spacingRight=4;overflow=hidden;points=[[0,0.5],[1,0.5]];portConstraint=eastwest;rotatable=0;whiteSpace=wrap;html=1;fontSize=14;" vertex="1" parent="ZaWR3fiifLt9OsGcbR0e-35">
          <mxGeometry y="210" width="140" height="30" as="geometry" />
        </mxCell>
        <mxCell id="ZaWR3fiifLt9OsGcbR0e-43" value="&lt;b&gt;MONHOCMO&lt;/b&gt;" style="swimlane;fontStyle=0;childLayout=stackLayout;horizontal=1;startSize=30;horizontalStack=0;resizeParent=1;resizeParentMax=0;resizeLast=0;collapsible=1;marginBottom=0;whiteSpace=wrap;html=1;fontSize=14;" vertex="1" parent="1">
          <mxGeometry x="330" y="550" width="140" height="240" as="geometry" />
        </mxCell>
        <mxCell id="ZaWR3fiifLt9OsGcbR0e-44" value="&lt;b&gt;&lt;u&gt;MACT_SK&lt;/u&gt;&lt;/b&gt;" style="text;strokeColor=none;fillColor=none;align=left;verticalAlign=middle;spacingLeft=4;spacingRight=4;overflow=hidden;points=[[0,0.5],[1,0.5]];portConstraint=eastwest;rotatable=0;whiteSpace=wrap;html=1;fontSize=14;" vertex="1" parent="ZaWR3fiifLt9OsGcbR0e-43">
          <mxGeometry y="30" width="140" height="30" as="geometry" />
        </mxCell>
        <mxCell id="ZaWR3fiifLt9OsGcbR0e-45" value="&lt;b&gt;&lt;u&gt;MAMH_SK&lt;/u&gt;&lt;/b&gt;" style="text;strokeColor=none;fillColor=none;align=left;verticalAlign=middle;spacingLeft=4;spacingRight=4;overflow=hidden;points=[[0,0.5],[1,0.5]];portConstraint=eastwest;rotatable=0;whiteSpace=wrap;html=1;fontSize=14;" vertex="1" parent="ZaWR3fiifLt9OsGcbR0e-43">
          <mxGeometry y="60" width="140" height="30" as="geometry" />
        </mxCell>
        <mxCell id="ZaWR3fiifLt9OsGcbR0e-46" value="&lt;b&gt;&lt;u&gt;MAMH_SK&lt;/u&gt;&lt;/b&gt;" style="text;strokeColor=none;fillColor=none;align=left;verticalAlign=middle;spacingLeft=4;spacingRight=4;overflow=hidden;points=[[0,0.5],[1,0.5]];portConstraint=eastwest;rotatable=0;whiteSpace=wrap;html=1;fontSize=14;" vertex="1" parent="ZaWR3fiifLt9OsGcbR0e-43">
          <mxGeometry y="90" width="140" height="30" as="geometry" />
        </mxCell>
        <mxCell id="ZaWR3fiifLt9OsGcbR0e-47" value="&lt;b&gt;&lt;u&gt;STT_LOP&lt;/u&gt;&lt;/b&gt;" style="text;strokeColor=none;fillColor=none;align=left;verticalAlign=middle;spacingLeft=4;spacingRight=4;overflow=hidden;points=[[0,0.5],[1,0.5]];portConstraint=eastwest;rotatable=0;whiteSpace=wrap;html=1;fontSize=14;" vertex="1" parent="ZaWR3fiifLt9OsGcbR0e-43">
          <mxGeometry y="120" width="140" height="30" as="geometry" />
        </mxCell>
        <mxCell id="ZaWR3fiifLt9OsGcbR0e-48" value="&lt;u&gt;&lt;b&gt;HOCKY&lt;/b&gt;&lt;/u&gt;" style="text;strokeColor=none;fillColor=none;align=left;verticalAlign=middle;spacingLeft=4;spacingRight=4;overflow=hidden;points=[[0,0.5],[1,0.5]];portConstraint=eastwest;rotatable=0;whiteSpace=wrap;html=1;fontSize=14;" vertex="1" parent="ZaWR3fiifLt9OsGcbR0e-43">
          <mxGeometry y="150" width="140" height="30" as="geometry" />
        </mxCell>
        <mxCell id="ZaWR3fiifLt9OsGcbR0e-49" value="&lt;b&gt;&lt;u&gt;NAM&lt;/u&gt;&lt;/b&gt;" style="text;strokeColor=none;fillColor=none;align=left;verticalAlign=middle;spacingLeft=4;spacingRight=4;overflow=hidden;points=[[0,0.5],[1,0.5]];portConstraint=eastwest;rotatable=0;whiteSpace=wrap;html=1;fontSize=14;" vertex="1" parent="ZaWR3fiifLt9OsGcbR0e-43">
          <mxGeometry y="180" width="140" height="30" as="geometry" />
        </mxCell>
        <mxCell id="ZaWR3fiifLt9OsGcbR0e-50" value="SOURCEID" style="text;strokeColor=none;fillColor=none;align=left;verticalAlign=middle;spacingLeft=4;spacingRight=4;overflow=hidden;points=[[0,0.5],[1,0.5]];portConstraint=eastwest;rotatable=0;whiteSpace=wrap;html=1;fontSize=14;" vertex="1" parent="ZaWR3fiifLt9OsGcbR0e-43">
          <mxGeometry y="210" width="140" height="30" as="geometry" />
        </mxCell>
        <mxCell id="HnG83-J4wPfFd70EloDk-1" value="&lt;p class=&quot;MsoNormal&quot;&gt;INSERT INTO DDS.GIANGDAY (&lt;span style=&quot;mso-spacerun:&#39;yes&#39;;font-family:Calibri;mso-bidi-font-family:&#39;Times New Roman&#39;;&lt;br/&gt;font-size:11.0000pt;mso-font-kerning:1.0000pt;&quot;&gt;MACB&lt;/span&gt;&lt;span style=&quot;mso-spacerun:&#39;yes&#39;;font-family:Calibri;mso-bidi-font-family:&#39;Times New Roman&#39;;&lt;br/&gt;font-size:11.0000pt;mso-font-kerning:1.0000pt;&quot;&gt;,&lt;/span&gt;&lt;span style=&quot;mso-spacerun:&#39;yes&#39;;font-family:Calibri;mso-bidi-font-family:&#39;Times New Roman&#39;;&lt;br/&gt;font-size:11.0000pt;mso-font-kerning:1.0000pt;&quot;&gt;MACT&lt;/span&gt;&lt;span style=&quot;mso-spacerun:&#39;yes&#39;;font-family:Calibri;mso-bidi-font-family:&#39;Times New Roman&#39;;&lt;br/&gt;font-size:11.0000pt;mso-font-kerning:1.0000pt;&quot;&gt;,&lt;/span&gt;&lt;span style=&quot;mso-spacerun:&#39;yes&#39;;font-family:Calibri;mso-bidi-font-family:&#39;Times New Roman&#39;;&lt;br/&gt;font-size:11.0000pt;mso-font-kerning:1.0000pt;&quot;&gt;STTLOP&lt;/span&gt;&lt;span style=&quot;mso-spacerun:&#39;yes&#39;;font-family:Calibri;mso-bidi-font-family:&#39;Times New Roman&#39;;&lt;br/&gt;font-size:11.0000pt;mso-font-kerning:1.0000pt;&quot;&gt;,&lt;/span&gt;&lt;span style=&quot;mso-spacerun:&#39;yes&#39;;font-family:Calibri;mso-bidi-font-family:&#39;Times New Roman&#39;;&lt;br/&gt;font-size:11.0000pt;mso-font-kerning:1.0000pt;&quot;&gt;MAMH&lt;/span&gt;&lt;span style=&quot;mso-spacerun:&#39;yes&#39;;font-family:Calibri;mso-bidi-font-family:&#39;Times New Roman&#39;;&lt;br/&gt;font-size:11.0000pt;mso-font-kerning:1.0000pt;&quot;&gt;,&lt;/span&gt;&lt;span style=&quot;mso-spacerun:&#39;yes&#39;;font-family:Calibri;mso-bidi-font-family:&#39;Times New Roman&#39;;&lt;br/&gt;font-size:11.0000pt;mso-font-kerning:1.0000pt;&quot;&gt;HOCKY&lt;/span&gt;&lt;span style=&quot;mso-spacerun:&#39;yes&#39;;font-family:Calibri;mso-bidi-font-family:&#39;Times New Roman&#39;;&lt;br/&gt;font-size:11.0000pt;mso-font-kerning:1.0000pt;&quot;&gt;,&lt;/span&gt;&lt;span style=&quot;mso-spacerun:&#39;yes&#39;;font-family:Calibri;mso-bidi-font-family:&#39;Times New Roman&#39;;&lt;br/&gt;font-size:11.0000pt;mso-font-kerning:1.0000pt;&quot;&gt;NAM&lt;/span&gt;&lt;span style=&quot;mso-spacerun:&#39;yes&#39;;font-family:Calibri;mso-bidi-font-family:&#39;Times New Roman&#39;;&lt;br/&gt;font-size:11.0000pt;mso-font-kerning:1.0000pt;&quot;&gt;,&lt;/span&gt;&lt;span style=&quot;mso-spacerun:&#39;yes&#39;;font-family:Calibri;mso-bidi-font-family:&#39;Times New Roman&#39;;&lt;br/&gt;font-size:11.0000pt;mso-font-kerning:1.0000pt;&quot;&gt;VAITRO&lt;/span&gt;&lt;span style=&quot;mso-spacerun:&#39;yes&#39;;font-family:Calibri;mso-bidi-font-family:&#39;Times New Roman&#39;;&lt;br/&gt;font-size:11.0000pt;mso-font-kerning:1.0000pt;&quot;&gt;,SO&lt;/span&gt;&lt;span style=&quot;mso-spacerun:&#39;yes&#39;;font-family:Calibri;mso-bidi-font-family:&#39;Times New Roman&#39;;&lt;br/&gt;font-size:11.0000pt;mso-font-kerning:1.0000pt;&quot;&gt;TIET&lt;/span&gt;&lt;span style=&quot;mso-spacerun:&#39;yes&#39;;font-family:Calibri;mso-bidi-font-family:&#39;Times New Roman&#39;;&lt;br/&gt;font-size:11.0000pt;mso-font-kerning:1.0000pt;&quot;&gt;DAY)&lt;/span&gt;&lt;span style=&quot;mso-spacerun:&#39;yes&#39;;font-family:Calibri;mso-bidi-font-family:&#39;Times New Roman&#39;;&lt;br/&gt;font-size:11.0000pt;mso-font-kerning:1.0000pt;&quot;&gt;&lt;/span&gt;&lt;/p&gt;&lt;p class=&quot;MsoNormal&quot;&gt;&lt;span style=&quot;mso-spacerun:&#39;yes&#39;;font-family:Calibri;mso-bidi-font-family:&#39;Times New Roman&#39;;&lt;br/&gt;font-size:11.0000pt;mso-font-kerning:1.0000pt;&quot;&gt;SELECT &lt;/span&gt;&lt;span style=&quot;mso-spacerun:&#39;yes&#39;;font-family:Calibri;mso-bidi-font-family:&#39;Times New Roman&#39;;&lt;br/&gt;font-size:11.0000pt;mso-font-kerning:1.0000pt;&quot;&gt;CB&lt;/span&gt;&lt;span style=&quot;mso-spacerun:&#39;yes&#39;;font-family:Calibri;mso-bidi-font-family:&#39;Times New Roman&#39;;&lt;br/&gt;font-size:11.0000pt;mso-font-kerning:1.0000pt;&quot;&gt;.&lt;/span&gt;&lt;span style=&quot;mso-spacerun:&#39;yes&#39;;font-family:Calibri;mso-bidi-font-family:&#39;Times New Roman&#39;;&lt;br/&gt;font-size:11.0000pt;mso-font-kerning:1.0000pt;&quot;&gt;MACB&lt;/span&gt;&lt;span style=&quot;mso-spacerun:&#39;yes&#39;;font-family:Calibri;mso-bidi-font-family:&#39;Times New Roman&#39;;&lt;br/&gt;font-size:11.0000pt;mso-font-kerning:1.0000pt;&quot;&gt;,&lt;/span&gt;&lt;span style=&quot;mso-spacerun:&#39;yes&#39;;font-family:Calibri;mso-bidi-font-family:&#39;Times New Roman&#39;;&lt;br/&gt;font-size:11.0000pt;mso-font-kerning:1.0000pt;&quot;&gt;MHM.MACT&lt;/span&gt;&lt;span style=&quot;mso-spacerun:&#39;yes&#39;;font-family:Calibri;mso-bidi-font-family:&#39;Times New Roman&#39;;&lt;br/&gt;font-size:11.0000pt;mso-font-kerning:1.0000pt;&quot;&gt;,&lt;/span&gt;&lt;span style=&quot;mso-spacerun:&#39;yes&#39;;font-family:Calibri;mso-bidi-font-family:&#39;Times New Roman&#39;;&lt;br/&gt;font-size:11.0000pt;mso-font-kerning:1.0000pt;&quot;&gt;MHM.STTLOP&lt;/span&gt;&lt;span style=&quot;mso-spacerun:&#39;yes&#39;;font-family:Calibri;mso-bidi-font-family:&#39;Times New Roman&#39;;&lt;br/&gt;font-size:11.0000pt;mso-font-kerning:1.0000pt;&quot;&gt;,&lt;/span&gt;&lt;span style=&quot;mso-spacerun:&#39;yes&#39;;font-family:Calibri;mso-bidi-font-family:&#39;Times New Roman&#39;;&lt;br/&gt;font-size:11.0000pt;mso-font-kerning:1.0000pt;&quot;&gt;MHM.MAMH,MHM.HOCKY,MHM.NAM,VAITRO,SOTIETDAY&lt;/span&gt;&lt;span style=&quot;mso-spacerun:&#39;yes&#39;;font-family:Calibri;mso-bidi-font-family:&#39;Times New Roman&#39;;&lt;br/&gt;font-size:11.0000pt;mso-font-kerning:1.0000pt;&quot;&gt;&lt;/span&gt;&lt;/p&gt;&lt;p class=&quot;MsoNormal&quot;&gt;&lt;span style=&quot;mso-spacerun:&#39;yes&#39;;font-family:Calibri;mso-bidi-font-family:&#39;Times New Roman&#39;;&lt;br/&gt;font-size:11.0000pt;mso-font-kerning:1.0000pt;&quot;&gt;FROM NDS.GIANGDAY GD JOIN &lt;/span&gt;&lt;span style=&quot;mso-spacerun:&#39;yes&#39;;font-family:Calibri;mso-bidi-font-family:&#39;Times New Roman&#39;;&lt;br/&gt;font-size:11.0000pt;mso-font-kerning:1.0000pt;&quot;&gt;CANBO&lt;/span&gt;&lt;span style=&quot;mso-spacerun:&#39;yes&#39;;font-family:Calibri;mso-bidi-font-family:&#39;Times New Roman&#39;;&lt;br/&gt;font-size:11.0000pt;mso-font-kerning:1.0000pt;&quot;&gt;&amp;nbsp;&lt;/span&gt;&lt;span style=&quot;mso-spacerun:&#39;yes&#39;;font-family:Calibri;mso-bidi-font-family:&#39;Times New Roman&#39;;&lt;br/&gt;font-size:11.0000pt;mso-font-kerning:1.0000pt;&quot;&gt;CB&lt;/span&gt;&lt;span style=&quot;mso-spacerun:&#39;yes&#39;;font-family:Calibri;mso-bidi-font-family:&#39;Times New Roman&#39;;&lt;br/&gt;font-size:11.0000pt;mso-font-kerning:1.0000pt;&quot;&gt;&amp;nbsp;ON GD.MA&lt;/span&gt;&lt;span style=&quot;mso-spacerun:&#39;yes&#39;;font-family:Calibri;mso-bidi-font-family:&#39;Times New Roman&#39;;&lt;br/&gt;font-size:11.0000pt;mso-font-kerning:1.0000pt;&quot;&gt;CB&lt;/span&gt;&lt;span style=&quot;mso-spacerun:&#39;yes&#39;;font-family:Calibri;mso-bidi-font-family:&#39;Times New Roman&#39;;&lt;br/&gt;font-size:11.0000pt;mso-font-kerning:1.0000pt;&quot;&gt;=&lt;/span&gt;&lt;span style=&quot;mso-spacerun:&#39;yes&#39;;font-family:Calibri;mso-bidi-font-family:&#39;Times New Roman&#39;;&lt;br/&gt;font-size:11.0000pt;mso-font-kerning:1.0000pt;&quot;&gt;CB&lt;/span&gt;&lt;span style=&quot;mso-spacerun:&#39;yes&#39;;font-family:Calibri;mso-bidi-font-family:&#39;Times New Roman&#39;;&lt;br/&gt;font-size:11.0000pt;mso-font-kerning:1.0000pt;&quot;&gt;.MA&lt;/span&gt;&lt;span style=&quot;mso-spacerun:&#39;yes&#39;;font-family:Calibri;mso-bidi-font-family:&#39;Times New Roman&#39;;&lt;br/&gt;font-size:11.0000pt;mso-font-kerning:1.0000pt;&quot;&gt;CB&lt;/span&gt;&lt;span style=&quot;mso-spacerun:&#39;yes&#39;;font-family:Calibri;mso-bidi-font-family:&#39;Times New Roman&#39;;&lt;br/&gt;font-size:11.0000pt;mso-font-kerning:1.0000pt;&quot;&gt;&amp;nbsp;&lt;/span&gt;&lt;span style=&quot;mso-spacerun:&#39;yes&#39;;font-family:Calibri;mso-bidi-font-family:&#39;Times New Roman&#39;;&lt;br/&gt;font-size:11.0000pt;mso-font-kerning:1.0000pt;&quot;&gt;&lt;/span&gt;&lt;/p&gt;&lt;p class=&quot;MsoNormal&quot;&gt;&lt;span style=&quot;mso-spacerun:&#39;yes&#39;;font-family:Calibri;mso-bidi-font-family:&#39;Times New Roman&#39;;&lt;br/&gt;font-size:11.0000pt;mso-font-kerning:1.0000pt;&quot;&gt;&amp;nbsp;&lt;/span&gt;&lt;/p&gt;&lt;p class=&quot;MsoNormal&quot;&gt;&lt;span style=&quot;mso-spacerun:&#39;yes&#39;;font-family:Calibri;mso-bidi-font-family:&#39;Times New Roman&#39;;&lt;br/&gt;font-size:11.0000pt;mso-font-kerning:1.0000pt;&quot;&gt;&amp;nbsp;&lt;/span&gt;&lt;/p&gt;&lt;p class=&quot;MsoNormal&quot;&gt;&lt;span style=&quot;mso-spacerun:&#39;yes&#39;;font-family:Calibri;mso-bidi-font-family:&#39;Times New Roman&#39;;&lt;br/&gt;font-size:11.0000pt;mso-font-kerning:1.0000pt;&quot;&gt;&amp;nbsp;&lt;/span&gt;&lt;/p&gt;&lt;p class=&quot;MsoNormal&quot;&gt;&lt;span style=&quot;mso-spacerun:&#39;yes&#39;;font-family:Calibri;mso-bidi-font-family:&#39;Times New Roman&#39;;&lt;br/&gt;font-size:11.0000pt;mso-font-kerning:1.0000pt;&quot;&gt;INSERT INTO DDS.&lt;/span&gt;&lt;span style=&quot;mso-spacerun:&#39;yes&#39;;font-family:Calibri;mso-bidi-font-family:&#39;Times New Roman&#39;;&lt;br/&gt;font-size:11.0000pt;mso-font-kerning:1.0000pt;&quot;&gt;CANBO&lt;/span&gt;&lt;span style=&quot;mso-spacerun:&#39;yes&#39;;font-family:Calibri;mso-bidi-font-family:&#39;Times New Roman&#39;;&lt;br/&gt;font-size:11.0000pt;mso-font-kerning:1.0000pt;&quot;&gt;&amp;nbsp;(&lt;/span&gt;&lt;span style=&quot;mso-spacerun:&#39;yes&#39;;font-family:Calibri;mso-bidi-font-family:&#39;Times New Roman&#39;;&lt;br/&gt;font-size:11.0000pt;mso-font-kerning:1.0000pt;&quot;&gt;MACB&lt;/span&gt;&lt;span style=&quot;mso-spacerun:&#39;yes&#39;;font-family:Calibri;mso-bidi-font-family:&#39;Times New Roman&#39;;&lt;br/&gt;font-size:11.0000pt;mso-font-kerning:1.0000pt;&quot;&gt;)&lt;/span&gt;&lt;span style=&quot;mso-spacerun:&#39;yes&#39;;font-family:Calibri;mso-bidi-font-family:&#39;Times New Roman&#39;;&lt;br/&gt;font-size:11.0000pt;mso-font-kerning:1.0000pt;&quot;&gt;&lt;/span&gt;&lt;/p&gt;&lt;p class=&quot;MsoNormal&quot;&gt;&lt;span style=&quot;mso-spacerun:&#39;yes&#39;;font-family:Calibri;mso-bidi-font-family:&#39;Times New Roman&#39;;&lt;br/&gt;font-size:11.0000pt;mso-font-kerning:1.0000pt;&quot;&gt;SELECT &lt;/span&gt;&lt;span style=&quot;mso-spacerun:&#39;yes&#39;;font-family:Calibri;mso-bidi-font-family:&#39;Times New Roman&#39;;&lt;br/&gt;font-size:11.0000pt;mso-font-kerning:1.0000pt;&quot;&gt;CB&lt;/span&gt;&lt;span style=&quot;mso-spacerun:&#39;yes&#39;;font-family:Calibri;mso-bidi-font-family:&#39;Times New Roman&#39;;&lt;br/&gt;font-size:11.0000pt;mso-font-kerning:1.0000pt;&quot;&gt;.&lt;/span&gt;&lt;span style=&quot;mso-spacerun:&#39;yes&#39;;font-family:Calibri;mso-bidi-font-family:&#39;Times New Roman&#39;;&lt;br/&gt;font-size:11.0000pt;mso-font-kerning:1.0000pt;&quot;&gt;MACB&lt;/span&gt;&lt;span style=&quot;mso-spacerun:&#39;yes&#39;;font-family:Calibri;mso-bidi-font-family:&#39;Times New Roman&#39;;&lt;br/&gt;font-size:11.0000pt;mso-font-kerning:1.0000pt;&quot;&gt;,&lt;/span&gt;&lt;span style=&quot;mso-spacerun:&#39;yes&#39;;font-family:Calibri;mso-bidi-font-family:&#39;Times New Roman&#39;;&lt;br/&gt;font-size:11.0000pt;mso-font-kerning:1.0000pt;&quot;&gt;&amp;nbsp;&lt;/span&gt;&lt;span style=&quot;letter-spacing: 0pt; font-size: 10.5pt; background-image: initial; background-position: initial; background-size: initial; background-repeat: initial; background-attachment: initial; background-origin: initial; background-clip: initial;&quot;&gt;SOURCEID&lt;/span&gt;&lt;span style=&quot;mso-spacerun:&#39;yes&#39;;font-family:Calibri;mso-bidi-font-family:&#39;Times New Roman&#39;;&lt;br/&gt;font-size:11.0000pt;mso-font-kerning:1.0000pt;&quot;&gt;&lt;/span&gt;&lt;/p&gt;&lt;p style=&quot;margin-top:5.0000pt;margin-right:0.0000pt;margin-bottom:8.0000pt;&lt;br/&gt;margin-left:0.0000pt;mso-margin-top-alt:auto;mso-pagination:widow-orphan;&lt;br/&gt;text-align:left;line-height:106%;&quot; class=&quot;MsoNormal&quot;&gt;&lt;span style=&quot;mso-spacerun:&#39;yes&#39;;font-family:Calibri;mso-bidi-font-family:&#39;Times New Roman&#39;;&lt;br/&gt;font-size:11.0000pt;mso-font-kerning:1.0000pt;&quot;&gt;FROM &lt;/span&gt;&lt;span style=&quot;mso-spacerun:&#39;yes&#39;;font-family:Calibri;mso-bidi-font-family:&#39;Times New Roman&#39;;&lt;br/&gt;font-size:11.0000pt;mso-font-kerning:1.0000pt;&quot;&gt;NDS.&lt;/span&gt;&lt;span style=&quot;mso-spacerun:&#39;yes&#39;;font-family:Calibri;mso-bidi-font-family:&#39;Times New Roman&#39;;&lt;br/&gt;font-size:11.0000pt;mso-font-kerning:1.0000pt;&quot;&gt;CANBO CB&lt;/span&gt;&lt;span style=&quot;mso-spacerun:&#39;yes&#39;;font-family:Calibri;mso-bidi-font-family:&#39;Times New Roman&#39;;&lt;br/&gt;font-size:11.0000pt;mso-font-kerning:1.0000pt;&quot;&gt;&amp;nbsp;&lt;/span&gt;&lt;span style=&quot;mso-spacerun:&#39;yes&#39;;font-family:Calibri;mso-bidi-font-family:&#39;Times New Roman&#39;;&lt;br/&gt;font-size:11.0000pt;mso-font-kerning:1.0000pt;&quot;&gt;&amp;nbsp;JOIN&lt;/span&gt;&lt;span style=&quot;mso-spacerun:&#39;yes&#39;;font-family:Calibri;mso-bidi-font-family:&#39;Times New Roman&#39;;&lt;br/&gt;font-size:11.0000pt;mso-font-kerning:1.0000pt;&quot;&gt;&amp;nbsp;&lt;/span&gt;&lt;span style=&quot;mso-spacerun:&#39;yes&#39;;font-family:Calibri;mso-bidi-font-family:&#39;Times New Roman&#39;;&lt;br/&gt;font-size:11.0000pt;mso-font-kerning:1.0000pt;&quot;&gt;NDS.GIANGDAY GD&lt;/span&gt;&lt;span style=&quot;mso-spacerun:&#39;yes&#39;;font-family:Calibri;mso-bidi-font-family:&#39;Times New Roman&#39;;&lt;br/&gt;font-size:11.0000pt;mso-font-kerning:1.0000pt;&quot;&gt;&amp;nbsp;&amp;nbsp;ON GD.MA&lt;/span&gt;&lt;span style=&quot;mso-spacerun:&#39;yes&#39;;font-family:Calibri;mso-bidi-font-family:&#39;Times New Roman&#39;;&lt;br/&gt;font-size:11.0000pt;mso-font-kerning:1.0000pt;&quot;&gt;CB&lt;/span&gt;&lt;span style=&quot;mso-spacerun:&#39;yes&#39;;font-family:Calibri;mso-bidi-font-family:&#39;Times New Roman&#39;;&lt;br/&gt;font-size:11.0000pt;mso-font-kerning:1.0000pt;&quot;&gt;=&lt;/span&gt;&lt;span style=&quot;mso-spacerun:&#39;yes&#39;;font-family:Calibri;mso-bidi-font-family:&#39;Times New Roman&#39;;&lt;br/&gt;font-size:11.0000pt;mso-font-kerning:1.0000pt;&quot;&gt;CB&lt;/span&gt;&lt;span style=&quot;mso-spacerun:&#39;yes&#39;;font-family:Calibri;mso-bidi-font-family:&#39;Times New Roman&#39;;&lt;br/&gt;font-size:11.0000pt;mso-font-kerning:1.0000pt;&quot;&gt;.MA&lt;/span&gt;&lt;span style=&quot;mso-spacerun:&#39;yes&#39;;font-family:Calibri;mso-bidi-font-family:&#39;Times New Roman&#39;;&lt;br/&gt;font-size:11.0000pt;mso-font-kerning:1.0000pt;&quot;&gt;CB&lt;/span&gt;&lt;span style=&quot;mso-spacerun:&#39;yes&#39;;font-family:Calibri;mso-bidi-font-family:&#39;Times New Roman&#39;;&lt;br/&gt;font-size:11.0000pt;mso-font-kerning:1.0000pt;&quot;&gt;&amp;nbsp;&lt;/span&gt;&lt;span style=&quot;mso-spacerun:&#39;yes&#39;;font-family:Calibri;mso-bidi-font-family:&#39;Times New Roman&#39;;&lt;br/&gt;font-size:11.0000pt;mso-font-kerning:1.0000pt;&quot;&gt;&lt;/span&gt;&lt;/p&gt;" style="text;html=1;align=center;verticalAlign=middle;resizable=0;points=[];autosize=1;strokeColor=none;fillColor=none;" vertex="1" parent="1">
          <mxGeometry x="200" y="1169" width="530" height="260" as="geometry" />
        </mxCell>
      </root>
    </mxGraphModel>
  </diagram>
</mxfile>
